<svg xmlns="http://www.w3.org/2000/svg" xmlns:xlink="http://www.w3.org/1999/xlink" width="537" zoomAndPan="magnify" viewBox="0 0 402.96 198.95999" height="255" preserveAspectRatio="xMidYMid meet" version="1.0"><defs><g/><clipPath id="4c955a8052"><path d="M 0.0195312 0 L 402.691406 0 L 402.691406 191.210938 L 0.0195312 191.210938 Z M 0.0195312 0 " clip-rule="nonzero"/></clipPath><clipPath id="5c9daeab6a"><path d="M 0.261719 0 L 72.097656 0 L 72.097656 190.796875 L 0.261719 190.796875 Z M 0.261719 0 " clip-rule="nonzero"/></clipPath><clipPath id="090ff71d00"><path d="M 330.941406 0 L 402.417969 0 L 402.417969 190.796875 L 330.941406 190.796875 Z M 330.941406 0 " clip-rule="nonzero"/></clipPath><clipPath id="9805fc6c61"><path d="M 0.941406 0 L 72.417969 0 L 72.417969 190.796875 L 0.941406 190.796875 Z M 0.941406 0 " clip-rule="nonzero"/></clipPath><clipPath id="81e7014740"><rect x="0" width="73" y="0" height="191"/></clipPath><clipPath id="4e611bb5e4"><rect x="0" width="403" y="0" height="192"/></clipPath></defs><g clip-path="url(#4c955a8052)"><g><g clip-path="url(#4e611bb5e4)"><g clip-path="url(#5c9daeab6a)"><path fill="#f5f5f5" d="M 260.980469 115.804688 L 261.140625 115.804688 L 261.140625 115.964844 C 260.761719 120.554688 258.671875 124.761719 255.253906 127.863281 C 251.835938 130.933594 247.40625 132.582031 242.816406 132.484375 L 242.785156 132.484375 C 241.707031 135.902344 240.472656 139.320312 239.050781 142.675781 C 240.285156 141.03125 241.769531 139.671875 243.511719 138.53125 C 247.371094 136.03125 251.992188 135.082031 256.519531 135.902344 L 256.675781 135.933594 L 256.644531 136.09375 C 255.570312 140.554688 252.847656 144.417969 248.988281 146.917969 C 245.125 149.417969 240.503906 150.367188 235.980469 149.542969 L 235.945312 149.542969 C 235.757812 149.957031 235.535156 150.335938 235.347656 150.746094 C 233.921875 153.53125 232.339844 156.316406 230.597656 159.101562 C 232.085938 157.648438 233.828125 156.476562 235.726562 155.652344 C 239.933594 153.785156 244.621094 153.597656 248.988281 155.113281 L 249.113281 155.179688 L 249.050781 155.304688 C 247.277344 159.546875 243.984375 162.933594 239.777344 164.800781 C 235.566406 166.667969 230.882812 166.855469 226.515625 165.339844 L 226.453125 165.304688 C 224.332031 168.28125 222.054688 171.191406 219.679688 173.945312 C 221.386719 172.742188 223.289062 171.824219 225.3125 171.289062 C 229.742188 170.085938 234.429688 170.625 238.480469 172.808594 L 238.605469 172.871094 L 238.542969 172.996094 C 236.105469 176.921875 232.339844 179.738281 227.90625 180.910156 C 223.476562 182.113281 218.792969 181.574219 214.742188 179.390625 L 214.679688 179.359375 C 210.46875 183.664062 205.941406 187.621094 201.226562 191.164062 L 201.101562 191.257812 L 199.644531 189.328125 L 199.773438 189.234375 C 204.390625 185.753906 208.761719 181.921875 212.8125 177.777344 C 209.929688 174.230469 208.507812 169.769531 208.824219 165.210938 C 209.140625 160.621094 211.164062 156.382812 214.550781 153.246094 L 214.648438 153.152344 L 214.742188 153.28125 C 217.652344 156.855469 219.078125 161.320312 218.761719 165.90625 C 218.539062 169.007812 217.527344 171.953125 215.851562 174.515625 C 218.886719 171.160156 221.738281 167.648438 224.332031 163.976562 C 220.945312 160.90625 218.824219 156.730469 218.445312 152.203125 C 218.035156 147.613281 219.394531 143.121094 222.242188 139.480469 L 222.335938 139.355469 L 222.433594 139.449219 C 225.882812 142.519531 228.003906 146.726562 228.382812 151.285156 C 228.667969 154.449219 228.097656 157.550781 226.800781 160.367188 C 229.109375 156.886719 231.199219 153.28125 233.097656 149.578125 C 233.257812 149.226562 233.414062 148.910156 233.605469 148.5625 C 229.777344 146.09375 227.023438 142.265625 225.914062 137.835938 C 224.804688 133.371094 225.40625 128.6875 227.65625 124.699219 L 227.71875 124.574219 L 227.84375 124.667969 C 231.707031 127.167969 234.460938 130.964844 235.597656 135.429688 C 236.359375 138.53125 236.296875 141.726562 235.410156 144.734375 C 237.308594 140.523438 238.953125 136.25 240.316406 131.914062 C 236.136719 130.046875 232.8125 126.726562 231.042969 122.515625 C 229.238281 118.273438 229.140625 113.558594 230.726562 109.253906 L 230.789062 109.128906 L 230.914062 109.191406 C 235.125 111.027344 238.449219 114.382812 240.25 118.621094 C 241.515625 121.597656 241.929688 124.792969 241.515625 127.960938 C 242.75 123.527344 243.703125 119.003906 244.367188 114.414062 C 239.933594 113.242188 236.167969 110.457031 233.730469 106.597656 C 231.292969 102.703125 230.441406 98.050781 231.328125 93.554688 L 231.359375 93.398438 L 231.515625 93.429688 C 235.980469 94.601562 239.777344 97.386719 242.214844 101.277344 C 243.859375 103.90625 244.777344 106.914062 244.902344 109.949219 C 245.347656 105.867188 245.570312 101.722656 245.570312 97.574219 C 245.570312 97.324219 245.570312 97.070312 245.570312 96.816406 L 245.570312 96.46875 C 241.042969 95.992188 236.898438 93.839844 233.921875 90.390625 C 230.882812 86.910156 229.332031 82.480469 229.523438 77.890625 L 229.523438 77.730469 L 229.679688 77.730469 C 234.269531 78.175781 238.449219 80.359375 241.453125 83.808594 C 243.449219 86.117188 244.808594 88.808594 245.441406 91.753906 C 245.21875 87.289062 244.746094 82.890625 244.019531 78.523438 C 243.703125 78.554688 243.351562 78.554688 243.035156 78.554688 C 238.828125 78.554688 234.777344 77.097656 231.515625 74.375 C 228.003906 71.433594 225.757812 67.289062 225.21875 62.699219 L 225.1875 62.539062 L 225.34375 62.539062 C 229.933594 62.285156 234.429688 63.742188 237.941406 66.71875 C 240.347656 68.742188 242.152344 71.339844 243.226562 74.21875 C 242.308594 69.757812 241.136719 65.386719 239.683594 61.082031 C 238.414062 61.367188 237.148438 61.496094 235.882812 61.496094 C 232.65625 61.496094 229.492188 60.640625 226.640625 58.933594 C 222.6875 56.558594 219.835938 52.824219 218.601562 48.390625 L 218.570312 48.265625 L 218.730469 48.234375 C 223.222656 47.253906 227.875 48.011719 231.832031 50.386719 C 234.523438 52 236.707031 54.277344 238.226562 56.96875 C 236.613281 52.761719 234.777344 48.613281 232.65625 44.5625 C 228.382812 46.207031 223.730469 46.175781 219.488281 44.46875 C 215.214844 42.757812 211.796875 39.5 209.898438 35.320312 L 209.835938 35.195312 L 209.960938 35.132812 C 214.234375 33.453125 218.953125 33.484375 223.222656 35.195312 C 226.039062 36.332031 228.445312 38.105469 230.34375 40.417969 C 228.097656 36.554688 225.660156 32.851562 223.066406 29.339844 C 219.109375 31.617188 214.519531 32.28125 210.089844 31.269531 C 205.59375 30.226562 201.734375 27.566406 199.171875 23.738281 L 199.074219 23.609375 L 199.203125 23.546875 C 203.191406 21.238281 207.84375 20.507812 212.304688 21.554688 C 215.152344 22.21875 217.78125 23.546875 219.996094 25.445312 C 218.320312 23.390625 216.546875 21.363281 214.773438 19.464844 C 210.027344 19.085938 205.722656 17.152344 202.304688 13.894531 C 198.539062 10.285156 196.320312 5.445312 196.070312 0.222656 L 196.070312 0.0625 L 196.226562 0.0625 C 201.449219 0.09375 206.386719 2.121094 210.152344 5.730469 C 213.445312 8.894531 215.535156 12.914062 216.199219 17.40625 C 217.652344 18.957031 219.109375 20.574219 220.535156 22.25 C 219.519531 20.289062 218.886719 18.167969 218.636719 15.953125 C 218.160156 11.394531 219.425781 6.835938 222.210938 3.164062 L 222.304688 3.039062 L 222.433594 3.132812 C 225.945312 6.140625 228.128906 10.316406 228.605469 14.875 C 229.078125 19.433594 227.8125 23.992188 225.027344 27.660156 L 224.964844 27.757812 C 227.148438 30.699219 229.238281 33.769531 231.167969 36.902344 C 230.535156 34.878906 230.25 32.757812 230.375 30.636719 C 230.597656 26.046875 232.5625 21.742188 235.914062 18.578125 L 236.011719 18.484375 L 236.105469 18.609375 C 239.082031 22.125 240.601562 26.585938 240.347656 31.175781 C 240.125 35.765625 238.164062 40.035156 234.839844 43.234375 L 234.777344 43.296875 C 236.484375 46.523438 238.035156 49.847656 239.398438 53.171875 C 239.113281 51.113281 239.175781 49.058594 239.617188 47.03125 C 240.566406 42.539062 243.164062 38.613281 246.960938 35.984375 L 247.089844 35.890625 L 247.152344 36.015625 C 249.554688 39.941406 250.347656 44.59375 249.398438 49.089844 C 248.449219 53.582031 245.855469 57.507812 242.054688 60.132812 L 242.023438 60.167969 C 243.195312 63.617188 244.175781 67.160156 245.03125 70.738281 C 245.0625 68.648438 245.441406 66.589844 246.203125 64.628906 C 247.847656 60.324219 251.042969 56.875 255.191406 54.878906 L 255.316406 54.816406 L 255.378906 54.945312 C 257.121094 59.214844 257.183594 63.902344 255.539062 68.203125 C 253.894531 72.507812 250.695312 75.960938 246.550781 77.953125 L 246.488281 77.984375 C 247.089844 81.59375 247.53125 85.296875 247.785156 89 C 248.132812 86.878906 248.859375 84.882812 249.90625 83.015625 C 252.183594 79.027344 255.886719 76.117188 260.285156 74.789062 L 260.414062 74.757812 L 260.445312 74.914062 C 261.519531 79.410156 260.824219 84.0625 258.546875 88.050781 C 256.265625 92.039062 252.5625 94.949219 248.164062 96.277344 L 248.070312 96.308594 C 248.070312 96.785156 248.070312 97.195312 248.070312 97.609375 C 248.070312 100.804688 247.941406 104.0625 247.65625 107.324219 C 248.324219 105.332031 249.335938 103.460938 250.664062 101.816406 C 253.542969 98.242188 257.660156 95.929688 262.214844 95.296875 L 262.375 95.265625 L 262.375 95.421875 C 262.722656 100.011719 261.332031 104.507812 258.417969 108.082031 C 255.539062 111.660156 251.425781 113.96875 246.867188 114.601562 L 246.804688 114.601562 C 246.296875 118.179688 245.601562 121.757812 244.746094 125.269531 C 245.726562 123.464844 246.992188 121.851562 248.511719 120.457031 C 251.835938 117.484375 256.078125 115.835938 260.539062 115.835938 C 260.695312 115.804688 260.855469 115.804688 260.980469 115.804688 Z M 52.664062 5.664062 C 49.371094 8.832031 47.285156 12.851562 46.617188 17.34375 C 45.164062 18.894531 43.707031 20.507812 42.28125 22.1875 C 43.296875 20.222656 43.929688 18.105469 44.183594 15.886719 C 44.65625 11.332031 43.390625 6.773438 40.605469 3.101562 L 40.511719 2.976562 L 40.382812 3.070312 C 36.902344 6.078125 34.6875 10.253906 34.210938 14.8125 C 33.738281 19.371094 35.003906 23.925781 37.789062 27.597656 L 37.851562 27.695312 C 35.667969 30.636719 33.578125 33.707031 31.648438 36.839844 C 32.28125 34.816406 32.566406 32.695312 32.441406 30.574219 C 32.21875 25.984375 30.257812 21.710938 26.933594 18.515625 L 26.835938 18.421875 L 26.742188 18.546875 C 23.769531 22.058594 22.25 26.523438 22.5 31.113281 C 22.722656 35.699219 24.6875 39.972656 28.007812 43.171875 L 28.070312 43.234375 C 26.363281 46.460938 24.8125 49.785156 23.453125 53.109375 C 23.734375 51.050781 23.671875 48.992188 23.230469 46.96875 C 22.28125 42.472656 19.683594 38.550781 15.886719 35.921875 L 15.761719 35.828125 L 15.695312 35.953125 C 13.292969 39.878906 12.5 44.53125 13.449219 49.023438 C 14.398438 53.519531 16.996094 57.445312 20.792969 60.070312 L 20.824219 60.101562 C 19.652344 63.550781 18.671875 67.097656 17.816406 70.671875 C 17.785156 68.585938 17.40625 66.527344 16.648438 64.566406 C 15 60.261719 11.804688 56.8125 7.65625 54.816406 L 7.53125 54.753906 L 7.46875 54.878906 C 5.726562 59.121094 5.664062 63.835938 7.308594 68.140625 C 8.957031 72.445312 12.152344 75.894531 16.296875 77.890625 L 16.363281 77.921875 C 15.761719 81.53125 15.316406 85.234375 15.0625 88.9375 C 14.714844 86.816406 13.988281 84.820312 12.945312 82.953125 C 10.664062 78.964844 6.960938 76.054688 2.5625 74.726562 L 2.4375 74.691406 L 2.402344 74.851562 C 1.328125 79.347656 2.023438 84 4.304688 87.984375 C 6.582031 91.972656 10.285156 94.886719 14.683594 96.214844 L 14.777344 96.246094 C 14.777344 96.722656 14.777344 97.132812 14.777344 97.542969 C 14.777344 100.742188 14.90625 104 15.191406 107.261719 C 14.527344 105.234375 13.511719 103.398438 12.183594 101.753906 C 9.273438 98.175781 5.1875 95.867188 0.632812 95.265625 L 0.472656 95.234375 L 0.472656 95.390625 C 0.125 99.980469 1.519531 104.476562 4.429688 108.050781 C 7.308594 111.628906 11.425781 113.9375 15.980469 114.570312 L 16.046875 114.570312 C 16.550781 118.148438 17.246094 121.726562 18.101562 125.238281 C 17.121094 123.433594 15.855469 121.820312 14.335938 120.425781 C 10.917969 117.355469 6.519531 115.679688 1.898438 115.804688 L 1.738281 115.804688 L 1.738281 115.964844 C 2.121094 120.554688 4.207031 124.761719 7.625 127.863281 C 11.042969 130.933594 15.445312 132.582031 20.066406 132.484375 L 20.097656 132.484375 C 21.171875 135.902344 22.40625 139.320312 23.832031 142.675781 C 22.597656 141.03125 21.078125 139.671875 19.367188 138.53125 C 15.507812 136.03125 10.886719 135.082031 6.359375 135.902344 L 6.203125 135.933594 L 6.234375 136.09375 C 7.308594 140.554688 10.03125 144.417969 13.894531 146.917969 C 17.753906 149.417969 22.375 150.367188 26.902344 149.542969 L 26.933594 149.542969 C 27.121094 149.957031 27.3125 150.335938 27.535156 150.746094 C 28.957031 153.53125 30.539062 156.347656 32.28125 159.101562 C 30.792969 157.648438 29.054688 156.476562 27.152344 155.652344 C 22.945312 153.785156 18.261719 153.597656 13.894531 155.113281 L 13.765625 155.179688 L 13.828125 155.304688 C 15.601562 159.546875 18.894531 162.933594 23.101562 164.800781 C 27.3125 166.667969 31.996094 166.855469 36.363281 165.339844 L 36.425781 165.304688 C 38.546875 168.28125 40.828125 171.191406 43.199219 173.945312 C 41.492188 172.742188 39.59375 171.824219 37.566406 171.289062 C 33.136719 170.085938 28.453125 170.625 24.402344 172.808594 L 24.273438 172.871094 L 24.335938 172.996094 C 26.773438 176.921875 30.539062 179.738281 34.972656 180.910156 C 39.402344 182.113281 44.085938 181.574219 48.136719 179.390625 L 48.203125 179.359375 C 52.410156 183.664062 56.9375 187.652344 61.652344 191.164062 L 61.777344 191.257812 L 63.234375 189.328125 L 63.109375 189.234375 C 58.488281 185.753906 54.121094 181.921875 50.070312 177.777344 C 52.949219 174.230469 54.371094 169.769531 54.054688 165.210938 C 53.738281 160.621094 51.714844 156.382812 48.328125 153.246094 L 48.234375 153.152344 L 48.136719 153.28125 C 45.226562 156.855469 43.769531 161.320312 44.117188 165.90625 C 44.339844 169.007812 45.351562 171.953125 47.03125 174.515625 C 43.992188 171.160156 41.144531 167.648438 38.515625 163.976562 C 41.902344 160.90625 44.023438 156.730469 44.402344 152.203125 C 44.816406 147.613281 43.453125 143.121094 40.605469 139.480469 L 40.511719 139.355469 L 40.414062 139.449219 C 36.964844 142.519531 34.84375 146.726562 34.464844 151.285156 C 34.179688 154.449219 34.75 157.550781 36.046875 160.367188 C 33.738281 156.886719 31.648438 153.28125 29.75 149.578125 C 29.589844 149.226562 29.433594 148.910156 29.242188 148.5625 C 33.074219 146.09375 35.828125 142.265625 36.933594 137.835938 C 38.042969 133.371094 37.441406 128.71875 35.160156 124.699219 L 35.097656 124.574219 L 34.972656 124.667969 C 31.109375 127.167969 28.355469 130.964844 27.21875 135.429688 C 26.457031 138.53125 26.519531 141.726562 27.375 144.734375 C 25.476562 140.523438 23.832031 136.25 22.46875 131.914062 C 26.648438 130.046875 29.972656 126.726562 31.742188 122.515625 C 33.546875 118.273438 33.640625 113.558594 32.058594 109.253906 L 31.996094 109.128906 L 31.871094 109.191406 C 27.660156 111.027344 24.335938 114.382812 22.535156 118.621094 C 21.265625 121.597656 20.855469 124.792969 21.265625 127.929688 C 20.03125 123.496094 19.082031 118.972656 18.417969 114.382812 C 22.851562 113.210938 26.617188 110.425781 29.054688 106.566406 C 31.492188 102.671875 32.34375 98.019531 31.425781 93.523438 L 31.425781 93.367188 L 31.269531 93.398438 C 26.804688 94.570312 23.007812 97.355469 20.570312 101.246094 C 18.925781 103.875 18.007812 106.882812 17.882812 109.917969 C 17.4375 105.835938 17.214844 101.722656 17.214844 97.542969 C 17.214844 97.292969 17.214844 97.039062 17.214844 96.785156 L 17.214844 96.4375 C 21.742188 95.960938 25.886719 93.808594 28.894531 90.359375 C 31.902344 86.878906 33.484375 82.449219 33.292969 77.859375 L 33.292969 77.699219 L 33.136719 77.699219 C 28.546875 78.144531 24.367188 80.328125 21.363281 83.777344 C 19.367188 86.085938 18.007812 88.777344 17.375 91.722656 C 17.597656 87.257812 18.070312 82.859375 18.796875 78.492188 C 19.117188 78.523438 19.433594 78.523438 19.78125 78.523438 C 23.988281 78.523438 28.039062 77.066406 31.300781 74.34375 C 34.8125 71.402344 37.0625 67.253906 37.597656 62.667969 L 37.628906 62.507812 L 37.472656 62.507812 C 32.882812 62.253906 28.386719 63.710938 24.875 66.6875 C 22.46875 68.710938 20.667969 71.308594 19.589844 74.1875 C 20.507812 69.722656 21.679688 65.355469 23.132812 61.050781 C 24.402344 61.335938 25.667969 61.464844 26.933594 61.464844 C 30.160156 61.464844 33.324219 60.609375 36.175781 58.898438 C 40.128906 56.527344 42.980469 52.792969 44.214844 48.359375 L 44.246094 48.234375 L 44.085938 48.203125 C 39.59375 47.222656 34.941406 47.980469 30.984375 50.355469 C 28.292969 51.96875 26.109375 54.246094 24.589844 56.96875 C 26.203125 52.726562 28.039062 48.613281 30.160156 44.5625 C 34.433594 46.207031 39.085938 46.175781 43.328125 44.46875 C 47.601562 42.757812 51.019531 39.5 52.917969 35.320312 L 52.980469 35.195312 L 52.855469 35.132812 C 48.582031 33.453125 43.867188 33.484375 39.59375 35.195312 C 36.777344 36.332031 34.371094 38.105469 32.472656 40.417969 C 34.6875 36.554688 37.15625 32.851562 39.75 29.339844 C 43.707031 31.617188 48.296875 32.28125 52.726562 31.269531 C 57.222656 30.226562 61.082031 27.566406 63.644531 23.738281 L 63.742188 23.609375 L 63.613281 23.546875 C 59.625 21.238281 54.972656 20.507812 50.511719 21.554688 C 47.664062 22.21875 45.035156 23.546875 42.820312 25.476562 C 44.5 23.421875 46.269531 21.394531 48.042969 19.496094 C 52.789062 19.117188 57.09375 17.1875 60.511719 13.925781 C 64.28125 10.316406 66.496094 5.476562 66.746094 0.253906 L 66.746094 0.09375 L 66.558594 0 C 61.367188 0.03125 56.398438 2.058594 52.664062 5.664062 Z M 52.664062 5.664062 " fill-opacity="1" fill-rule="nonzero"/></g><g clip-path="url(#090ff71d00)"><g transform="matrix(1, 0, 0, 1, 330, 0)"><g clip-path="url(#81e7014740)"><g clip-path="url(#9805fc6c61)"><path fill="#f5f5f5" d="M -188.273438 115.804688 L -188.433594 115.804688 L -188.433594 115.964844 C -188.054688 120.554688 -185.964844 124.761719 -182.546875 127.863281 C -179.128906 130.933594 -174.695312 132.582031 -170.109375 132.484375 L -170.078125 132.484375 C -169 135.902344 -167.765625 139.320312 -166.339844 142.675781 C -167.574219 141.03125 -169.0625 139.671875 -170.804688 138.53125 C -174.664062 136.03125 -179.285156 135.082031 -183.8125 135.902344 L -183.96875 135.933594 L -183.9375 136.09375 C -182.863281 140.554688 -180.140625 144.417969 -176.28125 146.917969 C -172.417969 149.417969 -167.796875 150.367188 -163.273438 149.542969 L -163.238281 149.542969 C -163.050781 149.957031 -162.828125 150.335938 -162.640625 150.746094 C -161.214844 153.53125 -159.632812 156.316406 -157.890625 159.101562 C -159.378906 157.648438 -161.121094 156.476562 -163.019531 155.652344 C -167.226562 153.785156 -171.910156 153.597656 -176.28125 155.113281 L -176.40625 155.179688 L -176.34375 155.304688 C -174.570312 159.546875 -171.277344 162.933594 -167.070312 164.800781 C -162.859375 166.667969 -158.175781 166.855469 -153.808594 165.339844 L -153.746094 165.304688 C -151.625 168.28125 -149.347656 171.191406 -146.972656 173.945312 C -148.679688 172.742188 -150.582031 171.824219 -152.605469 171.289062 C -157.035156 170.085938 -161.722656 170.625 -165.773438 172.808594 L -165.898438 172.871094 L -165.835938 172.996094 C -163.398438 176.921875 -159.632812 179.738281 -155.199219 180.910156 C -150.769531 182.113281 -146.085938 181.574219 -142.035156 179.390625 L -141.972656 179.359375 C -137.761719 183.664062 -133.234375 187.621094 -128.519531 191.164062 L -128.394531 191.257812 L -126.9375 189.328125 L -127.066406 189.234375 C -131.683594 185.753906 -136.054688 181.921875 -140.105469 177.777344 C -137.222656 174.230469 -135.800781 169.769531 -136.117188 165.210938 C -136.433594 160.621094 -138.457031 156.382812 -141.84375 153.246094 L -141.941406 153.152344 L -142.035156 153.28125 C -144.945312 156.855469 -146.371094 161.320312 -146.054688 165.90625 C -145.832031 169.007812 -144.820312 171.953125 -143.140625 174.515625 C -146.179688 171.160156 -149.03125 167.648438 -151.625 163.976562 C -148.238281 160.90625 -146.117188 156.730469 -145.738281 152.203125 C -145.328125 147.613281 -146.6875 143.121094 -149.535156 139.480469 L -149.628906 139.355469 L -149.726562 139.449219 C -153.175781 142.519531 -155.296875 146.726562 -155.675781 151.285156 C -155.960938 154.449219 -155.390625 157.550781 -154.09375 160.367188 C -156.402344 156.886719 -158.492188 153.28125 -160.390625 149.578125 C -160.550781 149.226562 -160.707031 148.910156 -160.898438 148.5625 C -157.070312 146.09375 -154.316406 142.265625 -153.207031 137.835938 C -152.097656 133.371094 -152.699219 128.6875 -154.949219 124.699219 L -155.011719 124.574219 L -155.136719 124.667969 C -159 127.167969 -161.753906 130.964844 -162.890625 135.429688 C -163.652344 138.53125 -163.589844 141.726562 -162.703125 144.734375 C -164.601562 140.523438 -166.246094 136.25 -167.609375 131.914062 C -163.429688 130.046875 -160.105469 126.726562 -158.335938 122.515625 C -156.53125 118.273438 -156.433594 113.558594 -158.019531 109.253906 L -158.082031 109.128906 L -158.207031 109.191406 C -162.417969 111.027344 -165.742188 114.382812 -167.542969 118.621094 C -168.808594 121.597656 -169.222656 124.792969 -168.808594 127.960938 C -170.042969 123.527344 -170.996094 119.003906 -171.660156 114.414062 C -167.226562 113.242188 -163.460938 110.457031 -161.023438 106.597656 C -158.585938 102.703125 -157.734375 98.050781 -158.621094 93.554688 L -158.652344 93.398438 L -158.808594 93.429688 C -163.273438 94.601562 -167.070312 97.386719 -169.507812 101.277344 C -171.152344 103.90625 -172.070312 106.914062 -172.195312 109.949219 C -172.640625 105.867188 -172.863281 101.722656 -172.863281 97.574219 C -172.863281 97.324219 -172.863281 97.070312 -172.863281 96.816406 L -172.863281 96.46875 C -168.335938 95.992188 -164.191406 93.839844 -161.214844 90.390625 C -158.175781 86.910156 -156.625 82.480469 -156.816406 77.890625 L -156.816406 77.730469 L -156.972656 77.730469 C -161.5625 78.175781 -165.742188 80.359375 -168.746094 83.808594 C -170.742188 86.117188 -172.101562 88.808594 -172.734375 91.753906 C -172.511719 87.289062 -172.039062 82.890625 -171.3125 78.523438 C -170.996094 78.554688 -170.644531 78.554688 -170.328125 78.554688 C -166.121094 78.554688 -162.070312 77.097656 -158.808594 74.375 C -155.296875 71.433594 -153.050781 67.289062 -152.511719 62.699219 L -152.480469 62.539062 L -152.636719 62.539062 C -157.226562 62.285156 -161.722656 63.742188 -165.234375 66.71875 C -167.640625 68.742188 -169.445312 71.339844 -170.519531 74.21875 C -169.601562 69.757812 -168.429688 65.386719 -166.976562 61.082031 C -165.707031 61.367188 -164.441406 61.496094 -163.175781 61.496094 C -159.949219 61.496094 -156.785156 60.640625 -153.933594 58.933594 C -149.980469 56.558594 -147.128906 52.824219 -145.894531 48.390625 L -145.863281 48.265625 L -146.023438 48.234375 C -150.515625 47.253906 -155.167969 48.011719 -159.125 50.386719 C -161.816406 52 -164 54.277344 -165.519531 56.96875 C -163.90625 52.761719 -162.070312 48.613281 -159.949219 44.5625 C -155.675781 46.207031 -151.023438 46.175781 -146.78125 44.46875 C -142.507812 42.757812 -139.089844 39.5 -137.191406 35.320312 L -137.128906 35.195312 L -137.253906 35.132812 C -141.527344 33.453125 -146.246094 33.484375 -150.515625 35.195312 C -153.332031 36.332031 -155.738281 38.105469 -157.636719 40.417969 C -155.390625 36.554688 -152.953125 32.851562 -150.359375 29.339844 C -146.402344 31.617188 -141.8125 32.28125 -137.382812 31.269531 C -132.886719 30.226562 -129.027344 27.566406 -126.464844 23.738281 L -126.367188 23.609375 L -126.496094 23.546875 C -130.484375 21.238281 -135.136719 20.507812 -139.597656 21.554688 C -142.445312 22.21875 -145.074219 23.546875 -147.289062 25.445312 C -145.609375 23.390625 -143.839844 21.363281 -142.066406 19.464844 C -137.320312 19.085938 -133.015625 17.152344 -129.597656 13.894531 C -125.832031 10.285156 -123.613281 5.445312 -123.363281 0.222656 L -123.363281 0.0625 L -123.519531 0.0625 C -128.742188 0.09375 -133.679688 2.121094 -137.445312 5.730469 C -140.738281 8.894531 -142.824219 12.914062 -143.492188 17.40625 C -144.945312 18.957031 -146.402344 20.574219 -147.828125 22.25 C -146.8125 20.289062 -146.179688 18.167969 -145.929688 15.953125 C -145.453125 11.394531 -146.71875 6.835938 -149.503906 3.164062 L -149.597656 3.039062 L -149.726562 3.132812 C -153.238281 6.140625 -155.421875 10.316406 -155.898438 14.875 C -156.371094 19.433594 -155.105469 23.992188 -152.320312 27.660156 L -152.257812 27.757812 C -154.441406 30.699219 -156.53125 33.769531 -158.460938 36.902344 C -157.828125 34.878906 -157.542969 32.757812 -157.667969 30.636719 C -157.890625 26.046875 -159.855469 21.742188 -163.207031 18.578125 L -163.304688 18.484375 L -163.398438 18.609375 C -166.375 22.125 -167.894531 26.585938 -167.640625 31.175781 C -167.417969 35.765625 -165.457031 40.035156 -162.132812 43.234375 L -162.070312 43.296875 C -163.777344 46.523438 -165.328125 49.847656 -166.691406 53.171875 C -166.40625 51.113281 -166.46875 49.058594 -166.910156 47.03125 C -167.859375 42.539062 -170.457031 38.613281 -174.253906 35.984375 L -174.378906 35.890625 L -174.445312 36.015625 C -176.847656 39.941406 -177.640625 44.59375 -176.691406 49.089844 C -175.742188 53.582031 -173.144531 57.507812 -169.347656 60.132812 L -169.316406 60.167969 C -170.488281 63.617188 -171.46875 67.160156 -172.324219 70.738281 C -172.355469 68.648438 -172.734375 66.589844 -173.496094 64.628906 C -175.140625 60.324219 -178.335938 56.875 -182.484375 54.878906 L -182.609375 54.816406 L -182.671875 54.945312 C -184.414062 59.214844 -184.476562 63.902344 -182.832031 68.203125 C -181.183594 72.507812 -177.988281 75.960938 -173.84375 77.953125 L -173.78125 77.984375 C -174.378906 81.59375 -174.824219 85.296875 -175.078125 89 C -175.425781 86.878906 -176.152344 84.882812 -177.199219 83.015625 C -179.476562 79.027344 -183.179688 76.117188 -187.578125 74.789062 L -187.707031 74.757812 L -187.738281 74.914062 C -188.8125 79.410156 -188.117188 84.0625 -185.839844 88.050781 C -183.558594 92.039062 -179.855469 94.949219 -175.457031 96.277344 L -175.363281 96.308594 C -175.363281 96.785156 -175.363281 97.195312 -175.363281 97.609375 C -175.363281 100.804688 -175.234375 104.0625 -174.949219 107.324219 C -175.613281 105.332031 -176.628906 103.460938 -177.957031 101.816406 C -180.835938 98.242188 -184.953125 95.929688 -189.507812 95.296875 L -189.667969 95.265625 L -189.667969 95.421875 C -190.015625 100.011719 -188.625 104.507812 -185.710938 108.082031 C -182.832031 111.660156 -178.71875 113.96875 -174.160156 114.601562 L -174.097656 114.601562 C -173.589844 118.179688 -172.894531 121.757812 -172.039062 125.269531 C -173.019531 123.464844 -174.285156 121.851562 -175.804688 120.457031 C -179.128906 117.484375 -183.371094 115.835938 -187.832031 115.835938 C -187.988281 115.804688 -188.148438 115.804688 -188.273438 115.804688 Z M 20.042969 5.664062 C 23.335938 8.832031 25.421875 12.851562 26.089844 17.34375 C 27.542969 18.894531 29 20.507812 30.425781 22.1875 C 29.410156 20.222656 28.777344 18.105469 28.523438 15.886719 C 28.050781 11.332031 29.316406 6.773438 32.101562 3.101562 L 32.195312 2.976562 L 32.324219 3.070312 C 35.804688 6.078125 38.019531 10.253906 38.496094 14.8125 C 38.96875 19.371094 37.703125 23.925781 34.917969 27.597656 L 34.855469 27.695312 C 37.039062 30.636719 39.128906 33.707031 41.058594 36.839844 C 40.425781 34.816406 40.140625 32.695312 40.265625 30.574219 C 40.488281 25.984375 42.453125 21.710938 45.773438 18.515625 L 45.871094 18.421875 L 45.964844 18.546875 C 48.9375 22.058594 50.457031 26.523438 50.207031 31.113281 C 49.984375 35.699219 48.023438 39.972656 44.699219 43.171875 L 44.636719 43.234375 C 46.34375 46.460938 47.894531 49.785156 49.257812 53.109375 C 48.972656 51.050781 49.035156 48.992188 49.476562 46.96875 C 50.425781 42.472656 53.023438 38.550781 56.820312 35.921875 L 56.945312 35.828125 L 57.011719 35.953125 C 59.414062 39.878906 60.207031 44.53125 59.257812 49.023438 C 58.308594 53.519531 55.710938 57.445312 51.914062 60.070312 L 51.882812 60.101562 C 53.054688 63.550781 54.035156 67.097656 54.890625 70.671875 C 54.921875 68.585938 55.300781 66.527344 56.0625 64.566406 C 57.707031 60.261719 60.902344 56.8125 65.050781 54.816406 L 65.175781 54.753906 L 65.238281 54.878906 C 66.980469 59.121094 67.042969 63.835938 65.398438 68.140625 C 63.75 72.445312 60.554688 75.894531 56.410156 77.890625 L 56.34375 77.921875 C 56.945312 81.53125 57.390625 85.234375 57.644531 88.9375 C 57.992188 86.816406 58.71875 84.820312 59.761719 82.953125 C 62.042969 78.964844 65.746094 76.054688 70.144531 74.726562 L 70.269531 74.691406 L 70.304688 74.851562 C 71.378906 79.347656 70.683594 84 68.402344 87.984375 C 66.125 91.972656 62.421875 94.886719 58.023438 96.214844 L 57.929688 96.246094 C 57.929688 96.722656 57.929688 97.132812 57.929688 97.542969 C 57.929688 100.742188 57.800781 104 57.515625 107.261719 C 58.179688 105.234375 59.195312 103.398438 60.523438 101.753906 C 63.433594 98.175781 67.519531 95.867188 72.074219 95.265625 L 72.234375 95.234375 L 72.234375 95.390625 C 72.582031 99.980469 71.1875 104.476562 68.277344 108.050781 C 65.398438 111.628906 61.28125 113.9375 56.726562 114.570312 L 56.660156 114.570312 C 56.15625 118.148438 55.460938 121.726562 54.605469 125.238281 C 55.585938 123.433594 56.851562 121.820312 58.371094 120.425781 C 61.789062 117.355469 66.1875 115.679688 70.808594 115.804688 L 70.96875 115.804688 L 70.96875 115.964844 C 70.585938 120.554688 68.5 124.761719 65.082031 127.863281 C 61.664062 130.933594 57.261719 132.582031 52.640625 132.484375 L 52.609375 132.484375 C 51.535156 135.902344 50.300781 139.320312 48.875 142.675781 C 50.109375 141.03125 51.628906 139.671875 53.339844 138.53125 C 57.199219 136.03125 61.820312 135.082031 66.347656 135.902344 L 66.503906 135.933594 L 66.472656 136.09375 C 65.398438 140.554688 62.675781 144.417969 58.8125 146.917969 C 54.953125 149.417969 50.332031 150.367188 45.804688 149.542969 L 45.773438 149.542969 C 45.585938 149.957031 45.394531 150.335938 45.171875 150.746094 C 43.75 153.53125 42.167969 156.347656 40.425781 159.101562 C 41.914062 157.648438 43.652344 156.476562 45.554688 155.652344 C 49.761719 153.785156 54.445312 153.597656 58.8125 155.113281 L 58.941406 155.179688 L 58.878906 155.304688 C 57.105469 159.546875 53.8125 162.933594 49.605469 164.800781 C 45.394531 166.667969 40.710938 166.855469 36.34375 165.339844 L 36.28125 165.304688 C 34.160156 168.28125 31.878906 171.191406 29.507812 173.945312 C 31.214844 172.742188 33.113281 171.824219 35.140625 171.289062 C 39.570312 170.085938 44.253906 170.625 48.304688 172.808594 L 48.433594 172.871094 L 48.371094 172.996094 C 45.933594 176.921875 42.167969 179.738281 37.734375 180.910156 C 33.304688 182.113281 28.621094 181.574219 24.570312 179.390625 L 24.503906 179.359375 C 20.296875 183.664062 15.769531 187.652344 11.054688 191.164062 L 10.929688 191.257812 L 9.472656 189.328125 L 9.597656 189.234375 C 14.21875 185.753906 18.585938 181.921875 22.636719 177.777344 C 19.757812 174.230469 18.335938 169.769531 18.652344 165.210938 C 18.96875 160.621094 20.992188 156.382812 24.378906 153.246094 L 24.472656 153.152344 L 24.570312 153.28125 C 27.480469 156.855469 28.9375 161.320312 28.589844 165.90625 C 28.367188 169.007812 27.355469 171.953125 25.675781 174.515625 C 28.714844 171.160156 31.5625 167.648438 34.191406 163.976562 C 30.804688 160.90625 28.683594 156.730469 28.304688 152.203125 C 27.890625 147.613281 29.253906 143.121094 32.101562 139.480469 L 32.195312 139.355469 L 32.292969 139.449219 C 35.742188 142.519531 37.863281 146.726562 38.242188 151.285156 C 38.527344 154.449219 37.957031 157.550781 36.660156 160.367188 C 38.96875 156.886719 41.058594 153.28125 42.957031 149.578125 C 43.117188 149.226562 43.273438 148.910156 43.464844 148.5625 C 39.632812 146.09375 36.882812 142.265625 35.773438 137.835938 C 34.664062 133.371094 35.265625 128.71875 37.546875 124.699219 L 37.609375 124.574219 L 37.734375 124.667969 C 41.597656 127.167969 44.351562 130.964844 45.488281 135.429688 C 46.25 138.53125 46.1875 141.726562 45.332031 144.734375 C 47.230469 140.523438 48.875 136.25 50.238281 131.914062 C 46.058594 130.046875 42.734375 126.726562 40.964844 122.515625 C 39.160156 118.273438 39.066406 113.558594 40.648438 109.253906 L 40.710938 109.128906 L 40.835938 109.191406 C 45.046875 111.027344 48.371094 114.382812 50.171875 118.621094 C 51.441406 121.597656 51.851562 124.792969 51.441406 127.929688 C 52.675781 123.496094 53.625 118.972656 54.289062 114.382812 C 49.855469 113.210938 46.089844 110.425781 43.652344 106.566406 C 41.21875 102.671875 40.363281 98.019531 41.28125 93.523438 L 41.28125 93.367188 L 41.4375 93.398438 C 45.902344 94.570312 49.699219 97.355469 52.136719 101.246094 C 53.78125 103.875 54.699219 106.882812 54.828125 109.917969 C 55.269531 105.835938 55.492188 101.722656 55.492188 97.542969 C 55.492188 97.292969 55.492188 97.039062 55.492188 96.785156 L 55.492188 96.4375 C 50.964844 95.960938 46.820312 93.808594 43.8125 90.359375 C 40.804688 86.878906 39.222656 82.449219 39.414062 77.859375 L 39.414062 77.699219 L 39.570312 77.699219 C 44.160156 78.144531 48.339844 80.328125 51.34375 83.777344 C 53.339844 86.085938 54.699219 88.777344 55.332031 91.722656 C 55.109375 87.257812 54.636719 82.859375 53.910156 78.492188 C 53.59375 78.523438 53.277344 78.523438 52.925781 78.523438 C 48.71875 78.523438 44.667969 77.066406 41.40625 74.34375 C 37.894531 71.402344 35.648438 67.253906 35.109375 62.667969 L 35.078125 62.507812 L 35.234375 62.507812 C 39.824219 62.253906 44.320312 63.710938 47.832031 66.6875 C 50.238281 68.710938 52.042969 71.308594 53.117188 74.1875 C 52.199219 69.722656 51.027344 65.355469 49.574219 61.050781 C 48.304688 61.335938 47.039062 61.464844 45.773438 61.464844 C 42.546875 61.464844 39.382812 60.609375 36.53125 58.898438 C 32.578125 56.527344 29.726562 52.792969 28.492188 48.359375 L 28.460938 48.234375 L 28.621094 48.203125 C 33.113281 47.222656 37.765625 47.980469 41.722656 50.355469 C 44.414062 51.96875 46.597656 54.246094 48.117188 56.96875 C 46.503906 52.726562 44.667969 48.613281 42.546875 44.5625 C 38.273438 46.207031 33.621094 46.175781 29.378906 44.46875 C 25.105469 42.757812 21.6875 39.5 19.789062 35.320312 L 19.726562 35.195312 L 19.851562 35.132812 C 24.125 33.453125 28.84375 33.484375 33.113281 35.195312 C 35.929688 36.332031 38.335938 38.105469 40.234375 40.417969 C 38.019531 36.554688 35.550781 32.851562 32.957031 29.339844 C 29 31.617188 24.410156 32.28125 19.980469 31.269531 C 15.484375 30.226562 11.625 27.566406 9.0625 23.738281 L 8.964844 23.609375 L 9.09375 23.546875 C 13.082031 21.238281 17.734375 20.507812 22.195312 21.554688 C 25.042969 22.21875 27.671875 23.546875 29.886719 25.476562 C 28.207031 23.421875 26.4375 21.394531 24.664062 19.496094 C 19.917969 19.117188 15.613281 17.1875 12.195312 13.925781 C 8.429688 10.316406 6.210938 5.476562 5.960938 0.253906 L 5.960938 0.09375 L 6.148438 0 C 11.339844 0.03125 16.308594 2.058594 20.042969 5.664062 Z M 20.042969 5.664062 " fill-opacity="1" fill-rule="nonzero"/></g></g></g></g><g fill="#f5f5f5" fill-opacity="1"><g transform="translate(93.862796, 89.273927)"><g><path d="M 18.953125 -16.796875 C 18.753906 -17.441406 18.476562 -18.023438 18.125 -18.546875 C 17.78125 -19.066406 17.363281 -19.507812 16.875 -19.875 C 16.394531 -20.25 15.84375 -20.53125 15.21875 -20.71875 C 14.59375 -20.90625 13.910156 -21 13.171875 -21 C 11.835938 -21 10.65625 -20.664062 9.625 -20 C 8.59375 -19.332031 7.78125 -18.351562 7.1875 -17.0625 C 6.59375 -15.769531 6.296875 -14.203125 6.296875 -12.359375 C 6.296875 -10.492188 6.585938 -8.914062 7.171875 -7.625 C 7.765625 -6.332031 8.582031 -5.347656 9.625 -4.671875 C 10.664062 -4.003906 11.878906 -3.671875 13.265625 -3.671875 C 14.515625 -3.671875 15.597656 -3.910156 16.515625 -4.390625 C 17.441406 -4.878906 18.148438 -5.566406 18.640625 -6.453125 C 19.140625 -7.335938 19.390625 -8.378906 19.390625 -9.578125 L 20.40625 -9.421875 L 13.703125 -9.421875 L 13.703125 -12.90625 L 23.71875 -12.90625 L 23.71875 -9.953125 C 23.71875 -7.835938 23.265625 -6.007812 22.359375 -4.46875 C 21.460938 -2.925781 20.226562 -1.738281 18.65625 -0.90625 C 17.082031 -0.0703125 15.273438 0.34375 13.234375 0.34375 C 10.960938 0.34375 8.96875 -0.164062 7.25 -1.1875 C 5.539062 -2.21875 4.207031 -3.675781 3.25 -5.5625 C 2.289062 -7.457031 1.8125 -9.707031 1.8125 -12.3125 C 1.8125 -14.300781 2.09375 -16.078125 2.65625 -17.640625 C 3.21875 -19.210938 4.007812 -20.546875 5.03125 -21.640625 C 6.050781 -22.734375 7.25 -23.566406 8.625 -24.140625 C 10 -24.710938 11.492188 -25 13.109375 -25 C 14.472656 -25 15.742188 -24.800781 16.921875 -24.40625 C 18.109375 -24.007812 19.160156 -23.445312 20.078125 -22.71875 C 20.992188 -21.988281 21.75 -21.117188 22.34375 -20.109375 C 22.9375 -19.109375 23.328125 -18.003906 23.515625 -16.796875 Z M 18.953125 -16.796875 "/></g></g></g><g fill="#f5f5f5" fill-opacity="1"><g transform="translate(119.470501, 89.273927)"><g><path d="M 14.03125 -7.78125 L 14.03125 -18.5 L 18.390625 -18.5 L 18.390625 0 L 14.171875 0 L 14.171875 -3.28125 L 13.96875 -3.28125 C 13.550781 -2.25 12.863281 -1.40625 11.90625 -0.75 C 10.957031 -0.09375 9.789062 0.234375 8.40625 0.234375 C 7.195312 0.234375 6.128906 -0.0351562 5.203125 -0.578125 C 4.273438 -1.117188 3.546875 -1.90625 3.015625 -2.9375 C 2.492188 -3.976562 2.234375 -5.238281 2.234375 -6.71875 L 2.234375 -18.5 L 6.59375 -18.5 L 6.59375 -7.390625 C 6.59375 -6.222656 6.914062 -5.289062 7.5625 -4.59375 C 8.207031 -3.90625 9.050781 -3.5625 10.09375 -3.5625 C 10.738281 -3.5625 11.359375 -3.71875 11.953125 -4.03125 C 12.554688 -4.34375 13.050781 -4.8125 13.4375 -5.4375 C 13.832031 -6.0625 14.03125 -6.84375 14.03125 -7.78125 Z M 14.03125 -7.78125 "/></g></g></g><g fill="#f5f5f5" fill-opacity="1"><g transform="translate(140.103628, 89.273927)"><g><path d="M 10.4375 0.359375 C 8.582031 0.359375 6.976562 -0.0234375 5.625 -0.796875 C 4.28125 -1.578125 3.25 -2.675781 2.53125 -4.09375 C 1.8125 -5.519531 1.453125 -7.203125 1.453125 -9.140625 C 1.453125 -11.046875 1.8125 -12.71875 2.53125 -14.15625 C 3.257812 -15.601562 4.273438 -16.726562 5.578125 -17.53125 C 6.890625 -18.34375 8.429688 -18.75 10.203125 -18.75 C 11.335938 -18.75 12.414062 -18.5625 13.4375 -18.1875 C 14.457031 -17.820312 15.359375 -17.257812 16.140625 -16.5 C 16.921875 -15.738281 17.535156 -14.769531 17.984375 -13.59375 C 18.429688 -12.414062 18.65625 -11.015625 18.65625 -9.390625 L 18.65625 -8.0625 L 3.5 -8.0625 L 3.5 -11 L 14.484375 -11 C 14.472656 -11.832031 14.289062 -12.578125 13.9375 -13.234375 C 13.582031 -13.890625 13.085938 -14.40625 12.453125 -14.78125 C 11.828125 -15.15625 11.097656 -15.34375 10.265625 -15.34375 C 9.367188 -15.34375 8.582031 -15.128906 7.90625 -14.703125 C 7.238281 -14.273438 6.71875 -13.710938 6.34375 -13.015625 C 5.96875 -12.316406 5.773438 -11.554688 5.765625 -10.734375 L 5.765625 -8.171875 C 5.765625 -7.085938 5.960938 -6.160156 6.359375 -5.390625 C 6.753906 -4.628906 7.304688 -4.046875 8.015625 -3.640625 C 8.722656 -3.234375 9.546875 -3.03125 10.484375 -3.03125 C 11.117188 -3.03125 11.691406 -3.117188 12.203125 -3.296875 C 12.722656 -3.484375 13.171875 -3.753906 13.546875 -4.109375 C 13.929688 -4.460938 14.21875 -4.898438 14.40625 -5.421875 L 18.484375 -4.96875 C 18.222656 -3.882812 17.734375 -2.941406 17.015625 -2.140625 C 16.296875 -1.347656 15.378906 -0.734375 14.265625 -0.296875 C 13.148438 0.140625 11.875 0.359375 10.4375 0.359375 Z M 10.4375 0.359375 "/></g></g></g><g fill="#f5f5f5" fill-opacity="1"><g transform="translate(160.206769, 89.273927)"><g><path d="M 16.859375 -13.609375 L 12.890625 -13.171875 C 12.773438 -13.578125 12.578125 -13.957031 12.296875 -14.3125 C 12.023438 -14.664062 11.65625 -14.945312 11.1875 -15.15625 C 10.71875 -15.375 10.148438 -15.484375 9.484375 -15.484375 C 8.578125 -15.484375 7.816406 -15.285156 7.203125 -14.890625 C 6.585938 -14.503906 6.28125 -14 6.28125 -13.375 C 6.28125 -12.832031 6.484375 -12.390625 6.890625 -12.046875 C 7.296875 -11.710938 7.96875 -11.441406 8.90625 -11.234375 L 12.0625 -10.546875 C 13.8125 -10.171875 15.113281 -9.570312 15.96875 -8.75 C 16.820312 -7.9375 17.253906 -6.867188 17.265625 -5.546875 C 17.253906 -4.378906 16.910156 -3.347656 16.234375 -2.453125 C 15.566406 -1.566406 14.640625 -0.875 13.453125 -0.375 C 12.265625 0.113281 10.898438 0.359375 9.359375 0.359375 C 7.097656 0.359375 5.273438 -0.113281 3.890625 -1.0625 C 2.503906 -2.019531 1.679688 -3.347656 1.421875 -5.046875 L 5.671875 -5.453125 C 5.867188 -4.617188 6.28125 -3.988281 6.90625 -3.5625 C 7.53125 -3.132812 8.34375 -2.921875 9.34375 -2.921875 C 10.382812 -2.921875 11.21875 -3.132812 11.84375 -3.5625 C 12.476562 -3.988281 12.796875 -4.515625 12.796875 -5.140625 C 12.796875 -5.671875 12.59375 -6.109375 12.1875 -6.453125 C 11.78125 -6.796875 11.148438 -7.0625 10.296875 -7.25 L 7.140625 -7.921875 C 5.367188 -8.285156 4.054688 -8.90625 3.203125 -9.78125 C 2.347656 -10.664062 1.925781 -11.78125 1.9375 -13.125 C 1.925781 -14.269531 2.234375 -15.257812 2.859375 -16.09375 C 3.492188 -16.9375 4.375 -17.585938 5.5 -18.046875 C 6.632812 -18.515625 7.941406 -18.75 9.421875 -18.75 C 11.585938 -18.75 13.296875 -18.285156 14.546875 -17.359375 C 15.796875 -16.429688 16.566406 -15.179688 16.859375 -13.609375 Z M 16.859375 -13.609375 "/></g></g></g><g fill="#f5f5f5" fill-opacity="1"><g transform="translate(178.828379, 89.273927)"><g><path d="M 11.484375 -18.5 L 11.484375 -15.125 L 0.84375 -15.125 L 0.84375 -18.5 Z M 3.46875 -22.9375 L 7.828125 -22.9375 L 7.828125 -5.5625 C 7.828125 -4.976562 7.914062 -4.53125 8.09375 -4.21875 C 8.28125 -3.914062 8.519531 -3.707031 8.8125 -3.59375 C 9.113281 -3.476562 9.445312 -3.421875 9.8125 -3.421875 C 10.082031 -3.421875 10.332031 -3.441406 10.5625 -3.484375 C 10.789062 -3.523438 10.960938 -3.5625 11.078125 -3.59375 L 11.8125 -0.1875 C 11.582031 -0.101562 11.25 -0.015625 10.8125 0.078125 C 10.382812 0.179688 9.863281 0.238281 9.25 0.25 C 8.15625 0.28125 7.171875 0.113281 6.296875 -0.25 C 5.421875 -0.613281 4.726562 -1.179688 4.21875 -1.953125 C 3.707031 -2.722656 3.457031 -3.6875 3.46875 -4.84375 Z M 3.46875 -22.9375 "/></g></g></g><g fill="#f5f5f5" fill-opacity="1"><g transform="translate(191.716562, 89.273927)"><g/></g></g><g fill="#f5f5f5" fill-opacity="1"><g transform="translate(200.136023, 89.273927)"><g><path d="M 2.4375 0 L 2.4375 -24.671875 L 18.234375 -24.671875 L 18.234375 -20.921875 L 6.90625 -20.921875 L 6.90625 -14.21875 L 17.15625 -14.21875 L 17.15625 -10.484375 L 6.90625 -10.484375 L 6.90625 0 Z M 2.4375 0 "/></g></g></g><g fill="#f5f5f5" fill-opacity="1"><g transform="translate(219.998269, 89.273927)"><g><path d="M 7.5625 0.375 C 6.394531 0.375 5.34375 0.164062 4.40625 -0.25 C 3.46875 -0.675781 2.726562 -1.300781 2.1875 -2.125 C 1.644531 -2.957031 1.375 -3.976562 1.375 -5.1875 C 1.375 -6.238281 1.566406 -7.101562 1.953125 -7.78125 C 2.335938 -8.46875 2.863281 -9.015625 3.53125 -9.421875 C 4.195312 -9.828125 4.945312 -10.132812 5.78125 -10.34375 C 6.625 -10.5625 7.492188 -10.71875 8.390625 -10.8125 C 9.472656 -10.925781 10.351562 -11.03125 11.03125 -11.125 C 11.707031 -11.21875 12.195312 -11.363281 12.5 -11.5625 C 12.8125 -11.757812 12.96875 -12.066406 12.96875 -12.484375 L 12.96875 -12.546875 C 12.96875 -13.453125 12.695312 -14.15625 12.15625 -14.65625 C 11.625 -15.15625 10.851562 -15.40625 9.84375 -15.40625 C 8.769531 -15.40625 7.921875 -15.171875 7.296875 -14.703125 C 6.679688 -14.242188 6.265625 -13.695312 6.046875 -13.0625 L 1.96875 -13.640625 C 2.289062 -14.765625 2.820312 -15.703125 3.5625 -16.453125 C 4.300781 -17.210938 5.203125 -17.785156 6.265625 -18.171875 C 7.335938 -18.554688 8.519531 -18.75 9.8125 -18.75 C 10.707031 -18.75 11.597656 -18.644531 12.484375 -18.4375 C 13.367188 -18.226562 14.175781 -17.882812 14.90625 -17.40625 C 15.632812 -16.925781 16.21875 -16.273438 16.65625 -15.453125 C 17.101562 -14.628906 17.328125 -13.609375 17.328125 -12.390625 L 17.328125 0 L 13.140625 0 L 13.140625 -2.546875 L 13 -2.546875 C 12.726562 -2.023438 12.351562 -1.539062 11.875 -1.09375 C 11.40625 -0.65625 10.8125 -0.300781 10.09375 -0.03125 C 9.375 0.238281 8.53125 0.375 7.5625 0.375 Z M 8.703125 -2.828125 C 9.578125 -2.828125 10.332031 -3 10.96875 -3.34375 C 11.613281 -3.695312 12.109375 -4.160156 12.453125 -4.734375 C 12.804688 -5.316406 12.984375 -5.953125 12.984375 -6.640625 L 12.984375 -8.8125 C 12.847656 -8.707031 12.617188 -8.601562 12.296875 -8.5 C 11.972656 -8.40625 11.609375 -8.320312 11.203125 -8.25 C 10.796875 -8.175781 10.394531 -8.109375 10 -8.046875 C 9.613281 -7.992188 9.273438 -7.953125 8.984375 -7.921875 C 8.335938 -7.828125 7.753906 -7.675781 7.234375 -7.46875 C 6.722656 -7.269531 6.316406 -6.992188 6.015625 -6.640625 C 5.722656 -6.285156 5.578125 -5.828125 5.578125 -5.265625 C 5.578125 -4.460938 5.867188 -3.851562 6.453125 -3.4375 C 7.046875 -3.03125 7.796875 -2.828125 8.703125 -2.828125 Z M 8.703125 -2.828125 "/></g></g></g><g fill="#f5f5f5" fill-opacity="1"><g transform="translate(239.487091, 89.273927)"><g><path d="M 10.3125 0.359375 C 8.46875 0.359375 6.882812 -0.046875 5.5625 -0.859375 C 4.238281 -1.671875 3.222656 -2.789062 2.515625 -4.21875 C 1.804688 -5.65625 1.453125 -7.304688 1.453125 -9.171875 C 1.453125 -11.054688 1.8125 -12.71875 2.53125 -14.15625 C 3.25 -15.601562 4.269531 -16.726562 5.59375 -17.53125 C 6.914062 -18.34375 8.476562 -18.75 10.28125 -18.75 C 11.789062 -18.75 13.125 -18.472656 14.28125 -17.921875 C 15.4375 -17.367188 16.359375 -16.59375 17.046875 -15.59375 C 17.742188 -14.59375 18.140625 -13.425781 18.234375 -12.09375 L 14.0625 -12.09375 C 13.894531 -12.988281 13.492188 -13.734375 12.859375 -14.328125 C 12.234375 -14.921875 11.394531 -15.21875 10.34375 -15.21875 C 9.457031 -15.21875 8.675781 -14.976562 8 -14.5 C 7.320312 -14.03125 6.796875 -13.347656 6.421875 -12.453125 C 6.046875 -11.566406 5.859375 -10.5 5.859375 -9.25 C 5.859375 -7.988281 6.039062 -6.90625 6.40625 -6 C 6.78125 -5.101562 7.300781 -4.410156 7.96875 -3.921875 C 8.644531 -3.429688 9.4375 -3.1875 10.34375 -3.1875 C 10.988281 -3.1875 11.566406 -3.304688 12.078125 -3.546875 C 12.585938 -3.796875 13.015625 -4.15625 13.359375 -4.625 C 13.703125 -5.09375 13.9375 -5.660156 14.0625 -6.328125 L 18.234375 -6.328125 C 18.128906 -5.015625 17.742188 -3.851562 17.078125 -2.84375 C 16.410156 -1.84375 15.503906 -1.054688 14.359375 -0.484375 C 13.210938 0.078125 11.863281 0.359375 10.3125 0.359375 Z M 10.3125 0.359375 "/></g></g></g><g fill="#f5f5f5" fill-opacity="1"><g transform="translate(259.072278, 89.273927)"><g><path d="M 14.03125 -7.78125 L 14.03125 -18.5 L 18.390625 -18.5 L 18.390625 0 L 14.171875 0 L 14.171875 -3.28125 L 13.96875 -3.28125 C 13.550781 -2.25 12.863281 -1.40625 11.90625 -0.75 C 10.957031 -0.09375 9.789062 0.234375 8.40625 0.234375 C 7.195312 0.234375 6.128906 -0.0351562 5.203125 -0.578125 C 4.273438 -1.117188 3.546875 -1.90625 3.015625 -2.9375 C 2.492188 -3.976562 2.234375 -5.238281 2.234375 -6.71875 L 2.234375 -18.5 L 6.59375 -18.5 L 6.59375 -7.390625 C 6.59375 -6.222656 6.914062 -5.289062 7.5625 -4.59375 C 8.207031 -3.90625 9.050781 -3.5625 10.09375 -3.5625 C 10.738281 -3.5625 11.359375 -3.71875 11.953125 -4.03125 C 12.554688 -4.34375 13.050781 -4.8125 13.4375 -5.4375 C 13.832031 -6.0625 14.03125 -6.84375 14.03125 -7.78125 Z M 14.03125 -7.78125 "/></g></g></g><g fill="#f5f5f5" fill-opacity="1"><g transform="translate(279.705406, 89.273927)"><g><path d="M 6.59375 -24.671875 L 6.59375 0 L 2.234375 0 L 2.234375 -24.671875 Z M 6.59375 -24.671875 "/></g></g></g><g fill="#f5f5f5" fill-opacity="1"><g transform="translate(288.546455, 89.273927)"><g><path d="M 11.484375 -18.5 L 11.484375 -15.125 L 0.84375 -15.125 L 0.84375 -18.5 Z M 3.46875 -22.9375 L 7.828125 -22.9375 L 7.828125 -5.5625 C 7.828125 -4.976562 7.914062 -4.53125 8.09375 -4.21875 C 8.28125 -3.914062 8.519531 -3.707031 8.8125 -3.59375 C 9.113281 -3.476562 9.445312 -3.421875 9.8125 -3.421875 C 10.082031 -3.421875 10.332031 -3.441406 10.5625 -3.484375 C 10.789062 -3.523438 10.960938 -3.5625 11.078125 -3.59375 L 11.8125 -0.1875 C 11.582031 -0.101562 11.25 -0.015625 10.8125 0.078125 C 10.382812 0.179688 9.863281 0.238281 9.25 0.25 C 8.15625 0.28125 7.171875 0.113281 6.296875 -0.25 C 5.421875 -0.613281 4.726562 -1.179688 4.21875 -1.953125 C 3.707031 -2.722656 3.457031 -3.6875 3.46875 -4.84375 Z M 3.46875 -22.9375 "/></g></g></g><g fill="#f5f5f5" fill-opacity="1"><g transform="translate(301.434639, 89.273927)"><g><path d="M 4.953125 6.9375 C 4.359375 6.9375 3.804688 6.890625 3.296875 6.796875 C 2.796875 6.703125 2.398438 6.597656 2.109375 6.484375 L 3.125 3.078125 C 3.757812 3.265625 4.320312 3.351562 4.8125 3.34375 C 5.3125 3.34375 5.75 3.191406 6.125 2.890625 C 6.507812 2.585938 6.835938 2.085938 7.109375 1.390625 L 7.484375 0.390625 L 0.765625 -18.5 L 5.390625 -18.5 L 9.65625 -4.53125 L 9.859375 -4.53125 L 14.125 -18.5 L 18.765625 -18.5 L 11.359375 2.234375 C 11.015625 3.210938 10.554688 4.050781 9.984375 4.75 C 9.410156 5.457031 8.710938 6 7.890625 6.375 C 7.066406 6.75 6.085938 6.9375 4.953125 6.9375 Z M 4.953125 6.9375 "/></g></g></g><g fill="#f5f5f5" fill-opacity="1"><g transform="translate(109.331786, 125.313031)"><g><path d="M 2.4375 0 L 2.4375 -24.671875 L 11.6875 -24.671875 C 13.582031 -24.671875 15.171875 -24.335938 16.453125 -23.671875 C 17.742188 -23.015625 18.71875 -22.09375 19.375 -20.90625 C 20.039062 -19.726562 20.375 -18.351562 20.375 -16.78125 C 20.375 -15.195312 20.039062 -13.820312 19.375 -12.65625 C 18.707031 -11.5 17.722656 -10.601562 16.421875 -9.96875 C 15.117188 -9.34375 13.519531 -9.03125 11.625 -9.03125 L 5.03125 -9.03125 L 5.03125 -12.75 L 11.015625 -12.75 C 12.128906 -12.75 13.035156 -12.898438 13.734375 -13.203125 C 14.441406 -13.515625 14.96875 -13.96875 15.3125 -14.5625 C 15.65625 -15.164062 15.828125 -15.90625 15.828125 -16.78125 C 15.828125 -17.65625 15.65625 -18.398438 15.3125 -19.015625 C 14.96875 -19.640625 14.441406 -20.113281 13.734375 -20.4375 C 13.023438 -20.769531 12.113281 -20.9375 11 -20.9375 L 6.90625 -20.9375 L 6.90625 0 Z M 15.171875 -11.171875 L 21.28125 0 L 16.296875 0 L 10.296875 -11.171875 Z M 15.171875 -11.171875 "/></g></g></g><g fill="#f5f5f5" fill-opacity="1"><g transform="translate(131.398246, 125.313031)"><g><path d="M 10.4375 0.359375 C 8.582031 0.359375 6.976562 -0.0234375 5.625 -0.796875 C 4.28125 -1.578125 3.25 -2.675781 2.53125 -4.09375 C 1.8125 -5.519531 1.453125 -7.203125 1.453125 -9.140625 C 1.453125 -11.046875 1.8125 -12.71875 2.53125 -14.15625 C 3.257812 -15.601562 4.273438 -16.726562 5.578125 -17.53125 C 6.890625 -18.34375 8.429688 -18.75 10.203125 -18.75 C 11.335938 -18.75 12.414062 -18.5625 13.4375 -18.1875 C 14.457031 -17.820312 15.359375 -17.257812 16.140625 -16.5 C 16.921875 -15.738281 17.535156 -14.769531 17.984375 -13.59375 C 18.429688 -12.414062 18.65625 -11.015625 18.65625 -9.390625 L 18.65625 -8.0625 L 3.5 -8.0625 L 3.5 -11 L 14.484375 -11 C 14.472656 -11.832031 14.289062 -12.578125 13.9375 -13.234375 C 13.582031 -13.890625 13.085938 -14.40625 12.453125 -14.78125 C 11.828125 -15.15625 11.097656 -15.34375 10.265625 -15.34375 C 9.367188 -15.34375 8.582031 -15.128906 7.90625 -14.703125 C 7.238281 -14.273438 6.71875 -13.710938 6.34375 -13.015625 C 5.96875 -12.316406 5.773438 -11.554688 5.765625 -10.734375 L 5.765625 -8.171875 C 5.765625 -7.085938 5.960938 -6.160156 6.359375 -5.390625 C 6.753906 -4.628906 7.304688 -4.046875 8.015625 -3.640625 C 8.722656 -3.234375 9.546875 -3.03125 10.484375 -3.03125 C 11.117188 -3.03125 11.691406 -3.117188 12.203125 -3.296875 C 12.722656 -3.484375 13.171875 -3.753906 13.546875 -4.109375 C 13.929688 -4.460938 14.21875 -4.898438 14.40625 -5.421875 L 18.484375 -4.96875 C 18.222656 -3.882812 17.734375 -2.941406 17.015625 -2.140625 C 16.296875 -1.347656 15.378906 -0.734375 14.265625 -0.296875 C 13.148438 0.140625 11.875 0.359375 10.4375 0.359375 Z M 10.4375 0.359375 "/></g></g></g><g fill="#f5f5f5" fill-opacity="1"><g transform="translate(151.501386, 125.313031)"><g><path d="M 10.3125 0.359375 C 8.46875 0.359375 6.882812 -0.046875 5.5625 -0.859375 C 4.238281 -1.671875 3.222656 -2.789062 2.515625 -4.21875 C 1.804688 -5.65625 1.453125 -7.304688 1.453125 -9.171875 C 1.453125 -11.054688 1.8125 -12.71875 2.53125 -14.15625 C 3.25 -15.601562 4.269531 -16.726562 5.59375 -17.53125 C 6.914062 -18.34375 8.476562 -18.75 10.28125 -18.75 C 11.789062 -18.75 13.125 -18.472656 14.28125 -17.921875 C 15.4375 -17.367188 16.359375 -16.59375 17.046875 -15.59375 C 17.742188 -14.59375 18.140625 -13.425781 18.234375 -12.09375 L 14.0625 -12.09375 C 13.894531 -12.988281 13.492188 -13.734375 12.859375 -14.328125 C 12.234375 -14.921875 11.394531 -15.21875 10.34375 -15.21875 C 9.457031 -15.21875 8.675781 -14.976562 8 -14.5 C 7.320312 -14.03125 6.796875 -13.347656 6.421875 -12.453125 C 6.046875 -11.566406 5.859375 -10.5 5.859375 -9.25 C 5.859375 -7.988281 6.039062 -6.90625 6.40625 -6 C 6.78125 -5.101562 7.300781 -4.410156 7.96875 -3.921875 C 8.644531 -3.429688 9.4375 -3.1875 10.34375 -3.1875 C 10.988281 -3.1875 11.566406 -3.304688 12.078125 -3.546875 C 12.585938 -3.796875 13.015625 -4.15625 13.359375 -4.625 C 13.703125 -5.09375 13.9375 -5.660156 14.0625 -6.328125 L 18.234375 -6.328125 C 18.128906 -5.015625 17.742188 -3.851562 17.078125 -2.84375 C 16.410156 -1.84375 15.503906 -1.054688 14.359375 -0.484375 C 13.210938 0.078125 11.863281 0.359375 10.3125 0.359375 Z M 10.3125 0.359375 "/></g></g></g><g fill="#f5f5f5" fill-opacity="1"><g transform="translate(171.086573, 125.313031)"><g><path d="M 10.3125 0.359375 C 8.5 0.359375 6.929688 -0.0351562 5.609375 -0.828125 C 4.285156 -1.628906 3.257812 -2.742188 2.53125 -4.171875 C 1.8125 -5.597656 1.453125 -7.265625 1.453125 -9.171875 C 1.453125 -11.085938 1.8125 -12.765625 2.53125 -14.203125 C 3.257812 -15.640625 4.285156 -16.753906 5.609375 -17.546875 C 6.929688 -18.347656 8.5 -18.75 10.3125 -18.75 C 12.113281 -18.75 13.675781 -18.347656 15 -17.546875 C 16.332031 -16.753906 17.359375 -15.640625 18.078125 -14.203125 C 18.804688 -12.765625 19.171875 -11.085938 19.171875 -9.171875 C 19.171875 -7.265625 18.804688 -5.597656 18.078125 -4.171875 C 17.359375 -2.742188 16.332031 -1.628906 15 -0.828125 C 13.675781 -0.0351562 12.113281 0.359375 10.3125 0.359375 Z M 10.328125 -3.125 C 11.316406 -3.125 12.140625 -3.394531 12.796875 -3.9375 C 13.453125 -4.488281 13.941406 -5.21875 14.265625 -6.125 C 14.585938 -7.039062 14.75 -8.0625 14.75 -9.1875 C 14.75 -10.320312 14.585938 -11.347656 14.265625 -12.265625 C 13.941406 -13.179688 13.453125 -13.910156 12.796875 -14.453125 C 12.140625 -15.003906 11.316406 -15.28125 10.328125 -15.28125 C 9.328125 -15.28125 8.492188 -15.003906 7.828125 -14.453125 C 7.171875 -13.910156 6.675781 -13.179688 6.34375 -12.265625 C 6.019531 -11.347656 5.859375 -10.320312 5.859375 -9.1875 C 5.859375 -8.0625 6.019531 -7.039062 6.34375 -6.125 C 6.675781 -5.21875 7.171875 -4.488281 7.828125 -3.9375 C 8.492188 -3.394531 9.328125 -3.125 10.328125 -3.125 Z M 10.328125 -3.125 "/></g></g></g><g fill="#f5f5f5" fill-opacity="1"><g transform="translate(191.707634, 125.313031)"><g><path d="M 10.28125 7.328125 C 8.71875 7.328125 7.375 7.113281 6.25 6.6875 C 5.125 6.269531 4.21875 5.707031 3.53125 5 C 2.851562 4.289062 2.382812 3.507812 2.125 2.65625 L 6.046875 1.703125 C 6.222656 2.054688 6.476562 2.410156 6.8125 2.765625 C 7.15625 3.128906 7.613281 3.425781 8.1875 3.65625 C 8.757812 3.894531 9.484375 4.015625 10.359375 4.015625 C 11.597656 4.015625 12.617188 3.71875 13.421875 3.125 C 14.234375 2.53125 14.640625 1.550781 14.640625 0.1875 L 14.640625 -3.328125 L 14.4375 -3.328125 C 14.207031 -2.878906 13.878906 -2.414062 13.453125 -1.9375 C 13.023438 -1.46875 12.457031 -1.070312 11.75 -0.75 C 11.050781 -0.425781 10.171875 -0.265625 9.109375 -0.265625 C 7.679688 -0.265625 6.390625 -0.597656 5.234375 -1.265625 C 4.085938 -1.941406 3.175781 -2.945312 2.5 -4.28125 C 1.820312 -5.613281 1.484375 -7.289062 1.484375 -9.3125 C 1.484375 -11.34375 1.820312 -13.054688 2.5 -14.453125 C 3.175781 -15.859375 4.09375 -16.925781 5.25 -17.65625 C 6.40625 -18.382812 7.695312 -18.75 9.125 -18.75 C 10.207031 -18.75 11.097656 -18.5625 11.796875 -18.1875 C 12.503906 -17.820312 13.066406 -17.382812 13.484375 -16.875 C 13.898438 -16.375 14.21875 -15.894531 14.4375 -15.4375 L 14.671875 -15.4375 L 14.671875 -18.5 L 18.96875 -18.5 L 18.96875 0.296875 C 18.96875 1.878906 18.585938 3.1875 17.828125 4.21875 C 17.078125 5.257812 16.046875 6.035156 14.734375 6.546875 C 13.429688 7.066406 11.945312 7.328125 10.28125 7.328125 Z M 10.328125 -3.6875 C 11.242188 -3.6875 12.023438 -3.910156 12.671875 -4.359375 C 13.328125 -4.804688 13.820312 -5.453125 14.15625 -6.296875 C 14.5 -7.140625 14.671875 -8.148438 14.671875 -9.328125 C 14.671875 -10.492188 14.503906 -11.515625 14.171875 -12.390625 C 13.835938 -13.265625 13.347656 -13.945312 12.703125 -14.4375 C 12.054688 -14.925781 11.265625 -15.171875 10.328125 -15.171875 C 9.347656 -15.171875 8.535156 -14.914062 7.890625 -14.40625 C 7.242188 -13.894531 6.753906 -13.203125 6.421875 -12.328125 C 6.085938 -11.453125 5.921875 -10.453125 5.921875 -9.328125 C 5.921875 -8.203125 6.085938 -7.210938 6.421875 -6.359375 C 6.753906 -5.515625 7.25 -4.859375 7.90625 -4.390625 C 8.5625 -3.921875 9.367188 -3.6875 10.328125 -3.6875 Z M 10.328125 -3.6875 "/></g></g></g><g fill="#f5f5f5" fill-opacity="1"><g transform="translate(212.918914, 125.313031)"><g><path d="M 6.59375 -10.84375 L 6.59375 0 L 2.234375 0 L 2.234375 -18.5 L 6.40625 -18.5 L 6.40625 -15.359375 L 6.625 -15.359375 C 7.050781 -16.390625 7.734375 -17.210938 8.671875 -17.828125 C 9.609375 -18.441406 10.765625 -18.75 12.140625 -18.75 C 13.421875 -18.75 14.535156 -18.472656 15.484375 -17.921875 C 16.429688 -17.378906 17.164062 -16.585938 17.6875 -15.546875 C 18.21875 -14.515625 18.484375 -13.257812 18.484375 -11.78125 L 18.484375 0 L 14.125 0 L 14.125 -11.109375 C 14.125 -12.347656 13.800781 -13.316406 13.15625 -14.015625 C 12.519531 -14.710938 11.640625 -15.0625 10.515625 -15.0625 C 9.753906 -15.0625 9.078125 -14.894531 8.484375 -14.5625 C 7.890625 -14.226562 7.425781 -13.742188 7.09375 -13.109375 C 6.757812 -12.484375 6.59375 -11.726562 6.59375 -10.84375 Z M 6.59375 -10.84375 "/></g></g></g><g fill="#f5f5f5" fill-opacity="1"><g transform="translate(233.600208, 125.313031)"><g><path d="M 2.234375 0 L 2.234375 -18.5 L 6.59375 -18.5 L 6.59375 0 Z M 4.4375 -21.125 C 3.738281 -21.125 3.140625 -21.351562 2.640625 -21.8125 C 2.148438 -22.28125 1.90625 -22.835938 1.90625 -23.484375 C 1.90625 -24.148438 2.148438 -24.710938 2.640625 -25.171875 C 3.140625 -25.628906 3.738281 -25.859375 4.4375 -25.859375 C 5.132812 -25.859375 5.726562 -25.628906 6.21875 -25.171875 C 6.71875 -24.710938 6.96875 -24.148438 6.96875 -23.484375 C 6.96875 -22.835938 6.71875 -22.28125 6.21875 -21.8125 C 5.726562 -21.351562 5.132812 -21.125 4.4375 -21.125 Z M 4.4375 -21.125 "/></g></g></g><g fill="#f5f5f5" fill-opacity="1"><g transform="translate(242.441257, 125.313031)"><g><path d="M 11.484375 -18.5 L 11.484375 -15.125 L 0.84375 -15.125 L 0.84375 -18.5 Z M 3.46875 -22.9375 L 7.828125 -22.9375 L 7.828125 -5.5625 C 7.828125 -4.976562 7.914062 -4.53125 8.09375 -4.21875 C 8.28125 -3.914062 8.519531 -3.707031 8.8125 -3.59375 C 9.113281 -3.476562 9.445312 -3.421875 9.8125 -3.421875 C 10.082031 -3.421875 10.332031 -3.441406 10.5625 -3.484375 C 10.789062 -3.523438 10.960938 -3.5625 11.078125 -3.59375 L 11.8125 -0.1875 C 11.582031 -0.101562 11.25 -0.015625 10.8125 0.078125 C 10.382812 0.179688 9.863281 0.238281 9.25 0.25 C 8.15625 0.28125 7.171875 0.113281 6.296875 -0.25 C 5.421875 -0.613281 4.726562 -1.179688 4.21875 -1.953125 C 3.707031 -2.722656 3.457031 -3.6875 3.46875 -4.84375 Z M 3.46875 -22.9375 "/></g></g></g><g fill="#f5f5f5" fill-opacity="1"><g transform="translate(255.329441, 125.313031)"><g><path d="M 2.234375 0 L 2.234375 -18.5 L 6.59375 -18.5 L 6.59375 0 Z M 4.4375 -21.125 C 3.738281 -21.125 3.140625 -21.351562 2.640625 -21.8125 C 2.148438 -22.28125 1.90625 -22.835938 1.90625 -23.484375 C 1.90625 -24.148438 2.148438 -24.710938 2.640625 -25.171875 C 3.140625 -25.628906 3.738281 -25.859375 4.4375 -25.859375 C 5.132812 -25.859375 5.726562 -25.628906 6.21875 -25.171875 C 6.71875 -24.710938 6.96875 -24.148438 6.96875 -23.484375 C 6.96875 -22.835938 6.71875 -22.28125 6.21875 -21.8125 C 5.726562 -21.351562 5.132812 -21.125 4.4375 -21.125 Z M 4.4375 -21.125 "/></g></g></g><g fill="#f5f5f5" fill-opacity="1"><g transform="translate(264.170491, 125.313031)"><g><path d="M 10.3125 0.359375 C 8.5 0.359375 6.929688 -0.0351562 5.609375 -0.828125 C 4.285156 -1.628906 3.257812 -2.742188 2.53125 -4.171875 C 1.8125 -5.597656 1.453125 -7.265625 1.453125 -9.171875 C 1.453125 -11.085938 1.8125 -12.765625 2.53125 -14.203125 C 3.257812 -15.640625 4.285156 -16.753906 5.609375 -17.546875 C 6.929688 -18.347656 8.5 -18.75 10.3125 -18.75 C 12.113281 -18.75 13.675781 -18.347656 15 -17.546875 C 16.332031 -16.753906 17.359375 -15.640625 18.078125 -14.203125 C 18.804688 -12.765625 19.171875 -11.085938 19.171875 -9.171875 C 19.171875 -7.265625 18.804688 -5.597656 18.078125 -4.171875 C 17.359375 -2.742188 16.332031 -1.628906 15 -0.828125 C 13.675781 -0.0351562 12.113281 0.359375 10.3125 0.359375 Z M 10.328125 -3.125 C 11.316406 -3.125 12.140625 -3.394531 12.796875 -3.9375 C 13.453125 -4.488281 13.941406 -5.21875 14.265625 -6.125 C 14.585938 -7.039062 14.75 -8.0625 14.75 -9.1875 C 14.75 -10.320312 14.585938 -11.347656 14.265625 -12.265625 C 13.941406 -13.179688 13.453125 -13.910156 12.796875 -14.453125 C 12.140625 -15.003906 11.316406 -15.28125 10.328125 -15.28125 C 9.328125 -15.28125 8.492188 -15.003906 7.828125 -14.453125 C 7.171875 -13.910156 6.675781 -13.179688 6.34375 -12.265625 C 6.019531 -11.347656 5.859375 -10.320312 5.859375 -9.1875 C 5.859375 -8.0625 6.019531 -7.039062 6.34375 -6.125 C 6.675781 -5.21875 7.171875 -4.488281 7.828125 -3.9375 C 8.492188 -3.394531 9.328125 -3.125 10.328125 -3.125 Z M 10.328125 -3.125 "/></g></g></g><g fill="#f5f5f5" fill-opacity="1"><g transform="translate(284.791552, 125.313031)"><g><path d="M 6.59375 -10.84375 L 6.59375 0 L 2.234375 0 L 2.234375 -18.5 L 6.40625 -18.5 L 6.40625 -15.359375 L 6.625 -15.359375 C 7.050781 -16.390625 7.734375 -17.210938 8.671875 -17.828125 C 9.609375 -18.441406 10.765625 -18.75 12.140625 -18.75 C 13.421875 -18.75 14.535156 -18.472656 15.484375 -17.921875 C 16.429688 -17.378906 17.164062 -16.585938 17.6875 -15.546875 C 18.21875 -14.515625 18.484375 -13.257812 18.484375 -11.78125 L 18.484375 0 L 14.125 0 L 14.125 -11.109375 C 14.125 -12.347656 13.800781 -13.316406 13.15625 -14.015625 C 12.519531 -14.710938 11.640625 -15.0625 10.515625 -15.0625 C 9.753906 -15.0625 9.078125 -14.894531 8.484375 -14.5625 C 7.890625 -14.226562 7.425781 -13.742188 7.09375 -13.109375 C 6.757812 -12.484375 6.59375 -11.726562 6.59375 -10.84375 Z M 6.59375 -10.84375 "/></g></g></g></g></g></g></svg>