<svg xmlns="http://www.w3.org/2000/svg" xmlns:xlink="http://www.w3.org/1999/xlink" width="537" zoomAndPan="magnify" viewBox="0 0 402.96 198.95999" height="255" preserveAspectRatio="xMidYMid meet" version="1.0"><defs><g/><clipPath id="1a5dafcbfa"><path d="M 0.0195312 0 L 72.007812 0 L 72.007812 191.210938 L 0.0195312 191.210938 Z M 0.0195312 0 " clip-rule="nonzero"/></clipPath><clipPath id="cdeb28f71d"><path d="M 330.84375 0 L 402.691406 0 L 402.691406 191.210938 L 330.84375 191.210938 Z M 330.84375 0 " clip-rule="nonzero"/></clipPath><clipPath id="5df89e953e"><path d="M 0.84375 0 L 72.179688 0 L 72.179688 191.210938 L 0.84375 191.210938 Z M 0.84375 0 " clip-rule="nonzero"/></clipPath><clipPath id="545ba77bc5"><rect x="0" width="73" y="0" height="192"/></clipPath><clipPath id="92a18631e4"><rect x="0" width="245" y="0" height="79"/></clipPath></defs><g clip-path="url(#1a5dafcbfa)"><path fill="#f5f5f5" d="M 260.921875 115.777344 L 261.082031 115.777344 L 261.082031 115.9375 C 260.699219 120.523438 258.613281 124.730469 255.195312 127.832031 C 251.777344 130.902344 247.347656 132.546875 242.761719 132.453125 L 242.726562 132.453125 C 241.652344 135.871094 240.417969 139.289062 238.996094 142.640625 C 240.230469 140.996094 241.714844 139.636719 243.457031 138.496094 C 247.316406 135.996094 251.9375 135.046875 256.460938 135.871094 L 256.617188 135.902344 L 256.585938 136.058594 C 255.511719 140.519531 252.789062 144.382812 248.929688 146.882812 C 245.070312 149.382812 240.449219 150.332031 235.925781 149.507812 L 235.894531 149.507812 C 235.703125 149.917969 235.480469 150.296875 235.292969 150.710938 C 233.867188 153.496094 232.285156 156.277344 230.546875 159.0625 C 232.035156 157.609375 233.773438 156.4375 235.671875 155.613281 C 239.878906 153.746094 244.5625 153.558594 248.929688 155.078125 L 249.054688 155.140625 L 248.992188 155.265625 C 247.222656 159.507812 243.929688 162.890625 239.722656 164.757812 C 235.515625 166.625 230.832031 166.816406 226.464844 165.296875 L 226.402344 165.265625 C 224.28125 168.238281 222.003906 171.152344 219.628906 173.902344 C 221.339844 172.699219 223.238281 171.785156 225.261719 171.246094 C 229.691406 170.042969 234.375 170.582031 238.425781 172.765625 L 238.550781 172.828125 L 238.488281 172.953125 C 236.050781 176.878906 232.285156 179.695312 227.855469 180.863281 C 223.425781 182.066406 218.742188 181.527344 214.695312 179.347656 L 214.628906 179.3125 C 210.421875 183.617188 205.898438 187.574219 201.183594 191.117188 L 201.054688 191.210938 L 199.601562 189.28125 L 199.726562 189.1875 C 204.347656 185.707031 208.714844 181.878906 212.761719 177.730469 C 209.882812 174.1875 208.460938 169.726562 208.777344 165.171875 C 209.09375 160.582031 211.117188 156.34375 214.503906 153.210938 L 214.597656 153.113281 L 214.695312 153.242188 C 217.605469 156.816406 219.027344 161.277344 218.710938 165.867188 C 218.492188 168.96875 217.476562 171.910156 215.800781 174.472656 C 218.839844 171.117188 221.6875 167.605469 224.28125 163.9375 C 220.894531 160.867188 218.773438 156.691406 218.394531 152.164062 C 217.984375 147.578125 219.34375 143.085938 222.191406 139.445312 L 222.289062 139.320312 L 222.382812 139.414062 C 225.832031 142.484375 227.953125 146.691406 228.332031 151.246094 C 228.617188 154.414062 228.046875 157.511719 226.75 160.328125 C 229.058594 156.847656 231.148438 153.242188 233.046875 149.539062 C 233.203125 149.191406 233.363281 148.875 233.550781 148.527344 C 229.722656 146.058594 226.96875 142.230469 225.863281 137.800781 C 224.753906 133.339844 225.355469 128.65625 227.601562 124.667969 L 227.667969 124.542969 L 227.792969 124.636719 C 231.652344 127.136719 234.40625 130.933594 235.546875 135.394531 C 236.304688 138.496094 236.242188 141.691406 235.355469 144.699219 C 237.253906 140.488281 238.898438 136.21875 240.261719 131.882812 C 236.082031 130.015625 232.761719 126.695312 230.988281 122.484375 C 229.183594 118.246094 229.089844 113.53125 230.671875 109.226562 L 230.734375 109.101562 L 230.863281 109.164062 C 235.070312 111 238.394531 114.355469 240.195312 118.59375 C 241.460938 121.566406 241.875 124.765625 241.460938 127.929688 C 242.695312 123.5 243.644531 118.972656 244.308594 114.386719 C 239.878906 113.214844 236.113281 110.429688 233.679688 106.570312 C 231.242188 102.679688 230.386719 98.027344 231.273438 93.535156 L 231.304688 93.375 L 231.464844 93.40625 C 235.925781 94.578125 239.722656 97.363281 242.160156 101.253906 C 243.804688 103.878906 244.722656 106.886719 244.847656 109.921875 C 245.292969 105.84375 245.511719 101.695312 245.511719 97.550781 C 245.511719 97.296875 245.511719 97.046875 245.511719 96.792969 L 245.511719 96.445312 C 240.988281 95.96875 236.84375 93.816406 233.867188 90.367188 C 230.832031 86.886719 229.28125 82.457031 229.46875 77.871094 L 229.46875 77.710938 L 229.628906 77.710938 C 234.214844 78.15625 238.394531 80.339844 241.398438 83.789062 C 243.394531 86.097656 244.753906 88.785156 245.386719 91.730469 C 245.164062 87.269531 244.691406 82.871094 243.960938 78.503906 C 243.644531 78.535156 243.296875 78.535156 242.980469 78.535156 C 238.773438 78.535156 234.722656 77.078125 231.464844 74.359375 C 227.953125 71.414062 225.703125 67.269531 225.167969 62.683594 L 225.136719 62.523438 L 225.292969 62.523438 C 229.882812 62.269531 234.375 63.726562 237.886719 66.699219 C 240.292969 68.726562 242.09375 71.320312 243.171875 74.199219 C 242.253906 69.738281 241.082031 65.371094 239.628906 61.070312 C 238.363281 61.351562 237.097656 61.480469 235.832031 61.480469 C 232.601562 61.480469 229.4375 60.625 226.589844 58.917969 C 222.636719 56.542969 219.789062 52.808594 218.554688 48.378906 L 218.523438 48.253906 L 218.679688 48.222656 C 223.171875 47.242188 227.824219 48 231.78125 50.375 C 234.46875 51.988281 236.652344 54.265625 238.171875 56.957031 C 236.558594 52.746094 234.722656 48.601562 232.601562 44.550781 C 228.332031 46.195312 223.679688 46.164062 219.441406 44.457031 C 215.167969 42.75 211.75 39.488281 209.851562 35.3125 L 209.789062 35.1875 L 209.914062 35.121094 C 214.1875 33.445312 218.902344 33.476562 223.171875 35.1875 C 225.988281 36.324219 228.394531 38.097656 230.292969 40.40625 C 228.046875 36.546875 225.609375 32.84375 223.015625 29.332031 C 219.058594 31.609375 214.472656 32.273438 210.042969 31.261719 C 205.550781 30.21875 201.6875 27.558594 199.125 23.730469 L 199.03125 23.605469 L 199.15625 23.542969 C 203.144531 21.230469 207.796875 20.503906 212.257812 21.546875 C 215.105469 22.210938 217.730469 23.542969 219.945312 25.441406 C 218.269531 23.382812 216.496094 21.359375 214.726562 19.460938 C 209.980469 19.078125 205.675781 17.148438 202.257812 13.890625 C 198.492188 10.285156 196.277344 5.441406 196.023438 0.222656 L 196.023438 0.0625 L 196.183594 0.0625 C 201.402344 0.09375 206.339844 2.121094 210.105469 5.726562 C 213.394531 8.890625 215.484375 12.910156 216.148438 17.402344 C 217.605469 18.953125 219.058594 20.566406 220.484375 22.246094 C 219.472656 20.28125 218.839844 18.164062 218.585938 15.949219 C 218.109375 11.390625 219.375 6.835938 222.160156 3.164062 L 222.257812 3.039062 L 222.382812 3.132812 C 225.894531 6.136719 228.078125 10.316406 228.550781 14.871094 C 229.027344 19.429688 227.761719 23.984375 224.976562 27.65625 L 224.914062 27.75 C 227.097656 30.691406 229.1875 33.761719 231.117188 36.894531 C 230.484375 34.871094 230.199219 32.75 230.324219 30.628906 C 230.546875 26.042969 232.507812 21.738281 235.863281 18.574219 L 235.957031 18.480469 L 236.050781 18.605469 C 239.027344 22.117188 240.546875 26.578125 240.292969 31.167969 C 240.070312 35.753906 238.109375 40.027344 234.785156 43.222656 L 234.722656 43.285156 C 236.429688 46.511719 237.980469 49.835938 239.34375 53.160156 C 239.058594 51.101562 239.121094 49.042969 239.5625 47.019531 C 240.511719 42.527344 243.109375 38.601562 246.90625 35.976562 L 247.03125 35.882812 L 247.09375 36.007812 C 249.5 39.933594 250.289062 44.582031 249.339844 49.078125 C 248.390625 53.570312 245.796875 57.492188 242 60.121094 L 241.96875 60.152344 C 243.140625 63.601562 244.121094 67.144531 244.976562 70.71875 C 245.007812 68.632812 245.386719 66.574219 246.144531 64.613281 C 247.789062 60.308594 250.988281 56.859375 255.132812 54.867188 L 255.257812 54.804688 L 255.320312 54.929688 C 257.0625 59.203125 257.125 63.886719 255.480469 68.1875 C 253.835938 72.492188 250.640625 75.941406 246.492188 77.933594 L 246.429688 77.964844 C 247.03125 81.574219 247.472656 85.273438 247.726562 88.976562 C 248.074219 86.855469 248.804688 84.863281 249.847656 82.996094 C 252.125 79.007812 255.828125 76.097656 260.226562 74.769531 L 260.351562 74.738281 L 260.382812 74.894531 C 261.460938 79.390625 260.765625 84.039062 258.484375 88.027344 C 256.207031 92.015625 252.503906 94.925781 248.105469 96.253906 L 248.011719 96.285156 C 248.011719 96.761719 248.011719 97.171875 248.011719 97.582031 C 248.011719 100.777344 247.886719 104.039062 247.601562 107.296875 C 248.265625 105.304688 249.277344 103.4375 250.605469 101.792969 C 253.488281 98.214844 257.601562 95.90625 262.15625 95.273438 L 262.316406 95.242188 L 262.316406 95.398438 C 262.664062 99.988281 261.269531 104.480469 258.359375 108.058594 C 255.480469 111.632812 251.367188 113.941406 246.808594 114.574219 L 246.746094 114.574219 C 246.242188 118.152344 245.542969 121.726562 244.691406 125.238281 C 245.671875 123.433594 246.9375 121.820312 248.457031 120.429688 C 251.777344 117.453125 256.019531 115.808594 260.480469 115.808594 C 260.636719 115.777344 260.796875 115.777344 260.921875 115.777344 Z M 52.65625 5.664062 C 49.363281 8.828125 47.277344 12.847656 46.613281 17.339844 C 45.15625 18.890625 43.699219 20.503906 42.277344 22.179688 C 43.289062 20.21875 43.921875 18.097656 44.175781 15.882812 C 44.648438 11.328125 43.382812 6.769531 40.601562 3.101562 L 40.503906 2.972656 L 40.378906 3.070312 C 36.898438 6.074219 34.683594 10.25 34.207031 14.808594 C 33.734375 19.363281 35 23.921875 37.785156 27.589844 L 37.847656 27.6875 C 35.664062 30.628906 33.574219 33.699219 31.644531 36.832031 C 32.277344 34.804688 32.5625 32.6875 32.4375 30.566406 C 32.214844 25.976562 30.253906 21.707031 26.929688 18.511719 L 26.835938 18.414062 L 26.742188 18.542969 C 23.765625 22.054688 22.246094 26.515625 22.5 31.105469 C 22.722656 35.691406 24.683594 39.964844 28.007812 43.160156 L 28.070312 43.222656 C 26.363281 46.449219 24.8125 49.773438 23.449219 53.09375 C 23.734375 51.039062 23.671875 48.980469 23.230469 46.957031 C 22.28125 42.464844 19.683594 38.539062 15.886719 35.914062 L 15.761719 35.820312 L 15.699219 35.945312 C 13.292969 39.867188 12.503906 44.519531 13.453125 49.011719 C 14.402344 53.507812 16.996094 57.429688 20.792969 60.054688 L 20.824219 60.085938 C 19.652344 63.535156 18.671875 67.082031 17.816406 70.65625 C 17.785156 68.566406 17.40625 66.511719 16.648438 64.550781 C 15.003906 60.246094 11.804688 56.796875 7.660156 54.804688 L 7.535156 54.742188 L 7.472656 54.867188 C 5.730469 59.105469 5.667969 63.820312 7.3125 68.125 C 8.957031 72.429688 12.152344 75.878906 16.300781 77.871094 L 16.363281 77.902344 C 15.761719 81.507812 15.320312 85.210938 15.066406 88.914062 C 14.71875 86.792969 13.988281 84.800781 12.945312 82.933594 C 10.667969 78.945312 6.964844 76.035156 2.566406 74.707031 L 2.441406 74.675781 L 2.410156 74.832031 C 1.332031 79.324219 2.027344 83.976562 4.308594 87.964844 C 6.585938 91.949219 10.289062 94.863281 14.6875 96.191406 L 14.78125 96.222656 C 14.78125 96.699219 14.78125 97.109375 14.78125 97.519531 C 14.78125 100.714844 14.90625 103.976562 15.191406 107.234375 C 14.527344 105.210938 13.515625 103.375 12.1875 101.726562 C 9.273438 98.152344 5.191406 95.84375 0.636719 95.242188 L 0.476562 95.210938 L 0.476562 95.367188 C 0.128906 99.957031 1.523438 104.449219 4.433594 108.023438 C 7.3125 111.601562 11.425781 113.910156 15.984375 114.542969 L 16.046875 114.542969 C 16.550781 118.117188 17.25 121.695312 18.101562 125.207031 C 17.121094 123.402344 15.855469 121.789062 14.335938 120.398438 C 10.921875 117.328125 6.523438 115.652344 1.902344 115.777344 L 1.742188 115.777344 L 1.742188 115.9375 C 2.125 120.523438 4.210938 124.730469 7.628906 127.832031 C 11.046875 130.902344 15.445312 132.546875 20.066406 132.453125 L 20.097656 132.453125 C 21.171875 135.871094 22.40625 139.289062 23.828125 142.640625 C 22.597656 140.996094 21.078125 139.636719 19.367188 138.496094 C 15.507812 135.996094 10.886719 135.046875 6.363281 135.871094 L 6.207031 135.902344 L 6.238281 136.058594 C 7.3125 140.519531 10.035156 144.382812 13.894531 146.882812 C 17.753906 149.382812 22.375 150.332031 26.898438 149.507812 L 26.929688 149.507812 C 27.121094 149.917969 27.3125 150.296875 27.53125 150.710938 C 28.957031 153.496094 30.539062 156.3125 32.277344 159.0625 C 30.792969 157.609375 29.050781 156.4375 27.152344 155.613281 C 22.945312 153.746094 18.261719 153.558594 13.894531 155.078125 L 13.769531 155.140625 L 13.832031 155.265625 C 15.601562 159.507812 18.894531 162.890625 23.101562 164.757812 C 27.3125 166.625 31.992188 166.816406 36.359375 165.296875 L 36.421875 165.265625 C 38.542969 168.238281 40.820312 171.152344 43.195312 173.902344 C 41.484375 172.699219 39.585938 171.785156 37.5625 171.246094 C 33.132812 170.042969 28.449219 170.582031 24.398438 172.765625 L 24.273438 172.828125 L 24.335938 172.953125 C 26.773438 176.878906 30.539062 179.695312 34.96875 180.863281 C 39.398438 182.066406 44.082031 181.527344 48.132812 179.347656 L 48.195312 179.3125 C 52.402344 183.617188 56.925781 187.605469 61.640625 191.117188 L 61.769531 191.210938 L 63.222656 189.28125 L 63.097656 189.1875 C 58.476562 185.707031 54.109375 181.878906 50.0625 177.730469 C 52.941406 174.1875 54.363281 169.726562 54.046875 165.171875 C 53.730469 160.582031 51.707031 156.34375 48.320312 153.210938 L 48.226562 153.113281 L 48.132812 153.242188 C 45.21875 156.816406 43.765625 161.277344 44.113281 165.867188 C 44.332031 168.96875 45.347656 171.910156 47.023438 174.472656 C 43.984375 171.117188 41.136719 167.605469 38.511719 163.9375 C 41.898438 160.867188 44.015625 156.691406 44.398438 152.164062 C 44.808594 147.578125 43.449219 143.085938 40.601562 139.445312 L 40.503906 139.320312 L 40.410156 139.414062 C 36.960938 142.484375 34.839844 146.691406 34.460938 151.246094 C 34.175781 154.414062 34.746094 157.511719 36.042969 160.328125 C 33.734375 156.847656 31.644531 153.242188 29.746094 149.539062 C 29.589844 149.191406 29.429688 148.875 29.242188 148.527344 C 33.070312 146.058594 35.824219 142.230469 36.929688 137.800781 C 38.039062 133.339844 37.4375 128.6875 35.15625 124.667969 L 35.09375 124.542969 L 34.96875 124.636719 C 31.109375 127.136719 28.355469 130.933594 27.214844 135.394531 C 26.457031 138.496094 26.519531 141.691406 27.375 144.699219 C 25.476562 140.488281 23.828125 136.21875 22.46875 131.882812 C 26.644531 130.015625 29.96875 126.695312 31.742188 122.484375 C 33.542969 118.246094 33.640625 113.53125 32.058594 109.226562 L 31.992188 109.101562 L 31.867188 109.164062 C 27.660156 111 24.335938 114.355469 22.53125 118.59375 C 21.265625 121.566406 20.855469 124.765625 21.265625 127.894531 C 20.03125 123.464844 19.082031 118.941406 18.417969 114.355469 C 22.847656 113.183594 26.613281 110.398438 29.050781 106.539062 C 31.488281 102.644531 32.339844 97.996094 31.425781 93.5 L 31.425781 93.34375 L 31.265625 93.375 C 26.804688 94.546875 23.007812 97.332031 20.570312 101.222656 C 18.925781 103.847656 18.007812 106.855469 17.882812 109.890625 C 17.4375 105.808594 17.21875 101.695312 17.21875 97.519531 C 17.21875 97.265625 17.21875 97.015625 17.21875 96.761719 L 17.21875 96.414062 C 21.742188 95.9375 25.886719 93.785156 28.894531 90.335938 C 31.898438 86.855469 33.480469 82.425781 33.289062 77.839844 L 33.289062 77.679688 L 33.132812 77.679688 C 28.542969 78.125 24.367188 80.308594 21.363281 83.757812 C 19.367188 86.066406 18.007812 88.753906 17.375 91.699219 C 17.597656 87.238281 18.070312 82.839844 18.800781 78.472656 C 19.117188 78.503906 19.433594 78.503906 19.78125 78.503906 C 23.988281 78.503906 28.039062 77.046875 31.296875 74.328125 C 34.808594 71.382812 37.054688 67.238281 37.59375 62.652344 L 37.625 62.492188 L 37.46875 62.492188 C 32.878906 62.238281 28.386719 63.695312 24.875 66.667969 C 22.46875 68.695312 20.664062 71.289062 19.589844 74.167969 C 20.507812 69.707031 21.679688 65.339844 23.132812 61.035156 C 24.398438 61.320312 25.664062 61.449219 26.929688 61.449219 C 30.160156 61.449219 33.324219 60.59375 36.171875 58.886719 C 40.125 56.511719 42.972656 52.777344 44.207031 48.347656 L 44.238281 48.222656 L 44.082031 48.191406 C 39.585938 47.210938 34.9375 47.96875 30.980469 50.34375 C 28.292969 51.957031 26.109375 54.234375 24.589844 56.957031 C 26.203125 52.714844 28.039062 48.601562 30.160156 44.550781 C 34.429688 46.195312 39.082031 46.164062 43.320312 44.457031 C 47.59375 42.75 51.011719 39.488281 52.910156 35.3125 L 52.972656 35.1875 L 52.84375 35.121094 C 48.574219 33.445312 43.859375 33.476562 39.585938 35.1875 C 36.773438 36.324219 34.367188 38.097656 32.46875 40.40625 C 34.683594 36.546875 37.152344 32.84375 39.746094 29.332031 C 43.699219 31.609375 48.289062 32.273438 52.71875 31.261719 C 57.210938 30.21875 61.074219 27.558594 63.636719 23.730469 L 63.730469 23.605469 L 63.605469 23.542969 C 59.617188 21.230469 54.964844 20.503906 50.503906 21.546875 C 47.65625 22.210938 45.03125 23.542969 42.816406 25.472656 C 44.492188 23.414062 46.265625 21.390625 48.035156 19.492188 C 52.78125 19.113281 57.085938 17.179688 60.503906 13.921875 C 64.269531 10.316406 66.484375 5.472656 66.738281 0.253906 L 66.738281 0.09375 L 66.546875 0 C 61.355469 0.03125 56.390625 2.058594 52.65625 5.664062 Z M 52.65625 5.664062 " fill-opacity="1" fill-rule="nonzero"/></g><g clip-path="url(#cdeb28f71d)"><g transform="matrix(1, 0, 0, 1, 330, 0)"><g clip-path="url(#545ba77bc5)"><g clip-path="url(#5df89e953e)"><path fill="#f5f5f5" d="M -188.332031 115.777344 L -188.488281 115.777344 L -188.488281 115.9375 C -188.109375 120.523438 -186.019531 124.730469 -182.605469 127.832031 C -179.1875 130.902344 -174.757812 132.546875 -170.167969 132.453125 L -170.136719 132.453125 C -169.0625 135.871094 -167.828125 139.289062 -166.402344 142.640625 C -167.636719 140.996094 -169.125 139.636719 -170.863281 138.496094 C -174.726562 135.996094 -179.34375 135.046875 -183.871094 135.871094 L -184.027344 135.902344 L -183.996094 136.058594 C -182.921875 140.519531 -180.199219 144.382812 -176.339844 146.882812 C -172.480469 149.382812 -167.859375 150.332031 -163.335938 149.507812 L -163.300781 149.507812 C -163.113281 149.917969 -162.890625 150.296875 -162.703125 150.710938 C -161.277344 153.496094 -159.695312 156.277344 -157.957031 159.0625 C -159.441406 157.609375 -161.183594 156.4375 -163.082031 155.613281 C -167.289062 153.746094 -171.972656 153.558594 -176.339844 155.078125 L -176.464844 155.140625 L -176.402344 155.265625 C -174.628906 159.507812 -171.339844 162.890625 -167.132812 164.757812 C -162.921875 166.625 -158.238281 166.816406 -153.875 165.296875 L -153.808594 165.265625 C -151.691406 168.238281 -149.410156 171.152344 -147.039062 173.902344 C -148.746094 172.699219 -150.644531 171.785156 -152.671875 171.246094 C -157.101562 170.042969 -161.785156 170.582031 -165.832031 172.765625 L -165.960938 172.828125 L -165.898438 172.953125 C -163.460938 176.878906 -159.695312 179.695312 -155.265625 180.863281 C -150.835938 182.066406 -146.152344 181.527344 -142.101562 179.347656 L -142.039062 179.3125 C -137.832031 183.617188 -133.304688 187.574219 -128.589844 191.117188 L -128.464844 191.210938 L -127.007812 189.28125 L -127.136719 189.1875 C -131.753906 185.707031 -136.121094 181.878906 -140.171875 177.730469 C -137.292969 174.1875 -135.871094 169.726562 -136.1875 165.171875 C -136.503906 160.582031 -138.527344 156.34375 -141.914062 153.210938 L -142.007812 153.113281 L -142.101562 153.242188 C -145.011719 156.816406 -146.4375 161.277344 -146.121094 165.867188 C -145.898438 168.96875 -144.886719 171.910156 -143.210938 174.472656 C -146.246094 171.117188 -149.09375 167.605469 -151.691406 163.9375 C -148.304688 160.867188 -146.183594 156.691406 -145.804688 152.164062 C -145.394531 147.578125 -146.753906 143.085938 -149.601562 139.445312 L -149.695312 139.320312 L -149.792969 139.414062 C -153.242188 142.484375 -155.359375 146.691406 -155.742188 151.246094 C -156.023438 154.414062 -155.457031 157.511719 -154.15625 160.328125 C -156.46875 156.847656 -158.554688 153.242188 -160.453125 149.539062 C -160.613281 149.191406 -160.769531 148.875 -160.960938 148.527344 C -157.132812 146.058594 -154.378906 142.230469 -153.273438 137.800781 C -152.164062 133.339844 -152.765625 128.65625 -155.011719 124.667969 L -155.074219 124.542969 L -155.203125 124.636719 C -159.0625 127.136719 -161.816406 130.933594 -162.953125 135.394531 C -163.714844 138.496094 -163.652344 141.691406 -162.765625 144.699219 C -164.664062 140.488281 -166.308594 136.21875 -167.667969 131.882812 C -163.492188 130.015625 -160.171875 126.695312 -158.398438 122.484375 C -156.59375 118.246094 -156.5 113.53125 -158.082031 109.226562 L -158.144531 109.101562 L -158.273438 109.164062 C -162.480469 111 -165.800781 114.355469 -167.605469 118.59375 C -168.871094 121.566406 -169.28125 124.765625 -168.871094 127.929688 C -170.105469 123.5 -171.054688 118.972656 -171.71875 114.386719 C -167.289062 113.214844 -163.523438 110.429688 -161.085938 106.570312 C -158.652344 102.679688 -157.796875 98.027344 -158.683594 93.535156 L -158.714844 93.375 L -158.871094 93.40625 C -163.335938 94.578125 -167.132812 97.363281 -169.566406 101.253906 C -171.214844 103.878906 -172.128906 106.886719 -172.257812 109.921875 C -172.699219 105.84375 -172.921875 101.695312 -172.921875 97.550781 C -172.921875 97.296875 -172.921875 97.046875 -172.921875 96.792969 L -172.921875 96.445312 C -168.398438 95.96875 -164.25 93.816406 -161.277344 90.367188 C -158.238281 86.886719 -156.691406 82.457031 -156.878906 77.871094 L -156.878906 77.710938 L -157.039062 77.710938 C -161.625 78.15625 -165.800781 80.339844 -168.808594 83.789062 C -170.800781 86.097656 -172.164062 88.785156 -172.796875 91.730469 C -172.574219 87.269531 -172.097656 82.871094 -171.371094 78.503906 C -171.054688 78.535156 -170.707031 78.535156 -170.390625 78.535156 C -166.183594 78.535156 -162.132812 77.078125 -158.871094 74.359375 C -155.359375 71.414062 -153.113281 67.269531 -152.574219 62.683594 L -152.542969 62.523438 L -152.703125 62.523438 C -157.289062 62.269531 -161.785156 63.726562 -165.296875 66.699219 C -167.699219 68.726562 -169.503906 71.320312 -170.582031 74.199219 C -169.664062 69.738281 -168.492188 65.371094 -167.035156 61.070312 C -165.769531 61.351562 -164.503906 61.480469 -163.238281 61.480469 C -160.011719 61.480469 -156.847656 60.625 -154 58.917969 C -150.042969 56.542969 -147.195312 52.808594 -145.964844 48.378906 L -145.929688 48.253906 L -146.089844 48.222656 C -150.582031 47.242188 -155.234375 48 -159.1875 50.375 C -161.878906 51.988281 -164.0625 54.265625 -165.582031 56.957031 C -163.96875 52.746094 -162.132812 48.601562 -160.011719 44.550781 C -155.742188 46.195312 -151.089844 46.164062 -146.847656 44.457031 C -142.578125 42.75 -139.160156 39.488281 -137.261719 35.3125 L -137.199219 35.1875 L -137.324219 35.121094 C -141.597656 33.445312 -146.3125 33.476562 -150.582031 35.1875 C -153.398438 36.324219 -155.804688 38.097656 -157.703125 40.40625 C -155.457031 36.546875 -153.019531 32.84375 -150.425781 29.332031 C -146.46875 31.609375 -141.882812 32.273438 -137.453125 31.261719 C -132.957031 30.21875 -129.097656 27.558594 -126.535156 23.730469 L -126.441406 23.605469 L -126.566406 23.542969 C -130.554688 21.230469 -135.203125 20.503906 -139.667969 21.546875 C -142.515625 22.210938 -145.140625 23.542969 -147.355469 25.441406 C -145.679688 23.382812 -143.90625 21.359375 -142.132812 19.460938 C -137.386719 19.078125 -133.085938 17.148438 -129.667969 13.890625 C -125.902344 10.285156 -123.6875 5.441406 -123.433594 0.222656 L -123.433594 0.0625 L -123.59375 0.0625 C -128.8125 0.09375 -133.75 2.121094 -137.515625 5.726562 C -140.804688 8.890625 -142.894531 12.910156 -143.558594 17.402344 C -145.015625 18.953125 -146.46875 20.566406 -147.894531 22.246094 C -146.878906 20.28125 -146.246094 18.164062 -145.996094 15.949219 C -145.519531 11.390625 -146.785156 6.835938 -149.570312 3.164062 L -149.664062 3.039062 L -149.792969 3.132812 C -153.304688 6.136719 -155.488281 10.316406 -155.960938 14.871094 C -156.4375 19.429688 -155.171875 23.984375 -152.386719 27.65625 L -152.324219 27.75 C -154.507812 30.691406 -156.59375 33.761719 -158.523438 36.894531 C -157.890625 34.871094 -157.605469 32.75 -157.734375 30.628906 C -157.957031 26.042969 -159.917969 21.738281 -163.269531 18.574219 L -163.367188 18.480469 L -163.460938 18.605469 C -166.433594 22.117188 -167.953125 26.578125 -167.699219 31.167969 C -167.480469 35.753906 -165.519531 40.027344 -162.195312 43.222656 L -162.132812 43.285156 C -163.839844 46.511719 -165.390625 49.835938 -166.75 53.160156 C -166.46875 51.101562 -166.53125 49.042969 -166.972656 47.019531 C -167.921875 42.527344 -170.515625 38.601562 -174.3125 35.976562 L -174.441406 35.882812 L -174.503906 36.007812 C -176.910156 39.933594 -177.699219 44.582031 -176.75 49.078125 C -175.800781 53.570312 -173.207031 57.492188 -169.410156 60.121094 L -169.378906 60.152344 C -170.546875 63.601562 -171.53125 67.144531 -172.382812 70.71875 C -172.414062 68.632812 -172.796875 66.574219 -173.554688 64.613281 C -175.199219 60.308594 -178.394531 56.859375 -182.539062 54.867188 L -182.667969 54.804688 L -182.730469 54.929688 C -184.472656 59.203125 -184.535156 63.886719 -182.890625 68.1875 C -181.242188 72.492188 -178.046875 75.941406 -173.902344 77.933594 L -173.839844 77.964844 C -174.441406 81.574219 -174.882812 85.273438 -175.136719 88.976562 C -175.484375 86.855469 -176.210938 84.863281 -177.257812 82.996094 C -179.535156 79.007812 -183.238281 76.097656 -187.636719 74.769531 L -187.761719 74.738281 L -187.792969 74.894531 C -188.871094 79.390625 -188.171875 84.039062 -185.894531 88.027344 C -183.617188 92.015625 -179.914062 94.925781 -175.515625 96.253906 L -175.421875 96.285156 C -175.421875 96.761719 -175.421875 97.171875 -175.421875 97.582031 C -175.421875 100.777344 -175.296875 104.039062 -175.011719 107.296875 C -175.675781 105.304688 -176.6875 103.4375 -178.015625 101.792969 C -180.894531 98.214844 -185.007812 95.90625 -189.566406 95.273438 L -189.722656 95.242188 L -189.722656 95.398438 C -190.070312 99.988281 -188.679688 104.480469 -185.769531 108.058594 C -182.890625 111.632812 -178.777344 113.941406 -174.21875 114.574219 L -174.15625 114.574219 C -173.648438 118.152344 -172.953125 121.726562 -172.097656 125.238281 C -173.078125 123.433594 -174.34375 121.820312 -175.863281 120.429688 C -179.1875 117.453125 -183.425781 115.808594 -187.886719 115.808594 C -188.046875 115.777344 -188.203125 115.777344 -188.332031 115.777344 Z M 19.933594 5.664062 C 23.226562 8.828125 25.3125 12.847656 25.980469 17.339844 C 27.433594 18.890625 28.890625 20.503906 30.3125 22.179688 C 29.300781 20.21875 28.667969 18.097656 28.414062 15.882812 C 27.941406 11.328125 29.207031 6.769531 31.992188 3.101562 L 32.085938 2.972656 L 32.210938 3.070312 C 35.691406 6.074219 37.90625 10.25 38.382812 14.808594 C 38.855469 19.363281 37.589844 23.921875 34.808594 27.589844 L 34.742188 27.6875 C 36.925781 30.628906 39.015625 33.699219 40.945312 36.832031 C 40.3125 34.804688 40.027344 32.6875 40.15625 30.566406 C 40.375 25.976562 42.335938 21.707031 45.660156 18.511719 L 45.753906 18.414062 L 45.851562 18.542969 C 48.824219 22.054688 50.34375 26.515625 50.089844 31.105469 C 49.867188 35.691406 47.90625 39.964844 44.585938 43.160156 L 44.519531 43.222656 C 46.230469 46.449219 47.78125 49.773438 49.140625 53.09375 C 48.855469 51.039062 48.917969 48.980469 49.363281 46.957031 C 50.3125 42.464844 52.90625 38.539062 56.703125 35.914062 L 56.828125 35.820312 L 56.894531 35.945312 C 59.296875 39.867188 60.089844 44.519531 59.140625 49.011719 C 58.191406 53.507812 55.59375 57.429688 51.796875 60.054688 L 51.765625 60.085938 C 52.9375 63.535156 53.917969 67.082031 54.773438 70.65625 C 54.804688 68.566406 55.183594 66.511719 55.945312 64.550781 C 57.589844 60.246094 60.785156 56.796875 64.929688 54.804688 L 65.054688 54.742188 L 65.121094 54.867188 C 66.859375 59.105469 66.921875 63.820312 65.277344 68.125 C 63.632812 72.429688 60.4375 75.878906 56.292969 77.871094 L 56.226562 77.902344 C 56.828125 81.507812 57.273438 85.210938 57.527344 88.914062 C 57.875 86.792969 58.601562 84.800781 59.644531 82.933594 C 61.925781 78.945312 65.625 76.035156 70.023438 74.707031 L 70.152344 74.675781 L 70.183594 74.832031 C 71.257812 79.324219 70.5625 83.976562 68.285156 87.964844 C 66.003906 91.949219 62.304688 94.863281 57.90625 96.191406 L 57.808594 96.222656 C 57.808594 96.699219 57.808594 97.109375 57.808594 97.519531 C 57.808594 100.714844 57.683594 103.976562 57.398438 107.234375 C 58.0625 105.210938 59.074219 103.375 60.40625 101.726562 C 63.316406 98.152344 67.398438 95.84375 71.953125 95.242188 L 72.113281 95.210938 L 72.113281 95.367188 C 72.460938 99.957031 71.070312 104.449219 68.15625 108.023438 C 65.277344 111.601562 61.164062 113.910156 56.609375 114.542969 L 56.542969 114.542969 C 56.039062 118.117188 55.34375 121.695312 54.488281 125.207031 C 55.46875 123.402344 56.734375 121.789062 58.253906 120.398438 C 61.671875 117.328125 66.070312 115.652344 70.6875 115.777344 L 70.847656 115.777344 L 70.847656 115.9375 C 70.46875 120.523438 68.378906 124.730469 64.960938 127.832031 C 61.542969 130.902344 57.144531 132.546875 52.527344 132.453125 L 52.496094 132.453125 C 51.417969 135.871094 50.183594 139.289062 48.761719 142.640625 C 49.996094 140.996094 51.515625 139.636719 53.222656 138.496094 C 57.082031 135.996094 61.703125 135.046875 66.226562 135.871094 L 66.386719 135.902344 L 66.355469 136.058594 C 65.277344 140.519531 62.558594 144.382812 58.695312 146.882812 C 54.835938 149.382812 50.214844 150.332031 45.691406 149.507812 L 45.660156 149.507812 C 45.46875 149.917969 45.28125 150.296875 45.058594 150.710938 C 43.636719 153.496094 42.054688 156.3125 40.3125 159.0625 C 41.800781 157.609375 43.539062 156.4375 45.4375 155.613281 C 49.648438 153.746094 54.328125 153.558594 58.695312 155.078125 L 58.824219 155.140625 L 58.757812 155.265625 C 56.988281 159.507812 53.695312 162.890625 49.488281 164.757812 C 45.28125 166.625 40.597656 166.816406 36.230469 165.296875 L 36.167969 165.265625 C 34.046875 168.238281 31.769531 171.152344 29.394531 173.902344 C 31.105469 172.699219 33.003906 171.785156 35.027344 171.246094 C 39.457031 170.042969 44.140625 170.582031 48.191406 172.765625 L 48.316406 172.828125 L 48.253906 172.953125 C 45.816406 176.878906 42.054688 179.695312 37.621094 180.863281 C 33.191406 182.066406 28.511719 181.527344 24.460938 179.347656 L 24.398438 179.3125 C 20.1875 183.617188 15.664062 187.605469 10.949219 191.117188 L 10.824219 191.210938 L 9.367188 189.28125 L 9.492188 189.1875 C 14.113281 185.707031 18.480469 181.878906 22.53125 177.730469 C 19.652344 174.1875 18.226562 169.726562 18.542969 165.171875 C 18.859375 160.582031 20.882812 156.34375 24.269531 153.210938 L 24.363281 153.113281 L 24.460938 153.242188 C 27.371094 156.816406 28.828125 161.277344 28.476562 165.867188 C 28.257812 168.96875 27.246094 171.910156 25.566406 174.472656 C 28.605469 171.117188 31.453125 167.605469 34.078125 163.9375 C 30.695312 160.867188 28.574219 156.691406 28.195312 152.164062 C 27.78125 147.578125 29.144531 143.085938 31.992188 139.445312 L 32.085938 139.320312 L 32.179688 139.414062 C 35.628906 142.484375 37.75 146.691406 38.128906 151.246094 C 38.414062 154.414062 37.84375 157.511719 36.546875 160.328125 C 38.855469 156.847656 40.945312 153.242188 42.84375 149.539062 C 43.003906 149.191406 43.160156 148.875 43.351562 148.527344 C 39.523438 146.058594 36.769531 142.230469 35.660156 137.800781 C 34.554688 133.339844 35.15625 128.6875 37.433594 124.667969 L 37.496094 124.542969 L 37.621094 124.636719 C 41.484375 127.136719 44.234375 130.933594 45.375 135.394531 C 46.132812 138.496094 46.070312 141.691406 45.21875 144.699219 C 47.117188 140.488281 48.761719 136.21875 50.121094 131.882812 C 45.945312 130.015625 42.621094 126.695312 40.851562 122.484375 C 39.046875 118.246094 38.953125 113.53125 40.535156 109.226562 L 40.597656 109.101562 L 40.722656 109.164062 C 44.933594 111 48.253906 114.355469 50.058594 118.59375 C 51.324219 121.566406 51.734375 124.765625 51.324219 127.894531 C 52.558594 123.464844 53.507812 118.941406 54.171875 114.355469 C 49.742188 113.183594 45.976562 110.398438 43.539062 106.539062 C 41.105469 102.644531 40.25 97.996094 41.167969 93.5 L 41.167969 93.34375 L 41.324219 93.375 C 45.785156 94.546875 49.582031 97.332031 52.019531 101.222656 C 53.664062 103.847656 54.582031 106.855469 54.710938 109.890625 C 55.152344 105.808594 55.375 101.695312 55.375 97.519531 C 55.375 97.265625 55.375 97.015625 55.375 96.761719 L 55.375 96.414062 C 50.847656 95.9375 46.703125 93.785156 43.699219 90.335938 C 40.691406 86.855469 39.109375 82.425781 39.300781 77.839844 L 39.300781 77.679688 L 39.457031 77.679688 C 44.046875 78.125 48.222656 80.308594 51.230469 83.757812 C 53.222656 86.066406 54.582031 88.753906 55.214844 91.699219 C 54.996094 87.238281 54.519531 82.839844 53.792969 78.472656 C 53.476562 78.503906 53.160156 78.503906 52.8125 78.503906 C 48.601562 78.503906 44.550781 77.046875 41.292969 74.328125 C 37.78125 71.382812 35.535156 67.238281 34.996094 62.652344 L 34.964844 62.492188 L 35.125 62.492188 C 39.710938 62.238281 44.203125 63.695312 47.714844 66.667969 C 50.121094 68.695312 51.925781 71.289062 53 74.167969 C 52.082031 69.707031 50.914062 65.339844 49.457031 61.035156 C 48.191406 61.320312 46.925781 61.449219 45.660156 61.449219 C 42.433594 61.449219 39.269531 60.59375 36.421875 58.886719 C 32.464844 56.511719 29.617188 52.777344 28.382812 48.347656 L 28.351562 48.222656 L 28.511719 48.191406 C 33.003906 47.210938 37.65625 47.96875 41.609375 50.34375 C 44.300781 51.957031 46.484375 54.234375 48 56.957031 C 46.386719 52.714844 44.550781 48.601562 42.433594 44.550781 C 38.160156 46.195312 33.507812 46.164062 29.269531 44.457031 C 24.996094 42.75 21.582031 39.488281 19.683594 35.3125 L 19.617188 35.1875 L 19.746094 35.121094 C 24.015625 33.445312 28.730469 33.476562 33.003906 35.1875 C 35.820312 36.324219 38.222656 38.097656 40.121094 40.40625 C 37.90625 36.546875 35.441406 32.84375 32.84375 29.332031 C 28.890625 31.609375 24.300781 32.273438 19.871094 31.261719 C 15.378906 30.21875 11.519531 27.558594 8.957031 23.730469 L 8.859375 23.605469 L 8.988281 23.542969 C 12.972656 21.230469 17.625 20.503906 22.085938 21.546875 C 24.933594 22.210938 27.5625 23.542969 29.777344 25.472656 C 28.097656 23.414062 26.328125 21.390625 24.554688 19.492188 C 19.808594 19.113281 15.503906 17.179688 12.089844 13.921875 C 8.324219 10.316406 6.109375 5.472656 5.855469 0.253906 L 5.855469 0.09375 L 6.042969 0 C 11.234375 0.03125 16.203125 2.058594 19.933594 5.664062 Z M 19.933594 5.664062 " fill-opacity="1" fill-rule="nonzero"/></g></g></g></g><g transform="matrix(1, 0, 0, 1, 85, 55)"><g clip-path="url(#92a18631e4)"><g fill="#f5f5f5" fill-opacity="1"><g transform="translate(2.576445, 34.24779)"><g><path d="M 2.4375 0 L 2.4375 -24.65625 L 11.875 -24.65625 C 13.65625 -24.65625 15.132812 -24.375 16.3125 -23.8125 C 17.5 -23.257812 18.382812 -22.5 18.96875 -21.53125 C 19.5625 -20.570312 19.859375 -19.484375 19.859375 -18.265625 C 19.859375 -17.265625 19.664062 -16.40625 19.28125 -15.6875 C 18.90625 -14.976562 18.390625 -14.40625 17.734375 -13.96875 C 17.085938 -13.53125 16.363281 -13.210938 15.5625 -13.015625 L 15.5625 -12.78125 C 16.4375 -12.726562 17.273438 -12.457031 18.078125 -11.96875 C 18.890625 -11.488281 19.550781 -10.804688 20.0625 -9.921875 C 20.570312 -9.035156 20.828125 -7.96875 20.828125 -6.71875 C 20.828125 -5.4375 20.515625 -4.289062 19.890625 -3.28125 C 19.273438 -2.269531 18.347656 -1.46875 17.109375 -0.875 C 15.867188 -0.289062 14.300781 0 12.40625 0 Z M 6.90625 -3.734375 L 11.703125 -3.734375 C 13.328125 -3.734375 14.5 -4.039062 15.21875 -4.65625 C 15.9375 -5.28125 16.296875 -6.082031 16.296875 -7.0625 C 16.296875 -7.789062 16.113281 -8.453125 15.75 -9.046875 C 15.382812 -9.640625 14.867188 -10.101562 14.203125 -10.4375 C 13.535156 -10.78125 12.742188 -10.953125 11.828125 -10.953125 L 6.90625 -10.953125 Z M 6.90625 -14.171875 L 11.3125 -14.171875 C 12.082031 -14.171875 12.773438 -14.3125 13.390625 -14.59375 C 14.015625 -14.882812 14.503906 -15.289062 14.859375 -15.8125 C 15.222656 -16.34375 15.40625 -16.96875 15.40625 -17.6875 C 15.40625 -18.644531 15.066406 -19.429688 14.390625 -20.046875 C 13.722656 -20.660156 12.734375 -20.96875 11.421875 -20.96875 L 6.90625 -20.96875 Z M 6.90625 -14.171875 "/></g></g></g><g fill="#f5f5f5" fill-opacity="1"><g transform="translate(24.865236, 34.24779)"><g><path d="M 10.421875 0.359375 C 8.566406 0.359375 6.96875 -0.0234375 5.625 -0.796875 C 4.28125 -1.578125 3.242188 -2.675781 2.515625 -4.09375 C 1.796875 -5.519531 1.4375 -7.203125 1.4375 -9.140625 C 1.4375 -11.046875 1.800781 -12.71875 2.53125 -14.15625 C 3.257812 -15.59375 4.273438 -16.710938 5.578125 -17.515625 C 6.890625 -18.328125 8.429688 -18.734375 10.203125 -18.734375 C 11.335938 -18.734375 12.410156 -18.550781 13.421875 -18.1875 C 14.441406 -17.820312 15.34375 -17.257812 16.125 -16.5 C 16.90625 -15.738281 17.519531 -14.769531 17.96875 -13.59375 C 18.425781 -12.414062 18.65625 -11.015625 18.65625 -9.390625 L 18.65625 -8.0625 L 3.484375 -8.0625 L 3.484375 -11 L 14.46875 -11 C 14.457031 -11.832031 14.273438 -12.570312 13.921875 -13.21875 C 13.578125 -13.875 13.085938 -14.390625 12.453125 -14.765625 C 11.828125 -15.148438 11.097656 -15.34375 10.265625 -15.34375 C 9.367188 -15.34375 8.582031 -15.125 7.90625 -14.6875 C 7.238281 -14.257812 6.71875 -13.695312 6.34375 -13 C 5.96875 -12.3125 5.773438 -11.554688 5.765625 -10.734375 L 5.765625 -8.15625 C 5.765625 -7.082031 5.960938 -6.160156 6.359375 -5.390625 C 6.753906 -4.628906 7.300781 -4.046875 8 -3.640625 C 8.707031 -3.234375 9.535156 -3.03125 10.484375 -3.03125 C 11.117188 -3.03125 11.691406 -3.117188 12.203125 -3.296875 C 12.722656 -3.484375 13.171875 -3.753906 13.546875 -4.109375 C 13.921875 -4.460938 14.207031 -4.898438 14.40625 -5.421875 L 18.46875 -4.953125 C 18.207031 -3.878906 17.71875 -2.941406 17 -2.140625 C 16.289062 -1.347656 15.375 -0.734375 14.25 -0.296875 C 13.132812 0.140625 11.859375 0.359375 10.421875 0.359375 Z M 10.421875 0.359375 "/></g></g></g><g fill="#f5f5f5" fill-opacity="1"><g transform="translate(44.962488, 34.24779)"><g><path d="M 16.859375 -13.609375 L 12.890625 -13.171875 C 12.773438 -13.578125 12.578125 -13.953125 12.296875 -14.296875 C 12.023438 -14.648438 11.65625 -14.9375 11.1875 -15.15625 C 10.71875 -15.375 10.144531 -15.484375 9.46875 -15.484375 C 8.5625 -15.484375 7.800781 -15.285156 7.1875 -14.890625 C 6.570312 -14.492188 6.269531 -13.984375 6.28125 -13.359375 C 6.269531 -12.828125 6.46875 -12.390625 6.875 -12.046875 C 7.28125 -11.710938 7.953125 -11.4375 8.890625 -11.21875 L 12.046875 -10.546875 C 13.796875 -10.171875 15.097656 -9.570312 15.953125 -8.75 C 16.804688 -7.9375 17.238281 -6.863281 17.25 -5.53125 C 17.238281 -4.375 16.898438 -3.347656 16.234375 -2.453125 C 15.566406 -1.566406 14.640625 -0.875 13.453125 -0.375 C 12.265625 0.113281 10.898438 0.359375 9.359375 0.359375 C 7.085938 0.359375 5.257812 -0.113281 3.875 -1.0625 C 2.5 -2.019531 1.679688 -3.347656 1.421875 -5.046875 L 5.671875 -5.453125 C 5.859375 -4.617188 6.265625 -3.988281 6.890625 -3.5625 C 7.523438 -3.132812 8.34375 -2.921875 9.34375 -2.921875 C 10.375 -2.921875 11.203125 -3.132812 11.828125 -3.5625 C 12.460938 -3.988281 12.78125 -4.515625 12.78125 -5.140625 C 12.78125 -5.671875 12.578125 -6.109375 12.171875 -6.453125 C 11.773438 -6.796875 11.148438 -7.0625 10.296875 -7.25 L 7.140625 -7.90625 C 5.367188 -8.28125 4.054688 -8.90625 3.203125 -9.78125 C 2.347656 -10.65625 1.925781 -11.769531 1.9375 -13.125 C 1.925781 -14.257812 2.234375 -15.242188 2.859375 -16.078125 C 3.492188 -16.921875 4.375 -17.570312 5.5 -18.03125 C 6.632812 -18.5 7.941406 -18.734375 9.421875 -18.734375 C 11.585938 -18.734375 13.289062 -18.269531 14.53125 -17.34375 C 15.78125 -16.425781 16.554688 -15.179688 16.859375 -13.609375 Z M 16.859375 -13.609375 "/></g></g></g><g fill="#f5f5f5" fill-opacity="1"><g transform="translate(63.578645, 34.24779)"><g><path d="M 11.46875 -18.5 L 11.46875 -15.125 L 0.84375 -15.125 L 0.84375 -18.5 Z M 3.46875 -22.921875 L 7.828125 -22.921875 L 7.828125 -5.5625 C 7.828125 -4.976562 7.914062 -4.53125 8.09375 -4.21875 C 8.28125 -3.90625 8.519531 -3.691406 8.8125 -3.578125 C 9.113281 -3.472656 9.441406 -3.421875 9.796875 -3.421875 C 10.066406 -3.421875 10.316406 -3.441406 10.546875 -3.484375 C 10.773438 -3.523438 10.953125 -3.5625 11.078125 -3.59375 L 11.8125 -0.1875 C 11.582031 -0.101562 11.25 -0.015625 10.8125 0.078125 C 10.382812 0.179688 9.863281 0.238281 9.25 0.25 C 8.15625 0.28125 7.171875 0.113281 6.296875 -0.25 C 5.421875 -0.613281 4.726562 -1.179688 4.21875 -1.953125 C 3.707031 -2.722656 3.457031 -3.6875 3.46875 -4.84375 Z M 3.46875 -22.921875 "/></g></g></g><g fill="#f5f5f5" fill-opacity="1"><g transform="translate(76.463054, 34.24779)"><g/></g></g><g fill="#f5f5f5" fill-opacity="1"><g transform="translate(84.880049, 34.24779)"><g><path d="M 6.90625 -24.65625 L 6.90625 0 L 2.4375 0 L 2.4375 -24.65625 Z M 6.90625 -24.65625 "/></g></g></g><g fill="#f5f5f5" fill-opacity="1"><g transform="translate(94.200157, 34.24779)"><g><path d="M 6.59375 -10.84375 L 6.59375 0 L 2.234375 0 L 2.234375 -18.5 L 6.40625 -18.5 L 6.40625 -15.359375 L 6.625 -15.359375 C 7.050781 -16.390625 7.726562 -17.207031 8.65625 -17.8125 C 9.59375 -18.425781 10.753906 -18.734375 12.140625 -18.734375 C 13.410156 -18.734375 14.519531 -18.457031 15.46875 -17.90625 C 16.425781 -17.363281 17.164062 -16.570312 17.6875 -15.53125 C 18.21875 -14.5 18.476562 -13.25 18.46875 -11.78125 L 18.46875 0 L 14.109375 0 L 14.109375 -11.09375 C 14.109375 -12.332031 13.789062 -13.300781 13.15625 -14 C 12.519531 -14.695312 11.640625 -15.046875 10.515625 -15.046875 C 9.753906 -15.046875 9.078125 -14.878906 8.484375 -14.546875 C 7.890625 -14.210938 7.425781 -13.734375 7.09375 -13.109375 C 6.757812 -12.484375 6.59375 -11.726562 6.59375 -10.84375 Z M 6.59375 -10.84375 "/></g></g></g><g fill="#f5f5f5" fill-opacity="1"><g transform="translate(114.875393, 34.24779)"><g><path d="M 6.59375 -10.84375 L 6.59375 0 L 2.234375 0 L 2.234375 -18.5 L 6.40625 -18.5 L 6.40625 -15.359375 L 6.625 -15.359375 C 7.050781 -16.390625 7.726562 -17.207031 8.65625 -17.8125 C 9.59375 -18.425781 10.753906 -18.734375 12.140625 -18.734375 C 13.410156 -18.734375 14.519531 -18.457031 15.46875 -17.90625 C 16.425781 -17.363281 17.164062 -16.570312 17.6875 -15.53125 C 18.21875 -14.5 18.476562 -13.25 18.46875 -11.78125 L 18.46875 0 L 14.109375 0 L 14.109375 -11.09375 C 14.109375 -12.332031 13.789062 -13.300781 13.15625 -14 C 12.519531 -14.695312 11.640625 -15.046875 10.515625 -15.046875 C 9.753906 -15.046875 9.078125 -14.878906 8.484375 -14.546875 C 7.890625 -14.210938 7.425781 -13.734375 7.09375 -13.109375 C 6.757812 -12.484375 6.59375 -11.726562 6.59375 -10.84375 Z M 6.59375 -10.84375 "/></g></g></g><g fill="#f5f5f5" fill-opacity="1"><g transform="translate(135.55063, 34.24779)"><g><path d="M 10.3125 0.359375 C 8.5 0.359375 6.929688 -0.0351562 5.609375 -0.828125 C 4.285156 -1.617188 3.257812 -2.726562 2.53125 -4.15625 C 1.800781 -5.59375 1.4375 -7.265625 1.4375 -9.171875 C 1.4375 -11.085938 1.800781 -12.757812 2.53125 -14.1875 C 3.257812 -15.625 4.285156 -16.738281 5.609375 -17.53125 C 6.929688 -18.332031 8.5 -18.734375 10.3125 -18.734375 C 12.113281 -18.734375 13.675781 -18.332031 15 -17.53125 C 16.320312 -16.738281 17.347656 -15.625 18.078125 -14.1875 C 18.804688 -12.757812 19.171875 -11.085938 19.171875 -9.171875 C 19.171875 -7.265625 18.804688 -5.59375 18.078125 -4.15625 C 17.347656 -2.726562 16.320312 -1.617188 15 -0.828125 C 13.675781 -0.0351562 12.113281 0.359375 10.3125 0.359375 Z M 10.328125 -3.125 C 11.304688 -3.125 12.125 -3.394531 12.78125 -3.9375 C 13.445312 -4.476562 13.941406 -5.207031 14.265625 -6.125 C 14.585938 -7.039062 14.75 -8.0625 14.75 -9.1875 C 14.75 -10.320312 14.585938 -11.347656 14.265625 -12.265625 C 13.941406 -13.179688 13.445312 -13.910156 12.78125 -14.453125 C 12.125 -15.003906 11.304688 -15.28125 10.328125 -15.28125 C 9.328125 -15.28125 8.492188 -15.003906 7.828125 -14.453125 C 7.171875 -13.910156 6.675781 -13.179688 6.34375 -12.265625 C 6.019531 -11.347656 5.859375 -10.320312 5.859375 -9.1875 C 5.859375 -8.0625 6.019531 -7.039062 6.34375 -6.125 C 6.675781 -5.207031 7.171875 -4.476562 7.828125 -3.9375 C 8.492188 -3.394531 9.328125 -3.125 10.328125 -3.125 Z M 10.328125 -3.125 "/></g></g></g><g fill="#f5f5f5" fill-opacity="1"><g transform="translate(156.165652, 34.24779)"><g><path d="M 18.765625 -18.5 L 12.171875 0 L 7.359375 0 L 0.765625 -18.5 L 5.421875 -18.5 L 9.671875 -4.75 L 9.859375 -4.75 L 14.125 -18.5 Z M 18.765625 -18.5 "/></g></g></g><g fill="#f5f5f5" fill-opacity="1"><g transform="translate(175.696951, 34.24779)"><g><path d="M 7.5625 0.375 C 6.382812 0.375 5.328125 0.164062 4.390625 -0.25 C 3.460938 -0.675781 2.726562 -1.300781 2.1875 -2.125 C 1.644531 -2.957031 1.375 -3.976562 1.375 -5.1875 C 1.375 -6.226562 1.566406 -7.085938 1.953125 -7.765625 C 2.335938 -8.453125 2.863281 -9 3.53125 -9.40625 C 4.195312 -9.820312 4.945312 -10.132812 5.78125 -10.34375 C 6.625 -10.5625 7.492188 -10.71875 8.390625 -10.8125 C 9.472656 -10.925781 10.351562 -11.03125 11.03125 -11.125 C 11.707031 -11.21875 12.195312 -11.359375 12.5 -11.546875 C 12.8125 -11.742188 12.96875 -12.050781 12.96875 -12.46875 L 12.96875 -12.546875 C 12.96875 -13.453125 12.695312 -14.15625 12.15625 -14.65625 C 11.625 -15.15625 10.851562 -15.40625 9.84375 -15.40625 C 8.769531 -15.40625 7.921875 -15.171875 7.296875 -14.703125 C 6.679688 -14.234375 6.265625 -13.679688 6.046875 -13.046875 L 1.96875 -13.625 C 2.289062 -14.75 2.820312 -15.691406 3.5625 -16.453125 C 4.300781 -17.210938 5.203125 -17.78125 6.265625 -18.15625 C 7.335938 -18.539062 8.519531 -18.734375 9.8125 -18.734375 C 10.707031 -18.734375 11.59375 -18.628906 12.46875 -18.421875 C 13.351562 -18.210938 14.160156 -17.867188 14.890625 -17.390625 C 15.617188 -16.910156 16.207031 -16.257812 16.65625 -15.4375 C 17.101562 -14.625 17.328125 -13.601562 17.328125 -12.375 L 17.328125 0 L 13.140625 0 L 13.140625 -2.546875 L 12.984375 -2.546875 C 12.722656 -2.023438 12.351562 -1.539062 11.875 -1.09375 C 11.394531 -0.65625 10.796875 -0.300781 10.078125 -0.03125 C 9.359375 0.238281 8.519531 0.375 7.5625 0.375 Z M 8.6875 -2.828125 C 9.5625 -2.828125 10.320312 -3 10.96875 -3.34375 C 11.613281 -3.695312 12.109375 -4.160156 12.453125 -4.734375 C 12.804688 -5.316406 12.984375 -5.953125 12.984375 -6.640625 L 12.984375 -8.8125 C 12.847656 -8.695312 12.613281 -8.59375 12.28125 -8.5 C 11.957031 -8.40625 11.59375 -8.320312 11.1875 -8.25 C 10.789062 -8.175781 10.394531 -8.109375 10 -8.046875 C 9.613281 -7.992188 9.273438 -7.945312 8.984375 -7.90625 C 8.328125 -7.820312 7.742188 -7.675781 7.234375 -7.46875 C 6.722656 -7.269531 6.316406 -6.992188 6.015625 -6.640625 C 5.722656 -6.285156 5.578125 -5.828125 5.578125 -5.265625 C 5.578125 -4.460938 5.867188 -3.851562 6.453125 -3.4375 C 7.035156 -3.03125 7.78125 -2.828125 8.6875 -2.828125 Z M 8.6875 -2.828125 "/></g></g></g><g fill="#f5f5f5" fill-opacity="1"><g transform="translate(195.180067, 34.24779)"><g><path d="M 11.46875 -18.5 L 11.46875 -15.125 L 0.84375 -15.125 L 0.84375 -18.5 Z M 3.46875 -22.921875 L 7.828125 -22.921875 L 7.828125 -5.5625 C 7.828125 -4.976562 7.914062 -4.53125 8.09375 -4.21875 C 8.28125 -3.90625 8.519531 -3.691406 8.8125 -3.578125 C 9.113281 -3.472656 9.441406 -3.421875 9.796875 -3.421875 C 10.066406 -3.421875 10.316406 -3.441406 10.546875 -3.484375 C 10.773438 -3.523438 10.953125 -3.5625 11.078125 -3.59375 L 11.8125 -0.1875 C 11.582031 -0.101562 11.25 -0.015625 10.8125 0.078125 C 10.382812 0.179688 9.863281 0.238281 9.25 0.25 C 8.15625 0.28125 7.171875 0.113281 6.296875 -0.25 C 5.421875 -0.613281 4.726562 -1.179688 4.21875 -1.953125 C 3.707031 -2.722656 3.457031 -3.6875 3.46875 -4.84375 Z M 3.46875 -22.921875 "/></g></g></g><g fill="#f5f5f5" fill-opacity="1"><g transform="translate(208.064476, 34.24779)"><g><path d="M 10.3125 0.359375 C 8.5 0.359375 6.929688 -0.0351562 5.609375 -0.828125 C 4.285156 -1.617188 3.257812 -2.726562 2.53125 -4.15625 C 1.800781 -5.59375 1.4375 -7.265625 1.4375 -9.171875 C 1.4375 -11.085938 1.800781 -12.757812 2.53125 -14.1875 C 3.257812 -15.625 4.285156 -16.738281 5.609375 -17.53125 C 6.929688 -18.332031 8.5 -18.734375 10.3125 -18.734375 C 12.113281 -18.734375 13.675781 -18.332031 15 -17.53125 C 16.320312 -16.738281 17.347656 -15.625 18.078125 -14.1875 C 18.804688 -12.757812 19.171875 -11.085938 19.171875 -9.171875 C 19.171875 -7.265625 18.804688 -5.59375 18.078125 -4.15625 C 17.347656 -2.726562 16.320312 -1.617188 15 -0.828125 C 13.675781 -0.0351562 12.113281 0.359375 10.3125 0.359375 Z M 10.328125 -3.125 C 11.304688 -3.125 12.125 -3.394531 12.78125 -3.9375 C 13.445312 -4.476562 13.941406 -5.207031 14.265625 -6.125 C 14.585938 -7.039062 14.75 -8.0625 14.75 -9.1875 C 14.75 -10.320312 14.585938 -11.347656 14.265625 -12.265625 C 13.941406 -13.179688 13.445312 -13.910156 12.78125 -14.453125 C 12.125 -15.003906 11.304688 -15.28125 10.328125 -15.28125 C 9.328125 -15.28125 8.492188 -15.003906 7.828125 -14.453125 C 7.171875 -13.910156 6.675781 -13.179688 6.34375 -12.265625 C 6.019531 -11.347656 5.859375 -10.320312 5.859375 -9.1875 C 5.859375 -8.0625 6.019531 -7.039062 6.34375 -6.125 C 6.675781 -5.207031 7.171875 -4.476562 7.828125 -3.9375 C 8.492188 -3.394531 9.328125 -3.125 10.328125 -3.125 Z M 10.328125 -3.125 "/></g></g></g><g fill="#f5f5f5" fill-opacity="1"><g transform="translate(228.679498, 34.24779)"><g><path d="M 2.234375 0 L 2.234375 -18.5 L 6.46875 -18.5 L 6.46875 -15.40625 L 6.65625 -15.40625 C 7 -16.476562 7.578125 -17.304688 8.390625 -17.890625 C 9.210938 -18.472656 10.15625 -18.765625 11.21875 -18.765625 C 11.457031 -18.765625 11.726562 -18.753906 12.03125 -18.734375 C 12.332031 -18.710938 12.582031 -18.679688 12.78125 -18.640625 L 12.78125 -14.625 C 12.601562 -14.6875 12.3125 -14.742188 11.90625 -14.796875 C 11.507812 -14.847656 11.128906 -14.875 10.765625 -14.875 C 9.972656 -14.875 9.257812 -14.703125 8.625 -14.359375 C 8 -14.023438 7.503906 -13.554688 7.140625 -12.953125 C 6.773438 -12.347656 6.59375 -11.65625 6.59375 -10.875 L 6.59375 0 Z M 2.234375 0 "/></g></g></g><g fill="#f5f5f5" fill-opacity="1"><g transform="translate(68.739167, 70.276339)"><g><path d="M 5.59375 0 L 0.828125 0 L 9.515625 -24.65625 L 15.03125 -24.65625 L 23.71875 0 L 18.953125 0 L 12.359375 -19.609375 L 12.171875 -19.609375 Z M 5.75 -9.671875 L 18.765625 -9.671875 L 18.765625 -6.078125 L 5.75 -6.078125 Z M 5.75 -9.671875 "/></g></g></g><g fill="#f5f5f5" fill-opacity="1"><g transform="translate(93.27971, 70.276339)"><g><path d="M 6.0625 0 L 0.828125 -18.5 L 5.28125 -18.5 L 8.53125 -5.484375 L 8.6875 -5.484375 L 12.015625 -18.5 L 16.40625 -18.5 L 19.734375 -5.5625 L 19.921875 -5.5625 L 23.125 -18.5 L 27.578125 -18.5 L 22.328125 0 L 17.796875 0 L 14.328125 -12.5 L 14.078125 -12.5 L 10.609375 0 Z M 6.0625 0 "/></g></g></g><g fill="#f5f5f5" fill-opacity="1"><g transform="translate(121.67353, 70.276339)"><g><path d="M 7.5625 0.375 C 6.382812 0.375 5.328125 0.164062 4.390625 -0.25 C 3.460938 -0.675781 2.726562 -1.300781 2.1875 -2.125 C 1.644531 -2.957031 1.375 -3.976562 1.375 -5.1875 C 1.375 -6.226562 1.566406 -7.085938 1.953125 -7.765625 C 2.335938 -8.453125 2.863281 -9 3.53125 -9.40625 C 4.195312 -9.820312 4.945312 -10.132812 5.78125 -10.34375 C 6.625 -10.5625 7.492188 -10.71875 8.390625 -10.8125 C 9.472656 -10.925781 10.351562 -11.03125 11.03125 -11.125 C 11.707031 -11.21875 12.195312 -11.359375 12.5 -11.546875 C 12.8125 -11.742188 12.96875 -12.050781 12.96875 -12.46875 L 12.96875 -12.546875 C 12.96875 -13.453125 12.695312 -14.15625 12.15625 -14.65625 C 11.625 -15.15625 10.851562 -15.40625 9.84375 -15.40625 C 8.769531 -15.40625 7.921875 -15.171875 7.296875 -14.703125 C 6.679688 -14.234375 6.265625 -13.679688 6.046875 -13.046875 L 1.96875 -13.625 C 2.289062 -14.75 2.820312 -15.691406 3.5625 -16.453125 C 4.300781 -17.210938 5.203125 -17.78125 6.265625 -18.15625 C 7.335938 -18.539062 8.519531 -18.734375 9.8125 -18.734375 C 10.707031 -18.734375 11.59375 -18.628906 12.46875 -18.421875 C 13.351562 -18.210938 14.160156 -17.867188 14.890625 -17.390625 C 15.617188 -16.910156 16.207031 -16.257812 16.65625 -15.4375 C 17.101562 -14.625 17.328125 -13.601562 17.328125 -12.375 L 17.328125 0 L 13.140625 0 L 13.140625 -2.546875 L 12.984375 -2.546875 C 12.722656 -2.023438 12.351562 -1.539062 11.875 -1.09375 C 11.394531 -0.65625 10.796875 -0.300781 10.078125 -0.03125 C 9.359375 0.238281 8.519531 0.375 7.5625 0.375 Z M 8.6875 -2.828125 C 9.5625 -2.828125 10.320312 -3 10.96875 -3.34375 C 11.613281 -3.695312 12.109375 -4.160156 12.453125 -4.734375 C 12.804688 -5.316406 12.984375 -5.953125 12.984375 -6.640625 L 12.984375 -8.8125 C 12.847656 -8.695312 12.613281 -8.59375 12.28125 -8.5 C 11.957031 -8.40625 11.59375 -8.320312 11.1875 -8.25 C 10.789062 -8.175781 10.394531 -8.109375 10 -8.046875 C 9.613281 -7.992188 9.273438 -7.945312 8.984375 -7.90625 C 8.328125 -7.820312 7.742188 -7.675781 7.234375 -7.46875 C 6.722656 -7.269531 6.316406 -6.992188 6.015625 -6.640625 C 5.722656 -6.285156 5.578125 -5.828125 5.578125 -5.265625 C 5.578125 -4.460938 5.867188 -3.851562 6.453125 -3.4375 C 7.035156 -3.03125 7.78125 -2.828125 8.6875 -2.828125 Z M 8.6875 -2.828125 "/></g></g></g><g fill="#f5f5f5" fill-opacity="1"><g transform="translate(141.156645, 70.276339)"><g><path d="M 2.234375 0 L 2.234375 -18.5 L 6.46875 -18.5 L 6.46875 -15.40625 L 6.65625 -15.40625 C 7 -16.476562 7.578125 -17.304688 8.390625 -17.890625 C 9.210938 -18.472656 10.15625 -18.765625 11.21875 -18.765625 C 11.457031 -18.765625 11.726562 -18.753906 12.03125 -18.734375 C 12.332031 -18.710938 12.582031 -18.679688 12.78125 -18.640625 L 12.78125 -14.625 C 12.601562 -14.6875 12.3125 -14.742188 11.90625 -14.796875 C 11.507812 -14.847656 11.128906 -14.875 10.765625 -14.875 C 9.972656 -14.875 9.257812 -14.703125 8.625 -14.359375 C 8 -14.023438 7.503906 -13.554688 7.140625 -12.953125 C 6.773438 -12.347656 6.59375 -11.65625 6.59375 -10.875 L 6.59375 0 Z M 2.234375 0 "/></g></g></g><g fill="#f5f5f5" fill-opacity="1"><g transform="translate(154.606975, 70.276339)"><g><path d="M 9.109375 0.328125 C 7.648438 0.328125 6.347656 -0.046875 5.203125 -0.796875 C 4.054688 -1.546875 3.148438 -2.628906 2.484375 -4.046875 C 1.816406 -5.460938 1.484375 -7.1875 1.484375 -9.21875 C 1.484375 -11.28125 1.820312 -13.019531 2.5 -14.4375 C 3.175781 -15.851562 4.09375 -16.921875 5.25 -17.640625 C 6.40625 -18.367188 7.691406 -18.734375 9.109375 -18.734375 C 10.191406 -18.734375 11.082031 -18.550781 11.78125 -18.1875 C 12.476562 -17.820312 13.03125 -17.382812 13.4375 -16.875 C 13.851562 -16.363281 14.175781 -15.882812 14.40625 -15.4375 L 14.578125 -15.4375 L 14.578125 -24.65625 L 18.953125 -24.65625 L 18.953125 0 L 14.671875 0 L 14.671875 -2.90625 L 14.40625 -2.90625 C 14.175781 -2.457031 13.847656 -1.984375 13.421875 -1.484375 C 12.992188 -0.984375 12.429688 -0.554688 11.734375 -0.203125 C 11.035156 0.148438 10.160156 0.328125 9.109375 0.328125 Z M 10.3125 -3.25 C 11.238281 -3.25 12.023438 -3.5 12.671875 -4 C 13.328125 -4.5 13.820312 -5.195312 14.15625 -6.09375 C 14.5 -7 14.671875 -8.050781 14.671875 -9.25 C 14.671875 -10.445312 14.503906 -11.484375 14.171875 -12.359375 C 13.835938 -13.242188 13.347656 -13.929688 12.703125 -14.421875 C 12.054688 -14.910156 11.257812 -15.15625 10.3125 -15.15625 C 9.34375 -15.15625 8.53125 -14.898438 7.875 -14.390625 C 7.226562 -13.890625 6.738281 -13.191406 6.40625 -12.296875 C 6.082031 -11.410156 5.921875 -10.394531 5.921875 -9.25 C 5.921875 -8.09375 6.085938 -7.0625 6.421875 -6.15625 C 6.753906 -5.25 7.25 -4.535156 7.90625 -4.015625 C 8.5625 -3.503906 9.363281 -3.25 10.3125 -3.25 Z M 10.3125 -3.25 "/></g></g></g></g></g></svg>