<svg xmlns="http://www.w3.org/2000/svg" xmlns:xlink="http://www.w3.org/1999/xlink" width="537" zoomAndPan="magnify" viewBox="0 0 402.96 198.95999" height="255" preserveAspectRatio="xMidYMid meet" version="1.0"><defs><g/><clipPath id="4891fa1ad7"><path d="M 0.0195312 0 L 402.691406 0 L 402.691406 191.210938 L 0.0195312 191.210938 Z M 0.0195312 0 " clip-rule="nonzero"/></clipPath><clipPath id="23038f4665"><path d="M 0.261719 0 L 72.078125 0 L 72.078125 190.738281 L 0.261719 190.738281 Z M 0.261719 0 " clip-rule="nonzero"/></clipPath><clipPath id="7cbc121fc4"><path d="M 330.84375 0 L 402.179688 0 L 402.179688 190.738281 L 330.84375 190.738281 Z M 330.84375 0 " clip-rule="nonzero"/></clipPath><clipPath id="e428dc85a6"><path d="M 0.84375 0 L 72.179688 0 L 72.179688 190.738281 L 0.84375 190.738281 Z M 0.84375 0 " clip-rule="nonzero"/></clipPath><clipPath id="a963231709"><rect x="0" width="73" y="0" height="191"/></clipPath><clipPath id="de722eb8e8"><rect x="0" width="403" y="0" height="192"/></clipPath></defs><g clip-path="url(#4891fa1ad7)"><g><g clip-path="url(#de722eb8e8)"><g clip-path="url(#23038f4665)"><path fill="#f5f5f5" d="M 260.90625 115.773438 L 261.0625 115.773438 L 261.0625 115.929688 C 260.683594 120.519531 258.597656 124.726562 255.179688 127.828125 C 251.761719 130.894531 247.332031 132.542969 242.742188 132.445312 L 242.710938 132.445312 C 241.636719 135.863281 240.402344 139.28125 238.980469 142.636719 C 240.210938 140.988281 241.699219 139.628906 243.441406 138.488281 C 247.300781 135.992188 251.917969 135.042969 256.445312 135.863281 L 256.601562 135.894531 L 256.570312 136.054688 C 255.496094 140.515625 252.773438 144.375 248.914062 146.875 C 245.054688 149.375 240.433594 150.324219 235.910156 149.5 L 235.878906 149.5 C 235.6875 149.914062 235.464844 150.292969 235.277344 150.703125 C 233.851562 153.488281 232.269531 156.273438 230.53125 159.054688 C 232.019531 157.601562 233.757812 156.429688 235.65625 155.609375 C 239.863281 153.742188 244.546875 153.550781 248.914062 155.070312 L 249.039062 155.132812 L 248.976562 155.257812 C 247.207031 159.5 243.914062 162.886719 239.707031 164.75 C 235.5 166.617188 230.816406 166.808594 226.449219 165.289062 L 226.386719 165.257812 C 224.265625 168.230469 221.988281 171.144531 219.613281 173.894531 C 221.324219 172.695312 223.222656 171.777344 225.246094 171.238281 C 229.675781 170.035156 234.359375 170.574219 238.410156 172.757812 L 238.535156 172.820312 L 238.472656 172.945312 C 236.035156 176.871094 232.269531 179.6875 227.839844 180.855469 C 223.410156 182.058594 218.730469 181.519531 214.679688 179.335938 L 214.617188 179.304688 C 210.40625 183.609375 205.882812 187.5625 201.167969 191.109375 L 201.042969 191.203125 L 199.585938 189.273438 L 199.714844 189.179688 C 204.332031 185.699219 208.699219 181.867188 212.75 177.722656 C 209.871094 174.179688 208.445312 169.71875 208.761719 165.164062 C 209.078125 160.574219 211.105469 156.335938 214.488281 153.203125 L 214.585938 153.109375 L 214.679688 153.234375 C 217.589844 156.808594 219.015625 161.269531 218.699219 165.859375 C 218.476562 168.960938 217.464844 171.902344 215.785156 174.464844 C 218.824219 171.113281 221.671875 167.597656 224.265625 163.929688 C 220.878906 160.859375 218.761719 156.683594 218.382812 152.160156 C 217.96875 147.570312 219.332031 143.078125 222.179688 139.4375 L 222.273438 139.3125 L 222.367188 139.40625 C 225.816406 142.476562 227.9375 146.683594 228.316406 151.242188 C 228.601562 154.40625 228.03125 157.507812 226.734375 160.320312 C 229.042969 156.839844 231.132812 153.234375 233.03125 149.53125 C 233.1875 149.183594 233.347656 148.867188 233.535156 148.519531 C 229.707031 146.050781 226.957031 142.222656 225.847656 137.792969 C 224.742188 133.332031 225.34375 128.648438 227.589844 124.664062 L 227.652344 124.535156 L 227.777344 124.632812 C 231.636719 127.132812 234.390625 130.929688 235.53125 135.390625 C 236.289062 138.488281 236.226562 141.6875 235.339844 144.691406 C 237.238281 140.484375 238.882812 136.210938 240.246094 131.878906 C 236.066406 130.011719 232.746094 126.6875 230.972656 122.480469 C 229.171875 118.238281 229.074219 113.527344 230.65625 109.222656 L 230.722656 109.097656 L 230.847656 109.160156 C 235.054688 110.996094 238.378906 114.347656 240.179688 118.589844 C 241.445312 121.5625 241.859375 124.757812 241.445312 127.921875 C 242.679688 123.492188 243.628906 118.96875 244.292969 114.378906 C 239.863281 113.210938 236.101562 110.425781 233.664062 106.566406 C 231.226562 102.671875 230.371094 98.023438 231.257812 93.527344 L 231.289062 93.371094 L 231.449219 93.402344 C 235.910156 94.574219 239.707031 97.359375 242.144531 101.25 C 243.789062 103.875 244.707031 106.882812 244.832031 109.917969 C 245.273438 105.835938 245.496094 101.691406 245.496094 97.546875 C 245.496094 97.292969 245.496094 97.042969 245.496094 96.789062 L 245.496094 96.441406 C 240.972656 95.964844 236.828125 93.8125 233.851562 90.363281 C 230.816406 86.882812 229.265625 82.453125 229.457031 77.867188 L 229.457031 77.707031 L 229.613281 77.707031 C 234.203125 78.152344 238.378906 80.335938 241.382812 83.785156 C 243.375 86.09375 244.738281 88.78125 245.371094 91.726562 C 245.148438 87.265625 244.675781 82.867188 243.945312 78.5 C 243.628906 78.53125 243.28125 78.53125 242.964844 78.53125 C 238.757812 78.53125 234.707031 77.074219 231.449219 74.355469 C 227.9375 71.414062 225.691406 67.265625 225.152344 62.679688 L 225.121094 62.519531 L 225.277344 62.519531 C 229.867188 62.269531 234.359375 63.722656 237.871094 66.699219 C 240.277344 68.722656 242.078125 71.316406 243.15625 74.195312 C 242.238281 69.734375 241.066406 65.367188 239.613281 61.066406 C 238.347656 61.351562 237.082031 61.476562 235.816406 61.476562 C 232.585938 61.476562 229.421875 60.621094 226.574219 58.914062 C 222.621094 56.542969 219.773438 52.808594 218.539062 48.378906 L 218.507812 48.25 L 218.664062 48.21875 C 223.160156 47.238281 227.808594 48 231.765625 50.371094 C 234.453125 51.984375 236.636719 54.261719 238.15625 56.953125 C 236.542969 52.746094 234.707031 48.601562 232.585938 44.550781 C 228.316406 46.195312 223.664062 46.164062 219.425781 44.453125 C 215.152344 42.746094 211.738281 39.488281 209.839844 35.3125 L 209.773438 35.183594 L 209.902344 35.121094 C 214.171875 33.445312 218.886719 33.476562 223.160156 35.183594 C 225.976562 36.324219 228.378906 38.09375 230.277344 40.40625 C 228.03125 36.542969 225.59375 32.84375 223 29.332031 C 219.046875 31.609375 214.457031 32.273438 210.027344 31.261719 C 205.535156 30.214844 201.675781 27.558594 199.113281 23.730469 L 199.015625 23.605469 L 199.144531 23.539062 C 203.128906 21.230469 207.78125 20.503906 212.242188 21.546875 C 215.089844 22.210938 217.714844 23.539062 219.929688 25.4375 C 218.253906 23.382812 216.484375 21.355469 214.710938 19.457031 C 209.964844 19.078125 205.660156 17.148438 202.246094 13.890625 C 198.480469 10.28125 196.265625 5.441406 196.011719 0.222656 L 196.011719 0.0625 L 196.167969 0.0625 C 201.390625 0.09375 206.324219 2.121094 210.089844 5.726562 C 213.382812 8.890625 215.46875 12.910156 216.132812 17.402344 C 217.589844 18.953125 219.046875 20.566406 220.46875 22.242188 C 219.457031 20.28125 218.824219 18.160156 218.570312 15.945312 C 218.097656 11.390625 219.363281 6.835938 222.144531 3.164062 L 222.242188 3.039062 L 222.367188 3.132812 C 225.878906 6.136719 228.0625 10.316406 228.539062 14.871094 C 229.011719 19.425781 227.746094 23.984375 224.960938 27.652344 L 224.898438 27.75 C 227.082031 30.691406 229.171875 33.761719 231.101562 36.894531 C 230.46875 34.867188 230.183594 32.746094 230.308594 30.628906 C 230.53125 26.039062 232.492188 21.738281 235.847656 18.574219 L 235.941406 18.476562 L 236.035156 18.605469 C 239.011719 22.117188 240.53125 26.578125 240.277344 31.164062 C 240.054688 35.753906 238.09375 40.023438 234.769531 43.222656 L 234.707031 43.285156 C 236.417969 46.511719 237.964844 49.832031 239.328125 53.15625 C 239.042969 51.097656 239.105469 49.042969 239.546875 47.019531 C 240.496094 42.523438 243.09375 38.601562 246.890625 35.976562 L 247.015625 35.878906 L 247.078125 36.007812 C 249.484375 39.929688 250.273438 44.582031 249.324219 49.074219 C 248.375 53.566406 245.78125 57.492188 241.984375 60.117188 L 241.953125 60.148438 C 243.125 63.597656 244.105469 67.140625 244.957031 70.714844 C 244.992188 68.628906 245.371094 66.570312 246.128906 64.609375 C 247.773438 60.304688 250.96875 56.859375 255.117188 54.863281 L 255.242188 54.800781 L 255.304688 54.929688 C 257.046875 59.199219 257.109375 63.882812 255.464844 68.183594 C 253.816406 72.488281 250.621094 75.9375 246.476562 77.929688 L 246.414062 77.960938 C 247.015625 81.570312 247.457031 85.269531 247.710938 88.972656 C 248.058594 86.851562 248.789062 84.859375 249.832031 82.992188 C 252.109375 79.007812 255.8125 76.09375 260.210938 74.765625 L 260.335938 74.734375 L 260.367188 74.894531 C 261.445312 79.386719 260.746094 84.035156 258.46875 88.023438 C 256.191406 92.011719 252.488281 94.921875 248.089844 96.25 L 247.996094 96.28125 C 247.996094 96.757812 247.996094 97.167969 247.996094 97.578125 C 247.996094 100.773438 247.871094 104.035156 247.585938 107.292969 C 248.25 105.300781 249.261719 103.433594 250.589844 101.789062 C 253.46875 98.210938 257.582031 95.902344 262.140625 95.269531 L 262.296875 95.238281 L 262.296875 95.394531 C 262.644531 99.984375 261.253906 104.476562 258.34375 108.050781 C 255.464844 111.628906 251.351562 113.9375 246.792969 114.570312 L 246.730469 114.570312 C 246.222656 118.144531 245.527344 121.71875 244.675781 125.234375 C 245.65625 123.429688 246.921875 121.816406 248.4375 120.421875 C 251.761719 117.449219 256 115.804688 260.460938 115.804688 C 260.621094 115.773438 260.777344 115.773438 260.90625 115.773438 Z M 52.648438 5.664062 C 49.359375 8.828125 47.269531 12.847656 46.605469 17.339844 C 45.148438 18.890625 43.695312 20.503906 42.269531 22.179688 C 43.28125 20.21875 43.914062 18.097656 44.167969 15.882812 C 44.644531 11.328125 43.378906 6.769531 40.59375 3.101562 L 40.5 2.972656 L 40.371094 3.070312 C 36.890625 6.074219 34.675781 10.25 34.203125 14.808594 C 33.726562 19.363281 34.992188 23.921875 37.777344 27.589844 L 37.839844 27.683594 C 35.65625 30.628906 33.570312 33.695312 31.640625 36.828125 C 32.273438 34.804688 32.558594 32.683594 32.429688 30.566406 C 32.207031 25.976562 30.246094 21.707031 26.925781 18.507812 L 26.828125 18.414062 L 26.734375 18.542969 C 23.761719 22.054688 22.242188 26.515625 22.496094 31.101562 C 22.714844 35.691406 24.679688 39.960938 28 43.15625 L 28.0625 43.222656 C 26.355469 46.449219 24.804688 49.769531 23.445312 53.09375 C 23.730469 51.035156 23.664062 48.980469 23.222656 46.953125 C 22.273438 42.460938 19.679688 38.539062 15.882812 35.910156 L 15.753906 35.816406 L 15.691406 35.945312 C 13.289062 39.867188 12.496094 44.519531 13.445312 49.011719 C 14.394531 53.503906 16.988281 57.425781 20.785156 60.054688 L 20.816406 60.085938 C 19.648438 63.535156 18.667969 67.078125 17.8125 70.652344 C 17.78125 68.566406 17.402344 66.507812 16.640625 64.546875 C 14.996094 60.242188 11.800781 56.792969 7.65625 54.800781 L 7.527344 54.738281 L 7.464844 54.863281 C 5.726562 59.105469 5.664062 63.820312 7.308594 68.121094 C 8.953125 72.425781 12.148438 75.875 16.292969 77.867188 L 16.355469 77.898438 C 15.753906 81.503906 15.3125 85.207031 15.058594 88.910156 C 14.710938 86.789062 13.984375 84.796875 12.941406 82.929688 C 10.660156 78.941406 6.960938 76.03125 2.5625 74.703125 L 2.433594 74.671875 L 2.402344 74.828125 C 1.328125 79.324219 2.023438 83.972656 4.300781 87.960938 C 6.578125 91.945312 10.28125 94.859375 14.679688 96.1875 L 14.773438 96.21875 C 14.773438 96.691406 14.773438 97.105469 14.773438 97.515625 C 14.773438 100.710938 14.902344 103.96875 15.1875 107.230469 C 14.523438 105.203125 13.507812 103.371094 12.179688 101.722656 C 9.269531 98.148438 5.1875 95.839844 0.632812 95.238281 L 0.472656 95.207031 L 0.472656 95.363281 C 0.125 99.953125 1.519531 104.445312 4.429688 108.019531 C 7.308594 111.597656 11.421875 113.90625 15.976562 114.539062 L 16.039062 114.539062 C 16.546875 118.113281 17.242188 121.6875 18.097656 125.199219 C 17.117188 123.398438 15.851562 121.785156 14.332031 120.390625 C 10.914062 117.324219 6.515625 115.644531 1.898438 115.773438 L 1.738281 115.773438 L 1.738281 115.929688 C 2.117188 120.519531 4.207031 124.726562 7.625 127.828125 C 11.042969 130.894531 15.4375 132.542969 20.058594 132.445312 L 20.089844 132.445312 C 21.167969 135.863281 22.398438 139.28125 23.824219 142.636719 C 22.589844 140.988281 21.070312 139.628906 19.363281 138.488281 C 15.503906 135.992188 10.882812 135.042969 6.359375 135.863281 L 6.199219 135.894531 L 6.230469 136.054688 C 7.308594 140.515625 10.027344 144.375 13.890625 146.875 C 17.75 149.375 22.367188 150.324219 26.894531 149.5 L 26.925781 149.5 C 27.113281 149.914062 27.304688 150.292969 27.527344 150.703125 C 28.949219 153.488281 30.53125 156.304688 32.273438 159.054688 C 30.785156 157.601562 29.042969 156.429688 27.144531 155.609375 C 22.9375 153.742188 18.253906 153.550781 13.890625 155.070312 L 13.761719 155.132812 L 13.824219 155.257812 C 15.597656 159.5 18.886719 162.886719 23.097656 164.75 C 27.304688 166.617188 31.988281 166.808594 36.355469 165.289062 L 36.417969 165.257812 C 38.535156 168.230469 40.816406 171.144531 43.1875 173.894531 C 41.480469 172.695312 39.582031 171.777344 37.554688 171.238281 C 33.125 170.035156 28.445312 170.574219 24.394531 172.757812 L 24.265625 172.820312 L 24.332031 172.945312 C 26.765625 176.871094 30.53125 179.6875 34.960938 180.855469 C 39.390625 182.058594 44.074219 181.519531 48.125 179.335938 L 48.1875 179.304688 C 52.394531 183.609375 56.921875 187.597656 61.632812 191.109375 L 61.761719 191.203125 L 63.214844 189.273438 L 63.089844 189.179688 C 58.46875 185.699219 54.105469 181.867188 50.054688 177.722656 C 52.933594 174.179688 54.355469 169.71875 54.039062 165.164062 C 53.722656 160.574219 51.699219 156.335938 48.3125 153.203125 L 48.21875 153.109375 L 48.125 153.234375 C 45.214844 156.808594 43.757812 161.269531 44.105469 165.859375 C 44.328125 168.960938 45.339844 171.902344 47.015625 174.464844 C 43.980469 171.113281 41.132812 167.597656 38.503906 163.929688 C 41.890625 160.859375 44.011719 156.683594 44.390625 152.160156 C 44.800781 147.570312 43.441406 143.078125 40.59375 139.4375 L 40.5 139.3125 L 40.402344 139.40625 C 36.953125 142.476562 34.835938 146.683594 34.457031 151.242188 C 34.171875 154.40625 34.738281 157.507812 36.039062 160.320312 C 33.726562 156.839844 31.640625 153.234375 29.742188 149.53125 C 29.582031 149.183594 29.425781 148.867188 29.234375 148.519531 C 33.0625 146.050781 35.816406 142.222656 36.921875 137.792969 C 38.03125 133.332031 37.429688 128.679688 35.152344 124.664062 L 35.089844 124.535156 L 34.960938 124.632812 C 31.101562 127.132812 28.347656 130.929688 27.210938 135.390625 C 26.449219 138.488281 26.511719 141.6875 27.367188 144.691406 C 25.46875 140.484375 23.824219 136.210938 22.464844 131.878906 C 26.640625 130.011719 29.960938 126.6875 31.734375 122.480469 C 33.539062 118.238281 33.632812 113.527344 32.050781 109.222656 L 31.988281 109.097656 L 31.859375 109.160156 C 27.652344 110.996094 24.332031 114.347656 22.527344 118.589844 C 21.261719 121.5625 20.851562 124.757812 21.261719 127.890625 C 20.027344 123.460938 19.078125 118.9375 18.414062 114.347656 C 22.84375 113.179688 26.609375 110.394531 29.042969 106.535156 C 31.480469 102.640625 32.335938 97.992188 31.417969 93.496094 L 31.417969 93.339844 L 31.257812 93.371094 C 26.796875 94.542969 23 97.324219 20.566406 101.21875 C 18.917969 103.84375 18.003906 106.851562 17.875 109.886719 C 17.433594 105.804688 17.210938 101.691406 17.210938 97.515625 C 17.210938 97.261719 17.210938 97.007812 17.210938 96.757812 L 17.210938 96.410156 C 21.734375 95.933594 25.878906 93.78125 28.886719 90.332031 C 31.890625 86.851562 33.472656 82.421875 33.285156 77.835938 L 33.285156 77.675781 L 33.125 77.675781 C 28.539062 78.121094 24.363281 80.304688 21.355469 83.753906 C 19.363281 86.0625 18.003906 88.75 17.371094 91.695312 C 17.589844 87.234375 18.066406 82.835938 18.792969 78.46875 C 19.109375 78.5 19.425781 78.5 19.773438 78.5 C 23.980469 78.5 28.03125 77.042969 31.292969 74.324219 C 34.804688 71.378906 37.050781 67.234375 37.585938 62.648438 L 37.621094 62.488281 L 37.460938 62.488281 C 32.875 62.238281 28.378906 63.691406 24.867188 66.667969 C 22.464844 68.691406 20.660156 71.285156 19.585938 74.164062 C 20.5 69.703125 21.671875 65.335938 23.128906 61.035156 C 24.394531 61.320312 25.660156 61.445312 26.925781 61.445312 C 30.152344 61.445312 33.316406 60.589844 36.164062 58.882812 C 40.117188 56.511719 42.964844 52.777344 44.199219 48.347656 L 44.230469 48.21875 L 44.074219 48.1875 C 39.582031 47.207031 34.929688 47.96875 30.976562 50.339844 C 28.285156 51.953125 26.101562 54.230469 24.582031 56.953125 C 26.195312 52.714844 28.03125 48.601562 30.152344 44.550781 C 34.421875 46.195312 39.074219 46.164062 43.316406 44.453125 C 47.585938 42.746094 51.003906 39.488281 52.902344 35.3125 L 52.964844 35.183594 L 52.839844 35.121094 C 48.566406 33.445312 43.851562 33.476562 39.582031 35.183594 C 36.765625 36.324219 34.359375 38.09375 32.460938 40.40625 C 34.675781 36.542969 37.144531 32.84375 39.738281 29.332031 C 43.695312 31.609375 48.28125 32.273438 52.710938 31.261719 C 57.203125 30.214844 61.066406 27.558594 63.628906 23.730469 L 63.722656 23.605469 L 63.597656 23.539062 C 59.609375 21.230469 54.957031 20.503906 50.496094 21.546875 C 47.648438 22.210938 45.023438 23.539062 42.808594 25.46875 C 44.484375 23.414062 46.257812 21.390625 48.027344 19.492188 C 52.773438 19.109375 57.078125 17.179688 60.496094 13.921875 C 64.261719 10.316406 66.476562 5.472656 66.726562 0.253906 L 66.726562 0.09375 L 66.539062 0 C 61.347656 0.03125 56.382812 2.054688 52.648438 5.664062 Z M 52.648438 5.664062 " fill-opacity="1" fill-rule="nonzero"/></g><g clip-path="url(#7cbc121fc4)"><g transform="matrix(1, 0, 0, 1, 330, 0)"><g clip-path="url(#a963231709)"><g clip-path="url(#e428dc85a6)"><path fill="#f5f5f5" d="M -188.316406 115.773438 L -188.476562 115.773438 L -188.476562 115.929688 C -188.09375 120.519531 -186.007812 124.726562 -182.589844 127.828125 C -179.171875 130.894531 -174.742188 132.542969 -170.15625 132.445312 L -170.125 132.445312 C -169.046875 135.863281 -167.8125 139.28125 -166.390625 142.636719 C -167.625 140.988281 -169.109375 139.628906 -170.851562 138.488281 C -174.710938 135.992188 -179.332031 135.042969 -183.855469 135.863281 L -184.011719 135.894531 L -183.980469 136.054688 C -182.90625 140.515625 -180.183594 144.375 -176.324219 146.875 C -172.464844 149.375 -167.84375 150.324219 -163.320312 149.5 L -163.289062 149.5 C -163.097656 149.914062 -162.878906 150.292969 -162.6875 150.703125 C -161.265625 153.488281 -159.683594 156.273438 -157.941406 159.054688 C -159.429688 157.601562 -161.167969 156.429688 -163.066406 155.609375 C -167.277344 153.742188 -171.957031 153.550781 -176.324219 155.070312 L -176.453125 155.132812 L -176.386719 155.257812 C -174.617188 159.5 -171.324219 162.886719 -167.117188 164.75 C -162.910156 166.617188 -158.226562 166.808594 -153.859375 165.289062 L -153.796875 165.257812 C -151.675781 168.230469 -149.398438 171.144531 -147.027344 173.894531 C -148.734375 172.695312 -150.632812 171.777344 -152.65625 171.238281 C -157.085938 170.035156 -161.769531 170.574219 -165.820312 172.757812 L -165.945312 172.820312 L -165.882812 172.945312 C -163.445312 176.871094 -159.683594 179.6875 -155.253906 180.855469 C -150.824219 182.058594 -146.140625 181.519531 -142.089844 179.335938 L -142.027344 179.304688 C -137.820312 183.609375 -133.292969 187.5625 -128.578125 191.109375 L -128.453125 191.203125 L -126.996094 189.273438 L -127.125 189.179688 C -131.742188 185.699219 -136.109375 181.867188 -140.160156 177.722656 C -137.28125 174.179688 -135.855469 169.71875 -136.171875 165.164062 C -136.488281 160.574219 -138.515625 156.335938 -141.898438 153.203125 L -141.996094 153.109375 L -142.089844 153.234375 C -145 156.808594 -146.425781 161.269531 -146.109375 165.859375 C -145.886719 168.960938 -144.875 171.902344 -143.195312 174.464844 C -146.234375 171.113281 -149.082031 167.597656 -151.675781 163.929688 C -148.292969 160.859375 -146.171875 156.683594 -145.792969 152.160156 C -145.378906 147.570312 -146.742188 143.078125 -149.589844 139.4375 L -149.683594 139.3125 L -149.777344 139.40625 C -153.226562 142.476562 -155.347656 146.683594 -155.726562 151.242188 C -156.011719 154.40625 -155.441406 157.507812 -154.144531 160.320312 C -156.453125 156.839844 -158.542969 153.234375 -160.441406 149.53125 C -160.597656 149.183594 -160.757812 148.867188 -160.949219 148.519531 C -157.117188 146.050781 -154.367188 142.222656 -153.257812 137.792969 C -152.152344 133.332031 -152.753906 128.648438 -155 124.664062 L -155.0625 124.535156 L -155.1875 124.632812 C -159.050781 127.132812 -161.800781 130.929688 -162.941406 135.390625 C -163.699219 138.488281 -163.636719 141.6875 -162.75 144.691406 C -164.648438 140.484375 -166.292969 136.210938 -167.65625 131.878906 C -163.480469 130.011719 -160.15625 126.6875 -158.382812 122.480469 C -156.582031 118.238281 -156.484375 113.527344 -158.066406 109.222656 L -158.132812 109.097656 L -158.257812 109.160156 C -162.464844 110.996094 -165.789062 114.347656 -167.59375 118.589844 C -168.859375 121.5625 -169.269531 124.757812 -168.859375 127.921875 C -170.089844 123.492188 -171.039062 118.96875 -171.707031 114.378906 C -167.277344 113.210938 -163.511719 110.425781 -161.074219 106.566406 C -158.636719 102.671875 -157.785156 98.023438 -158.667969 93.527344 L -158.699219 93.371094 L -158.859375 93.402344 C -163.320312 94.574219 -167.117188 97.359375 -169.554688 101.25 C -171.199219 103.875 -172.117188 106.882812 -172.242188 109.917969 C -172.6875 105.835938 -172.90625 101.691406 -172.90625 97.546875 C -172.90625 97.292969 -172.90625 97.042969 -172.90625 96.789062 L -172.90625 96.441406 C -168.382812 95.964844 -164.238281 93.8125 -161.265625 90.363281 C -158.226562 86.882812 -156.675781 82.453125 -156.867188 77.867188 L -156.867188 77.707031 L -157.023438 77.707031 C -161.613281 78.152344 -165.789062 80.335938 -168.792969 83.785156 C -170.789062 86.09375 -172.148438 88.78125 -172.78125 91.726562 C -172.558594 87.265625 -172.085938 82.867188 -171.355469 78.5 C -171.039062 78.53125 -170.691406 78.53125 -170.375 78.53125 C -166.167969 78.53125 -162.117188 77.074219 -158.859375 74.355469 C -155.347656 71.414062 -153.101562 67.265625 -152.5625 62.679688 L -152.53125 62.519531 L -152.6875 62.519531 C -157.277344 62.269531 -161.769531 63.722656 -165.28125 66.699219 C -167.6875 68.722656 -169.492188 71.316406 -170.566406 74.195312 C -169.648438 69.734375 -168.476562 65.367188 -167.023438 61.066406 C -165.757812 61.351562 -164.492188 61.476562 -163.226562 61.476562 C -160 61.476562 -156.835938 60.621094 -153.988281 58.914062 C -150.03125 56.542969 -147.183594 52.808594 -145.949219 48.378906 L -145.917969 48.25 L -146.078125 48.21875 C -150.570312 47.238281 -155.21875 48 -159.175781 50.371094 C -161.863281 51.984375 -164.046875 54.261719 -165.566406 56.953125 C -163.953125 52.746094 -162.117188 48.601562 -160 44.550781 C -155.726562 46.195312 -151.074219 46.164062 -146.835938 44.453125 C -142.566406 42.746094 -139.148438 39.488281 -137.25 35.3125 L -137.1875 35.183594 L -137.3125 35.121094 C -141.582031 33.445312 -146.296875 33.476562 -150.570312 35.183594 C -153.386719 36.324219 -155.789062 38.09375 -157.6875 40.40625 C -155.441406 36.542969 -153.003906 32.84375 -150.410156 29.332031 C -146.457031 31.609375 -141.867188 32.273438 -137.4375 31.261719 C -132.945312 30.214844 -129.085938 27.558594 -126.523438 23.730469 L -126.429688 23.605469 L -126.554688 23.539062 C -130.542969 21.230469 -135.191406 20.503906 -139.652344 21.546875 C -142.5 22.210938 -145.128906 23.539062 -147.34375 25.4375 C -145.664062 23.382812 -143.894531 21.355469 -142.121094 19.457031 C -137.375 19.078125 -133.074219 17.148438 -129.65625 13.890625 C -125.890625 10.28125 -123.675781 5.441406 -123.421875 0.222656 L -123.421875 0.0625 L -123.582031 0.0625 C -128.800781 0.09375 -133.738281 2.121094 -137.503906 5.726562 C -140.792969 8.890625 -142.882812 12.910156 -143.546875 17.402344 C -145 18.953125 -146.457031 20.566406 -147.878906 22.242188 C -146.867188 20.28125 -146.234375 18.160156 -145.980469 15.945312 C -145.507812 11.390625 -146.773438 6.835938 -149.558594 3.164062 L -149.652344 3.039062 L -149.777344 3.132812 C -153.289062 6.136719 -155.472656 10.316406 -155.949219 14.871094 C -156.421875 19.425781 -155.15625 23.984375 -152.371094 27.652344 L -152.308594 27.75 C -154.492188 30.691406 -156.582031 33.761719 -158.511719 36.894531 C -157.878906 34.867188 -157.59375 32.746094 -157.71875 30.628906 C -157.941406 26.039062 -159.902344 21.738281 -163.257812 18.574219 L -163.351562 18.476562 L -163.445312 18.605469 C -166.421875 22.117188 -167.941406 26.578125 -167.6875 31.164062 C -167.464844 35.753906 -165.503906 40.023438 -162.179688 43.222656 L -162.117188 43.285156 C -163.828125 46.511719 -165.378906 49.832031 -166.738281 53.15625 C -166.453125 51.097656 -166.515625 49.042969 -166.960938 47.019531 C -167.910156 42.523438 -170.503906 38.601562 -174.300781 35.976562 L -174.425781 35.878906 L -174.488281 36.007812 C -176.894531 39.929688 -177.683594 44.582031 -176.734375 49.074219 C -175.785156 53.566406 -173.191406 57.492188 -169.394531 60.117188 L -169.363281 60.148438 C -170.535156 63.597656 -171.515625 67.140625 -172.371094 70.714844 C -172.402344 68.628906 -172.78125 66.570312 -173.539062 64.609375 C -175.1875 60.304688 -178.382812 56.859375 -182.527344 54.863281 L -182.652344 54.800781 L -182.714844 54.929688 C -184.457031 59.199219 -184.519531 63.882812 -182.875 68.183594 C -181.230469 72.488281 -178.035156 75.9375 -173.886719 77.929688 L -173.824219 77.960938 C -174.425781 81.570312 -174.871094 85.269531 -175.121094 88.972656 C -175.46875 86.851562 -176.199219 84.859375 -177.242188 82.992188 C -179.519531 79.007812 -183.222656 76.09375 -187.621094 74.765625 L -187.746094 74.734375 L -187.777344 74.894531 C -188.855469 79.386719 -188.160156 84.035156 -185.878906 88.023438 C -183.601562 92.011719 -179.898438 94.921875 -175.503906 96.25 L -175.40625 96.28125 C -175.40625 96.757812 -175.40625 97.167969 -175.40625 97.578125 C -175.40625 100.773438 -175.28125 104.035156 -174.996094 107.292969 C -175.660156 105.300781 -176.671875 103.433594 -178 101.789062 C -180.882812 98.210938 -184.996094 95.902344 -189.550781 95.269531 L -189.707031 95.238281 L -189.707031 95.394531 C -190.058594 99.984375 -188.664062 104.476562 -185.753906 108.050781 C -182.875 111.628906 -178.761719 113.9375 -174.203125 114.570312 L -174.140625 114.570312 C -173.636719 118.144531 -172.9375 121.71875 -172.085938 125.234375 C -173.066406 123.429688 -174.332031 121.816406 -175.851562 120.421875 C -179.171875 117.449219 -183.414062 115.804688 -187.875 115.804688 C -188.03125 115.773438 -188.191406 115.773438 -188.316406 115.773438 Z M 19.941406 5.664062 C 23.230469 8.828125 25.320312 12.847656 25.984375 17.339844 C 27.441406 18.890625 28.894531 20.503906 30.320312 22.179688 C 29.304688 20.21875 28.671875 18.097656 28.421875 15.882812 C 27.945312 11.328125 29.210938 6.769531 31.996094 3.101562 L 32.089844 2.972656 L 32.21875 3.070312 C 35.699219 6.074219 37.914062 10.25 38.386719 14.808594 C 38.863281 19.363281 37.597656 23.921875 34.8125 27.589844 L 34.75 27.683594 C 36.929688 30.628906 39.019531 33.695312 40.949219 36.828125 C 40.316406 34.804688 40.03125 32.683594 40.160156 30.566406 C 40.378906 25.976562 42.34375 21.707031 45.664062 18.507812 L 45.757812 18.414062 L 45.855469 18.542969 C 48.828125 22.054688 50.347656 26.515625 50.09375 31.101562 C 49.871094 35.691406 47.910156 39.960938 44.589844 43.15625 L 44.523438 43.222656 C 46.234375 46.449219 47.785156 49.769531 49.144531 53.09375 C 48.859375 51.035156 48.921875 48.980469 49.367188 46.953125 C 50.316406 42.460938 52.910156 38.539062 56.707031 35.910156 L 56.832031 35.816406 L 56.898438 35.945312 C 59.300781 39.867188 60.09375 44.519531 59.144531 49.011719 C 58.195312 53.503906 55.597656 57.425781 51.800781 60.054688 L 51.769531 60.085938 C 52.941406 63.535156 53.921875 67.078125 54.777344 70.652344 C 54.808594 68.566406 55.1875 66.507812 55.949219 64.546875 C 57.59375 60.242188 60.789062 56.792969 64.933594 54.800781 L 65.058594 54.738281 L 65.125 54.863281 C 66.863281 59.105469 66.925781 63.820312 65.28125 68.121094 C 63.636719 72.425781 60.441406 75.875 56.296875 77.867188 L 56.230469 77.898438 C 56.832031 81.503906 57.277344 85.207031 57.53125 88.910156 C 57.878906 86.789062 58.605469 84.796875 59.648438 82.929688 C 61.925781 78.941406 65.628906 76.03125 70.027344 74.703125 L 70.152344 74.671875 L 70.1875 74.828125 C 71.261719 79.324219 70.566406 83.972656 68.289062 87.960938 C 66.007812 91.945312 62.308594 94.859375 57.910156 96.1875 L 57.8125 96.21875 C 57.8125 96.691406 57.8125 97.105469 57.8125 97.515625 C 57.8125 100.710938 57.6875 103.96875 57.402344 107.230469 C 58.066406 105.203125 59.078125 103.371094 60.410156 101.722656 C 63.320312 98.148438 67.402344 95.839844 71.957031 95.238281 L 72.117188 95.207031 L 72.117188 95.363281 C 72.464844 99.953125 71.070312 104.445312 68.160156 108.019531 C 65.28125 111.597656 61.167969 113.90625 56.613281 114.539062 L 56.546875 114.539062 C 56.042969 118.113281 55.347656 121.6875 54.492188 125.199219 C 55.472656 123.398438 56.738281 121.785156 58.257812 120.390625 C 61.675781 117.324219 66.074219 115.644531 70.691406 115.773438 L 70.851562 115.773438 L 70.851562 115.929688 C 70.46875 120.519531 68.382812 124.726562 64.964844 127.828125 C 61.546875 130.894531 57.148438 132.542969 52.53125 132.445312 L 52.5 132.445312 C 51.421875 135.863281 50.1875 139.28125 48.765625 142.636719 C 50 140.988281 51.519531 139.628906 53.226562 138.488281 C 57.085938 135.992188 61.707031 135.042969 66.230469 135.863281 L 66.390625 135.894531 L 66.355469 136.054688 C 65.28125 140.515625 62.558594 144.375 58.699219 146.875 C 54.839844 149.375 50.21875 150.324219 45.695312 149.5 L 45.664062 149.5 C 45.472656 149.914062 45.285156 150.292969 45.0625 150.703125 C 43.640625 153.488281 42.058594 156.304688 40.316406 159.054688 C 41.804688 157.601562 43.542969 156.429688 45.441406 155.609375 C 49.652344 153.742188 54.332031 153.550781 58.699219 155.070312 L 58.828125 155.132812 L 58.761719 155.257812 C 56.992188 159.5 53.699219 162.886719 49.492188 164.75 C 45.285156 166.617188 40.601562 166.808594 36.234375 165.289062 L 36.171875 165.257812 C 34.050781 168.230469 31.773438 171.144531 29.402344 173.894531 C 31.109375 172.695312 33.007812 171.777344 35.03125 171.238281 C 39.460938 170.035156 44.144531 170.574219 48.195312 172.757812 L 48.320312 172.820312 L 48.257812 172.945312 C 45.824219 176.871094 42.058594 179.6875 37.628906 180.855469 C 33.199219 182.058594 28.515625 181.519531 24.464844 179.335938 L 24.402344 179.304688 C 20.195312 183.609375 15.667969 187.597656 10.953125 191.109375 L 10.828125 191.203125 L 9.371094 189.273438 L 9.5 189.179688 C 14.117188 185.699219 18.484375 181.867188 22.535156 177.722656 C 19.65625 174.179688 18.230469 169.71875 18.546875 165.164062 C 18.863281 160.574219 20.890625 156.335938 24.277344 153.203125 L 24.371094 153.109375 L 24.464844 153.234375 C 27.375 156.808594 28.832031 161.269531 28.484375 165.859375 C 28.261719 168.960938 27.25 171.902344 25.574219 174.464844 C 28.609375 171.113281 31.457031 167.597656 34.085938 163.929688 C 30.699219 160.859375 28.578125 156.683594 28.199219 152.160156 C 27.789062 147.570312 29.148438 143.078125 31.996094 139.4375 L 32.089844 139.3125 L 32.1875 139.40625 C 35.632812 142.476562 37.753906 146.683594 38.132812 151.242188 C 38.417969 154.40625 37.847656 157.507812 36.550781 160.320312 C 38.863281 156.839844 40.949219 153.234375 42.847656 149.53125 C 43.007812 149.183594 43.164062 148.867188 43.355469 148.519531 C 39.527344 146.050781 36.773438 142.222656 35.664062 137.792969 C 34.558594 133.332031 35.160156 128.679688 37.4375 124.664062 L 37.5 124.535156 L 37.628906 124.632812 C 41.488281 127.132812 44.242188 130.929688 45.378906 135.390625 C 46.140625 138.488281 46.074219 141.6875 45.222656 144.691406 C 47.121094 140.484375 48.765625 136.210938 50.125 131.878906 C 45.949219 130.011719 42.625 126.6875 40.855469 122.480469 C 39.050781 118.238281 38.957031 113.527344 40.539062 109.222656 L 40.601562 109.097656 L 40.726562 109.160156 C 44.9375 110.996094 48.257812 114.347656 50.0625 118.589844 C 51.328125 121.5625 51.738281 124.757812 51.328125 127.890625 C 52.5625 123.460938 53.511719 118.9375 54.175781 114.347656 C 49.746094 113.179688 45.980469 110.394531 43.542969 106.535156 C 41.109375 102.640625 40.253906 97.992188 41.171875 93.496094 L 41.171875 93.339844 L 41.328125 93.371094 C 45.789062 94.542969 49.585938 97.324219 52.023438 101.21875 C 53.667969 103.84375 54.585938 106.851562 54.714844 109.886719 C 55.15625 105.804688 55.378906 101.691406 55.378906 97.515625 C 55.378906 97.261719 55.378906 97.007812 55.378906 96.757812 L 55.378906 96.410156 C 50.851562 95.933594 46.707031 93.78125 43.703125 90.332031 C 40.695312 86.851562 39.113281 82.421875 39.304688 77.835938 L 39.304688 77.675781 L 39.460938 77.675781 C 44.050781 78.121094 48.226562 80.304688 51.234375 83.753906 C 53.226562 86.0625 54.585938 88.75 55.21875 91.695312 C 55 87.234375 54.523438 82.835938 53.796875 78.46875 C 53.480469 78.5 53.164062 78.5 52.816406 78.5 C 48.605469 78.5 44.558594 77.042969 41.296875 74.324219 C 37.785156 71.378906 35.539062 67.234375 35 62.648438 L 34.96875 62.488281 L 35.128906 62.488281 C 39.714844 62.238281 44.207031 63.691406 47.722656 66.667969 C 50.125 68.691406 51.929688 71.285156 53.003906 74.164062 C 52.085938 69.703125 50.917969 65.335938 49.460938 61.035156 C 48.195312 61.320312 46.929688 61.445312 45.664062 61.445312 C 42.4375 61.445312 39.273438 60.589844 36.425781 58.882812 C 32.46875 56.511719 29.621094 52.777344 28.390625 48.347656 L 28.355469 48.21875 L 28.515625 48.1875 C 33.007812 47.207031 37.660156 47.96875 41.613281 50.339844 C 44.304688 51.953125 46.488281 54.230469 48.003906 56.953125 C 46.390625 52.714844 44.558594 48.601562 42.4375 44.550781 C 38.164062 46.195312 33.515625 46.164062 29.273438 44.453125 C 25.003906 42.746094 21.585938 39.488281 19.6875 35.3125 L 19.625 35.183594 L 19.75 35.121094 C 24.023438 33.445312 28.738281 33.476562 33.007812 35.183594 C 35.824219 36.324219 38.230469 38.09375 40.128906 40.40625 C 37.914062 36.542969 35.445312 32.84375 32.851562 29.332031 C 28.894531 31.609375 24.308594 32.273438 19.878906 31.261719 C 15.382812 30.214844 11.523438 27.558594 8.960938 23.730469 L 8.867188 23.605469 L 8.992188 23.539062 C 12.980469 21.230469 17.632812 20.503906 22.09375 21.546875 C 24.941406 22.210938 27.566406 23.539062 29.78125 25.46875 C 28.105469 23.414062 26.332031 21.390625 24.558594 19.492188 C 19.8125 19.109375 15.511719 17.179688 12.09375 13.921875 C 8.328125 10.316406 6.113281 5.472656 5.859375 0.253906 L 5.859375 0.09375 L 6.050781 0 C 11.238281 0.03125 16.207031 2.054688 19.941406 5.664062 Z M 19.941406 5.664062 " fill-opacity="1" fill-rule="nonzero"/></g></g></g></g><g fill="#f5f5f5" fill-opacity="1"><g transform="translate(107.610937, 89.247786)"><g><path d="M 1.34375 -20.921875 L 1.34375 -24.65625 L 21.015625 -24.65625 L 21.015625 -20.921875 L 13.40625 -20.921875 L 13.40625 0 L 8.96875 0 L 8.96875 -20.921875 Z M 1.34375 -20.921875 "/></g></g></g><g fill="#f5f5f5" fill-opacity="1"><g transform="translate(129.984034, 89.247786)"><g><path d="M 10.3125 0.359375 C 8.5 0.359375 6.929688 -0.0351562 5.609375 -0.828125 C 4.285156 -1.617188 3.257812 -2.726562 2.53125 -4.15625 C 1.800781 -5.59375 1.4375 -7.265625 1.4375 -9.171875 C 1.4375 -11.085938 1.800781 -12.757812 2.53125 -14.1875 C 3.257812 -15.625 4.285156 -16.738281 5.609375 -17.53125 C 6.929688 -18.332031 8.5 -18.734375 10.3125 -18.734375 C 12.113281 -18.734375 13.675781 -18.332031 15 -17.53125 C 16.320312 -16.738281 17.347656 -15.625 18.078125 -14.1875 C 18.804688 -12.757812 19.171875 -11.085938 19.171875 -9.171875 C 19.171875 -7.265625 18.804688 -5.59375 18.078125 -4.15625 C 17.347656 -2.726562 16.320312 -1.617188 15 -0.828125 C 13.675781 -0.0351562 12.113281 0.359375 10.3125 0.359375 Z M 10.328125 -3.125 C 11.304688 -3.125 12.125 -3.394531 12.78125 -3.9375 C 13.445312 -4.476562 13.941406 -5.207031 14.265625 -6.125 C 14.585938 -7.039062 14.75 -8.0625 14.75 -9.1875 C 14.75 -10.320312 14.585938 -11.347656 14.265625 -12.265625 C 13.941406 -13.179688 13.445312 -13.910156 12.78125 -14.453125 C 12.125 -15.003906 11.304688 -15.28125 10.328125 -15.28125 C 9.328125 -15.28125 8.492188 -15.003906 7.828125 -14.453125 C 7.171875 -13.910156 6.675781 -13.179688 6.34375 -12.265625 C 6.019531 -11.347656 5.859375 -10.320312 5.859375 -9.1875 C 5.859375 -8.0625 6.019531 -7.039062 6.34375 -6.125 C 6.675781 -5.207031 7.171875 -4.476562 7.828125 -3.9375 C 8.492188 -3.394531 9.328125 -3.125 10.328125 -3.125 Z M 10.328125 -3.125 "/></g></g></g><g fill="#f5f5f5" fill-opacity="1"><g transform="translate(150.599056, 89.247786)"><g><path d="M 2.234375 6.9375 L 2.234375 -18.5 L 6.53125 -18.5 L 6.53125 -15.4375 L 6.78125 -15.4375 C 7 -15.882812 7.3125 -16.363281 7.71875 -16.875 C 8.132812 -17.382812 8.691406 -17.820312 9.390625 -18.1875 C 10.085938 -18.550781 10.976562 -18.734375 12.0625 -18.734375 C 13.488281 -18.734375 14.773438 -18.367188 15.921875 -17.640625 C 17.078125 -16.921875 17.992188 -15.851562 18.671875 -14.4375 C 19.359375 -13.019531 19.703125 -11.28125 19.703125 -9.21875 C 19.703125 -7.1875 19.367188 -5.460938 18.703125 -4.046875 C 18.035156 -2.628906 17.125 -1.546875 15.96875 -0.796875 C 14.820312 -0.046875 13.523438 0.328125 12.078125 0.328125 C 11.015625 0.328125 10.132812 0.148438 9.4375 -0.203125 C 8.738281 -0.554688 8.175781 -0.984375 7.75 -1.484375 C 7.332031 -1.984375 7.007812 -2.457031 6.78125 -2.90625 L 6.59375 -2.90625 L 6.59375 6.9375 Z M 6.515625 -9.25 C 6.515625 -8.050781 6.679688 -7 7.015625 -6.09375 C 7.359375 -5.195312 7.851562 -4.5 8.5 -4 C 9.144531 -3.5 9.929688 -3.25 10.859375 -3.25 C 11.828125 -3.25 12.632812 -3.503906 13.28125 -4.015625 C 13.925781 -4.535156 14.414062 -5.25 14.75 -6.15625 C 15.082031 -7.0625 15.25 -8.09375 15.25 -9.25 C 15.25 -10.394531 15.082031 -11.410156 14.75 -12.296875 C 14.425781 -13.191406 13.9375 -13.890625 13.28125 -14.390625 C 12.632812 -14.898438 11.828125 -15.15625 10.859375 -15.15625 C 9.929688 -15.15625 9.140625 -14.910156 8.484375 -14.421875 C 7.835938 -13.929688 7.347656 -13.242188 7.015625 -12.359375 C 6.679688 -11.484375 6.515625 -10.445312 6.515625 -9.25 Z M 6.515625 -9.25 "/></g></g></g><g fill="#f5f5f5" fill-opacity="1"><g transform="translate(171.780032, 89.247786)"><g/></g></g><g fill="#f5f5f5" fill-opacity="1"><g transform="translate(180.197027, 89.247786)"><g><path d="M 2.4375 -24.65625 L 7.90625 -24.65625 L 15.21875 -6.796875 L 15.515625 -6.796875 L 22.828125 -24.65625 L 28.296875 -24.65625 L 28.296875 0 L 24.015625 0 L 24.015625 -16.9375 L 23.78125 -16.9375 L 16.96875 -0.078125 L 13.765625 -0.078125 L 6.953125 -16.984375 L 6.71875 -16.984375 L 6.71875 0 L 2.4375 0 Z M 2.4375 -24.65625 "/></g></g></g><g fill="#f5f5f5" fill-opacity="1"><g transform="translate(210.926905, 89.247786)"><g><path d="M 10.421875 0.359375 C 8.566406 0.359375 6.96875 -0.0234375 5.625 -0.796875 C 4.28125 -1.578125 3.242188 -2.675781 2.515625 -4.09375 C 1.796875 -5.519531 1.4375 -7.203125 1.4375 -9.140625 C 1.4375 -11.046875 1.800781 -12.71875 2.53125 -14.15625 C 3.257812 -15.59375 4.273438 -16.710938 5.578125 -17.515625 C 6.890625 -18.328125 8.429688 -18.734375 10.203125 -18.734375 C 11.335938 -18.734375 12.410156 -18.550781 13.421875 -18.1875 C 14.441406 -17.820312 15.34375 -17.257812 16.125 -16.5 C 16.90625 -15.738281 17.519531 -14.769531 17.96875 -13.59375 C 18.425781 -12.414062 18.65625 -11.015625 18.65625 -9.390625 L 18.65625 -8.0625 L 3.484375 -8.0625 L 3.484375 -11 L 14.46875 -11 C 14.457031 -11.832031 14.273438 -12.570312 13.921875 -13.21875 C 13.578125 -13.875 13.085938 -14.390625 12.453125 -14.765625 C 11.828125 -15.148438 11.097656 -15.34375 10.265625 -15.34375 C 9.367188 -15.34375 8.582031 -15.125 7.90625 -14.6875 C 7.238281 -14.257812 6.71875 -13.695312 6.34375 -13 C 5.96875 -12.3125 5.773438 -11.554688 5.765625 -10.734375 L 5.765625 -8.15625 C 5.765625 -7.082031 5.960938 -6.160156 6.359375 -5.390625 C 6.753906 -4.628906 7.300781 -4.046875 8 -3.640625 C 8.707031 -3.234375 9.535156 -3.03125 10.484375 -3.03125 C 11.117188 -3.03125 11.691406 -3.117188 12.203125 -3.296875 C 12.722656 -3.484375 13.171875 -3.753906 13.546875 -4.109375 C 13.921875 -4.460938 14.207031 -4.898438 14.40625 -5.421875 L 18.46875 -4.953125 C 18.207031 -3.878906 17.71875 -2.941406 17 -2.140625 C 16.289062 -1.347656 15.375 -0.734375 14.25 -0.296875 C 13.132812 0.140625 11.859375 0.359375 10.421875 0.359375 Z M 10.421875 0.359375 "/></g></g></g><g fill="#f5f5f5" fill-opacity="1"><g transform="translate(231.024157, 89.247786)"><g><path d="M 6.59375 -10.84375 L 6.59375 0 L 2.234375 0 L 2.234375 -18.5 L 6.40625 -18.5 L 6.40625 -15.359375 L 6.625 -15.359375 C 7.050781 -16.390625 7.726562 -17.207031 8.65625 -17.8125 C 9.59375 -18.425781 10.753906 -18.734375 12.140625 -18.734375 C 13.410156 -18.734375 14.519531 -18.457031 15.46875 -17.90625 C 16.425781 -17.363281 17.164062 -16.570312 17.6875 -15.53125 C 18.21875 -14.5 18.476562 -13.25 18.46875 -11.78125 L 18.46875 0 L 14.109375 0 L 14.109375 -11.09375 C 14.109375 -12.332031 13.789062 -13.300781 13.15625 -14 C 12.519531 -14.695312 11.640625 -15.046875 10.515625 -15.046875 C 9.753906 -15.046875 9.078125 -14.878906 8.484375 -14.546875 C 7.890625 -14.210938 7.425781 -13.734375 7.09375 -13.109375 C 6.757812 -12.484375 6.59375 -11.726562 6.59375 -10.84375 Z M 6.59375 -10.84375 "/></g></g></g><g fill="#f5f5f5" fill-opacity="1"><g transform="translate(251.699394, 89.247786)"><g><path d="M 11.46875 -18.5 L 11.46875 -15.125 L 0.84375 -15.125 L 0.84375 -18.5 Z M 3.46875 -22.921875 L 7.828125 -22.921875 L 7.828125 -5.5625 C 7.828125 -4.976562 7.914062 -4.53125 8.09375 -4.21875 C 8.28125 -3.90625 8.519531 -3.691406 8.8125 -3.578125 C 9.113281 -3.472656 9.441406 -3.421875 9.796875 -3.421875 C 10.066406 -3.421875 10.316406 -3.441406 10.546875 -3.484375 C 10.773438 -3.523438 10.953125 -3.5625 11.078125 -3.59375 L 11.8125 -0.1875 C 11.582031 -0.101562 11.25 -0.015625 10.8125 0.078125 C 10.382812 0.179688 9.863281 0.238281 9.25 0.25 C 8.15625 0.28125 7.171875 0.113281 6.296875 -0.25 C 5.421875 -0.613281 4.726562 -1.179688 4.21875 -1.953125 C 3.707031 -2.722656 3.457031 -3.6875 3.46875 -4.84375 Z M 3.46875 -22.921875 "/></g></g></g><g fill="#f5f5f5" fill-opacity="1"><g transform="translate(264.583803, 89.247786)"><g><path d="M 10.3125 0.359375 C 8.5 0.359375 6.929688 -0.0351562 5.609375 -0.828125 C 4.285156 -1.617188 3.257812 -2.726562 2.53125 -4.15625 C 1.800781 -5.59375 1.4375 -7.265625 1.4375 -9.171875 C 1.4375 -11.085938 1.800781 -12.757812 2.53125 -14.1875 C 3.257812 -15.625 4.285156 -16.738281 5.609375 -17.53125 C 6.929688 -18.332031 8.5 -18.734375 10.3125 -18.734375 C 12.113281 -18.734375 13.675781 -18.332031 15 -17.53125 C 16.320312 -16.738281 17.347656 -15.625 18.078125 -14.1875 C 18.804688 -12.757812 19.171875 -11.085938 19.171875 -9.171875 C 19.171875 -7.265625 18.804688 -5.59375 18.078125 -4.15625 C 17.347656 -2.726562 16.320312 -1.617188 15 -0.828125 C 13.675781 -0.0351562 12.113281 0.359375 10.3125 0.359375 Z M 10.328125 -3.125 C 11.304688 -3.125 12.125 -3.394531 12.78125 -3.9375 C 13.445312 -4.476562 13.941406 -5.207031 14.265625 -6.125 C 14.585938 -7.039062 14.75 -8.0625 14.75 -9.1875 C 14.75 -10.320312 14.585938 -11.347656 14.265625 -12.265625 C 13.941406 -13.179688 13.445312 -13.910156 12.78125 -14.453125 C 12.125 -15.003906 11.304688 -15.28125 10.328125 -15.28125 C 9.328125 -15.28125 8.492188 -15.003906 7.828125 -14.453125 C 7.171875 -13.910156 6.675781 -13.179688 6.34375 -12.265625 C 6.019531 -11.347656 5.859375 -10.320312 5.859375 -9.1875 C 5.859375 -8.0625 6.019531 -7.039062 6.34375 -6.125 C 6.675781 -5.207031 7.171875 -4.476562 7.828125 -3.9375 C 8.492188 -3.394531 9.328125 -3.125 10.328125 -3.125 Z M 10.328125 -3.125 "/></g></g></g><g fill="#f5f5f5" fill-opacity="1"><g transform="translate(285.198825, 89.247786)"><g><path d="M 2.234375 0 L 2.234375 -18.5 L 6.46875 -18.5 L 6.46875 -15.40625 L 6.65625 -15.40625 C 7 -16.476562 7.578125 -17.304688 8.390625 -17.890625 C 9.210938 -18.472656 10.15625 -18.765625 11.21875 -18.765625 C 11.457031 -18.765625 11.726562 -18.753906 12.03125 -18.734375 C 12.332031 -18.710938 12.582031 -18.679688 12.78125 -18.640625 L 12.78125 -14.625 C 12.601562 -14.6875 12.3125 -14.742188 11.90625 -14.796875 C 11.507812 -14.847656 11.128906 -14.875 10.765625 -14.875 C 9.972656 -14.875 9.257812 -14.703125 8.625 -14.359375 C 8 -14.023438 7.503906 -13.554688 7.140625 -12.953125 C 6.773438 -12.347656 6.59375 -11.65625 6.59375 -10.875 L 6.59375 0 Z M 2.234375 0 "/></g></g></g><g fill="#f5f5f5" fill-opacity="1"><g transform="translate(298.681461, 89.247786)"><g/></g></g><g fill="#f5f5f5" fill-opacity="1"><g transform="translate(163.673744, 125.276336)"><g><path d="M 2.1875 0 L 2.1875 -3.234375 L 10.75 -11.625 C 11.570312 -12.445312 12.253906 -13.175781 12.796875 -13.8125 C 13.347656 -14.457031 13.757812 -15.082031 14.03125 -15.6875 C 14.300781 -16.289062 14.4375 -16.929688 14.4375 -17.609375 C 14.4375 -18.390625 14.257812 -19.054688 13.90625 -19.609375 C 13.550781 -20.171875 13.0625 -20.601562 12.4375 -20.90625 C 11.820312 -21.21875 11.125 -21.375 10.34375 -21.375 C 9.53125 -21.375 8.816406 -21.207031 8.203125 -20.875 C 7.597656 -20.539062 7.128906 -20.066406 6.796875 -19.453125 C 6.460938 -18.847656 6.296875 -18.125 6.296875 -17.28125 L 2.046875 -17.28125 C 2.046875 -18.84375 2.398438 -20.203125 3.109375 -21.359375 C 3.828125 -22.515625 4.8125 -23.410156 6.0625 -24.046875 C 7.320312 -24.679688 8.769531 -25 10.40625 -25 C 12.0625 -25 13.515625 -24.6875 14.765625 -24.0625 C 16.015625 -23.445312 16.984375 -22.601562 17.671875 -21.53125 C 18.367188 -20.457031 18.71875 -19.226562 18.71875 -17.84375 C 18.71875 -16.914062 18.539062 -16.003906 18.1875 -15.109375 C 17.832031 -14.222656 17.210938 -13.238281 16.328125 -12.15625 C 15.441406 -11.070312 14.203125 -9.757812 12.609375 -8.21875 L 8.359375 -3.90625 L 8.359375 -3.734375 L 19.09375 -3.734375 L 19.09375 0 Z M 2.1875 0 "/></g></g></g><g fill="#f5f5f5" fill-opacity="1"><g transform="translate(184.746354, 125.276336)"><g><path d="M 11.3125 0.46875 C 9.320312 0.46875 7.617188 -0.03125 6.203125 -1.03125 C 4.785156 -2.039062 3.695312 -3.5 2.9375 -5.40625 C 2.1875 -7.3125 1.8125 -9.613281 1.8125 -12.3125 C 1.8125 -15 2.191406 -17.285156 2.953125 -19.171875 C 3.710938 -21.066406 4.800781 -22.507812 6.21875 -23.5 C 7.632812 -24.5 9.332031 -25 11.3125 -25 C 13.28125 -25 14.972656 -24.5 16.390625 -23.5 C 17.816406 -22.507812 18.910156 -21.066406 19.671875 -19.171875 C 20.429688 -17.273438 20.8125 -14.988281 20.8125 -12.3125 C 20.8125 -9.613281 20.429688 -7.3125 19.671875 -5.40625 C 18.910156 -3.5 17.820312 -2.039062 16.40625 -1.03125 C 14.988281 -0.03125 13.289062 0.46875 11.3125 0.46875 Z M 11.3125 -3.296875 C 12.851562 -3.296875 14.066406 -4.054688 14.953125 -5.578125 C 15.847656 -7.097656 16.296875 -9.34375 16.296875 -12.3125 C 16.296875 -14.269531 16.09375 -15.910156 15.6875 -17.234375 C 15.28125 -18.566406 14.703125 -19.570312 13.953125 -20.25 C 13.203125 -20.9375 12.320312 -21.28125 11.3125 -21.28125 C 9.769531 -21.28125 8.550781 -20.519531 7.65625 -19 C 6.769531 -17.476562 6.328125 -15.25 6.328125 -12.3125 C 6.316406 -10.34375 6.515625 -8.6875 6.921875 -7.34375 C 7.328125 -6 7.898438 -4.988281 8.640625 -4.3125 C 9.390625 -3.632812 10.28125 -3.296875 11.3125 -3.296875 Z M 11.3125 -3.296875 "/></g></g></g><g fill="#f5f5f5" fill-opacity="1"><g transform="translate(207.360275, 125.276336)"><g><path d="M 2.1875 0 L 2.1875 -3.234375 L 10.75 -11.625 C 11.570312 -12.445312 12.253906 -13.175781 12.796875 -13.8125 C 13.347656 -14.457031 13.757812 -15.082031 14.03125 -15.6875 C 14.300781 -16.289062 14.4375 -16.929688 14.4375 -17.609375 C 14.4375 -18.390625 14.257812 -19.054688 13.90625 -19.609375 C 13.550781 -20.171875 13.0625 -20.601562 12.4375 -20.90625 C 11.820312 -21.21875 11.125 -21.375 10.34375 -21.375 C 9.53125 -21.375 8.816406 -21.207031 8.203125 -20.875 C 7.597656 -20.539062 7.128906 -20.066406 6.796875 -19.453125 C 6.460938 -18.847656 6.296875 -18.125 6.296875 -17.28125 L 2.046875 -17.28125 C 2.046875 -18.84375 2.398438 -20.203125 3.109375 -21.359375 C 3.828125 -22.515625 4.8125 -23.410156 6.0625 -24.046875 C 7.320312 -24.679688 8.769531 -25 10.40625 -25 C 12.0625 -25 13.515625 -24.6875 14.765625 -24.0625 C 16.015625 -23.445312 16.984375 -22.601562 17.671875 -21.53125 C 18.367188 -20.457031 18.71875 -19.226562 18.71875 -17.84375 C 18.71875 -16.914062 18.539062 -16.003906 18.1875 -15.109375 C 17.832031 -14.222656 17.210938 -13.238281 16.328125 -12.15625 C 15.441406 -11.070312 14.203125 -9.757812 12.609375 -8.21875 L 8.359375 -3.90625 L 8.359375 -3.734375 L 19.09375 -3.734375 L 19.09375 0 Z M 2.1875 0 "/></g></g></g><g fill="#f5f5f5" fill-opacity="1"><g transform="translate(228.432885, 125.276336)"><g><path d="M 1.75 -4.578125 L 1.75 -8.125 L 12.203125 -24.65625 L 15.171875 -24.65625 L 15.171875 -19.609375 L 13.359375 -19.609375 L 6.328125 -8.4375 L 6.328125 -8.25 L 20.921875 -8.25 L 20.921875 -4.578125 Z M 13.515625 0 L 13.515625 -5.65625 L 13.5625 -7.25 L 13.5625 -24.65625 L 17.765625 -24.65625 L 17.765625 0 Z M 13.515625 0 "/></g></g></g></g></g></g></svg>