<svg width="37" height="25" viewBox="0 0 37 25" fill="none" xmlns="http://www.w3.org/2000/svg">
<path fill-rule="evenodd" clip-rule="evenodd" d="M4.2241 23.541C5.5681 24.181 7.0881 24.501 8.7841 24.501C10.0641 24.501 11.2001 24.277 12.1921 23.829C13.1841 23.381 14.0001 22.757 14.6401 21.957C15.0391 21.4631 16.3191 19.9605 16.5601 19.365L18.1478 21.333C18.1478 22.325 17.6678 21.1648 18.1478 21.7088C18.6598 22.2208 18.7942 21.957 19.6902 21.957C20.5862 21.957 20.299 22.9467 20.779 22.4347C21.259 21.8907 21.2161 22.325 21.2161 21.333V9.81302C21.2161 7.57302 20.8481 5.74902 20.1121 4.34102C19.3761 2.90102 18.2561 1.82903 16.7521 1.12503C15.2801 0.421031 13.3921 0.0690308 11.0881 0.0690308C9.96809 0.0690308 8.7201 0.197026 7.3441 0.453026C6.0001 0.709024 4.5921 1.14103 3.12 1.74903C2.512 1.97303 2.08 2.32503 1.824 2.80503C1.5681 3.25303 1.4401 3.71703 1.4401 4.19703C1.4401 4.67703 1.5681 5.12503 1.824 5.54103C2.08 5.92503 2.4321 6.18103 2.8801 6.30903C3.3601 6.43703 3.9041 6.35703 4.5121 6.06903C5.6961 5.52503 6.8161 5.14103 7.8721 4.91703C8.9601 4.69303 9.96809 4.58103 10.8961 4.58103C12.5601 4.58103 13.7441 4.93303 14.4481 5.63703C15.1521 6.34103 15.5041 7.49302 15.5041 9.09302V10.101H13.8241C10.4321 10.101 7.7281 10.325 5.712 10.773C3.6961 11.221 2.2401 11.957 1.344 12.981C0.447998 13.973 0 15.333 0 17.061C0 18.469 0.367998 19.733 1.104 20.853C1.872 21.973 2.9121 22.869 4.2241 23.541ZM13.8721 13.557H15.5041V14.613C15.5041 15.733 15.2641 16.725 14.7841 17.589C14.3041 18.453 13.6481 19.141 12.816 19.653C12.0161 20.133 11.0881 20.373 10.0321 20.373C8.7201 20.373 7.6961 20.037 6.9601 19.365C6.2241 18.693 5.85611 17.829 5.85611 16.773C5.85611 15.941 6.0961 15.301 6.5761 14.853C7.0881 14.373 7.9361 14.037 9.1201 13.845C10.3041 13.653 11.8881 13.557 13.8721 13.557Z" fill="#FF6B57"/>
<path fill-rule="evenodd" clip-rule="evenodd" d="M32.6166 1.02903C31.2726 0.38903 29.7526 0.0690308 28.0566 0.0690308C26.7766 0.0690308 25.6406 0.293028 24.6486 0.741026C23.6566 1.18903 22.8406 1.81303 22.2006 2.61303C21.8017 3.10697 20.6571 5.00911 20.416 5.60455L19.6448 4.19704C19.6448 3.20504 17.7655 3.15703 17.2855 2.61303C16.7735 2.10103 17.2406 1.56714 16.3446 1.56714C15.4486 1.56714 15.8601 1.05514 15.3801 1.56714C14.9001 2.11114 15.6246 2.24503 15.6246 3.23703V14.757C15.6246 16.997 15.9926 18.821 16.7286 20.229C17.4646 21.669 18.5846 22.741 20.0886 23.445C21.5606 24.149 23.4486 24.501 25.7526 24.501C26.8726 24.501 28.1206 24.373 29.4966 24.117C30.8406 23.861 32.2486 23.429 33.7207 22.821C34.3287 22.597 34.7607 22.245 35.0167 21.765C35.2726 21.317 35.4006 20.853 35.4006 20.373C35.4006 19.893 35.2726 19.445 35.0167 19.029C34.7607 18.645 34.4086 18.389 33.9606 18.261C33.4806 18.133 32.9366 18.213 32.3286 18.501C31.1446 19.045 30.0246 19.429 28.9686 19.653C27.8806 19.877 26.8726 19.989 25.9446 19.989C24.2806 19.989 23.0966 19.637 22.3926 18.933C21.6886 18.229 21.3366 17.077 21.3366 15.477V14.469H23.0166C26.4086 14.469 29.1126 14.245 31.1287 13.797C33.1446 13.349 34.6006 12.613 35.4967 11.589C36.3927 10.597 36.8407 9.23704 36.8407 7.50904C36.8407 6.10104 36.4727 4.83704 35.7367 3.71704C34.9687 2.59704 33.9286 1.70103 32.6166 1.02903ZM22.9686 11.013H21.3366V9.95702C21.3366 8.83704 21.5766 7.84504 22.0566 6.98104C22.5366 6.11704 23.1926 5.42903 24.0247 4.91703C24.8246 4.43703 25.7526 4.19704 26.8086 4.19704C28.1206 4.19704 29.1446 4.53304 29.8806 5.20504C30.6166 5.87704 30.9846 6.74103 30.9846 7.79703C30.9846 8.62903 30.7446 9.26904 30.2646 9.71702C29.7526 10.197 28.9046 10.533 27.7206 10.725C26.5366 10.917 24.9526 11.013 22.9686 11.013Z" fill="#FF6B57"/>
</svg>
