<svg xmlns="http://www.w3.org/2000/svg" id="Layer_1" data-name="Layer 1" viewBox="0 0 1080 436.78"><defs><style>      .cls-1 {        fill: #fafafa;      }      .cls-2 {        fill: #e1fe52;      }    </style></defs><path class="cls-2" d="M487.09,132.02l-30.54,172.59h-58.2l-21.14-102.36-20.9,102.36h-58.25l-23.4-132.42-25.79,46.12,48.28,86.3h-51.49l-24.12-48.71c-2.88-5.71-11.03-5.71-13.85,0l-24.16,48.71h-51.49l48.33-86.3-48.33-86.3h51.49l24.16,48.71c2.83,5.71,10.98,5.71,13.85,0l20.12-40.65c2.44-4.94,7.48-8.06,12.99-8.06h50.51c7.25,0,13.38,5.35,14.36,12.53l10.36,75.84c.23,1.71,2.7,1.76,3,.06l10.68-60.1c2.88-16.4,17.11-28.33,33.75-28.33,8.34,0,16.01,2.97,22.05,8.01,5.99,5.03,10.26,12.13,11.75,20.33l10.68,60.1c.3,1.7,2.76,1.65,3-.06l12.07-88.37h50.24Z"></path><g><path class="cls-1" d="M579.39,139.56l-21.04,33.13,20.7,32.88h-14.99l-14.02-23.36h-.58l-14.07,23.36h-14.22l20.46-33.27-20.26-32.74h15.38l13.73,23.75h.58l13.59-23.75h14.75Z"></path><path class="cls-1" d="M610.61,206.25c-2.32,0-4.44-.34-6.36-1.02-1.92-.68-3.57-1.64-4.96-2.9-1.39-1.26-2.47-2.79-3.24-4.59h-.63v24.85h-12.77v-68.38h12.52v8.17h.68c.52-1.39,1.24-2.62,2.18-3.7.93-1.08,2.05-2,3.36-2.76,1.31-.76,2.75-1.34,4.33-1.74,1.58-.4,3.27-.6,5.08-.6,4,0,7.42.91,10.28,2.73,2.85,1.82,5.04,4.43,6.55,7.83,1.51,3.4,2.27,7.49,2.27,12.26v6.96c0,4.74-.77,8.82-2.3,12.24-1.53,3.42-3.74,6.05-6.63,7.88-2.88,1.84-6.34,2.76-10.37,2.76ZM606.31,196.1c2.26,0,4.17-.55,5.73-1.64,1.56-1.09,2.76-2.68,3.6-4.76.84-2.08,1.26-4.59,1.26-7.52v-4.45c0-2.97-.42-5.49-1.26-7.57-.84-2.08-2.05-3.67-3.65-4.76-1.6-1.1-3.54-1.65-5.83-1.65s-4.1.53-5.71,1.6c-1.61,1.06-2.85,2.58-3.72,4.55-.87,1.97-1.3,4.3-1.3,7.01v6.68c0,2.48.45,4.68,1.35,6.58.9,1.9,2.18,3.37,3.82,4.4,1.65,1.03,3.55,1.55,5.71,1.55Z"></path><path class="cls-1" d="M658.95,206.49c-4.74,0-8.86-.91-12.38-2.73-3.51-1.82-6.23-4.49-8.15-8-1.92-3.51-2.88-7.79-2.88-12.81v-6.09c0-5.06,1-9.34,3.02-12.84,2.02-3.5,4.75-6.15,8.2-7.96,3.45-1.81,7.3-2.71,11.56-2.71s8.37.95,11.75,2.85c3.39,1.9,6.05,4.61,7.98,8.12,1.93,3.51,2.9,7.69,2.9,12.52v5.9h-32.93v2.42c0,3.35.98,6.11,2.95,8.27,1.96,2.16,4.61,3.24,7.93,3.24,1.74,0,3.29-.25,4.64-.75,1.36-.5,2.46-1.18,3.31-2.05.85-.87,1.36-1.84,1.52-2.9h12.09c-.13,1.61-.64,3.31-1.55,5.1-.9,1.79-2.22,3.48-3.94,5.05-1.72,1.58-3.91,2.87-6.55,3.87-2.65,1-5.8,1.5-9.48,1.5ZM648.03,175.01h20.6v-.53c0-2.32-.43-4.34-1.28-6.07-.85-1.72-2.05-3.07-3.58-4.04-1.53-.97-3.33-1.45-5.39-1.45s-3.87.48-5.42,1.45c-1.55.97-2.76,2.31-3.63,4.04-.87,1.73-1.3,3.75-1.3,6.07v.53Z"></path><path class="cls-1" d="M689.11,205.58v-51.31h12.72v8.03h.63c.35-1.19,1.03-2.47,2.03-3.82,1-1.36,2.39-2.52,4.18-3.51,1.79-.98,4.04-1.47,6.74-1.47.84,0,1.6.03,2.27.1.68.07,1.26.14,1.74.24v11.02c-.48-.13-1.19-.23-2.13-.31-.94-.08-1.9-.12-2.9-.12-2.77,0-5.07.5-6.89,1.5-1.82,1-3.18,2.39-4.06,4.16-.89,1.77-1.33,3.82-1.33,6.14v29.35h-13.01Z"></path><path class="cls-1" d="M724.15,139.13c0-2.13.74-3.84,2.23-5.15,1.48-1.3,3.4-1.96,5.75-1.96s4.32.65,5.8,1.96c1.48,1.3,2.22,3.02,2.22,5.15s-.74,3.75-2.22,5.05c-1.48,1.31-3.42,1.96-5.8,1.96s-4.27-.65-5.75-1.96c-1.48-1.3-2.23-2.99-2.23-5.05ZM725.8,205.58v-51.31h12.72v51.31h-12.72Z"></path><path class="cls-1" d="M770.75,206.49c-4.74,0-8.86-.91-12.38-2.73-3.51-1.82-6.23-4.49-8.15-8-1.92-3.51-2.88-7.79-2.88-12.81v-6.09c0-5.06,1-9.34,3.02-12.84,2.02-3.5,4.75-6.15,8.2-7.96,3.45-1.81,7.3-2.71,11.56-2.71s8.37.95,11.75,2.85c3.39,1.9,6.05,4.61,7.98,8.12,1.93,3.51,2.9,7.69,2.9,12.52v5.9h-32.93v2.42c0,3.35.98,6.11,2.95,8.27,1.96,2.16,4.61,3.24,7.93,3.24,1.74,0,3.29-.25,4.64-.75,1.36-.5,2.46-1.18,3.31-2.05.85-.87,1.36-1.84,1.52-2.9h12.09c-.13,1.61-.64,3.31-1.55,5.1-.9,1.79-2.22,3.48-3.94,5.05-1.72,1.58-3.91,2.87-6.55,3.87-2.65,1-5.8,1.5-9.48,1.5ZM759.82,175.01h20.6v-.53c0-2.32-.43-4.34-1.28-6.07-.85-1.72-2.05-3.07-3.58-4.04-1.53-.97-3.33-1.45-5.39-1.45s-3.87.48-5.42,1.45c-1.55.97-2.76,2.31-3.63,4.04-.87,1.73-1.3,3.75-1.3,6.07v.53Z"></path><path class="cls-1" d="M800.42,205.58v-51.31h12.43v9.04h.63c.42-1.35,1.18-2.79,2.3-4.3,1.11-1.51,2.71-2.82,4.81-3.92,2.1-1.1,4.82-1.64,8.17-1.64,5.16,0,9.3,1.47,12.43,4.42,3.12,2.95,4.69,7.39,4.69,13.32v34.38h-12.72v-30.8c0-2.55-.41-4.59-1.23-6.14-.82-1.55-1.93-2.68-3.31-3.41-1.39-.73-2.95-1.09-4.69-1.09-2.29,0-4.24.55-5.85,1.65-1.61,1.09-2.84,2.62-3.68,4.57-.84,1.95-1.26,4.22-1.26,6.8v28.44h-12.72Z"></path><path class="cls-1" d="M853.5,182.94v-6.43c0-4.71.93-8.79,2.8-12.26,1.87-3.47,4.51-6.15,7.93-8.05,3.42-1.9,7.45-2.85,12.09-2.85s8.29.82,11.41,2.44c3.12,1.63,5.52,3.79,7.18,6.48,1.66,2.69,2.52,5.68,2.59,8.97h-11.75c-.13-1.16-.52-2.34-1.16-3.53-.64-1.19-1.6-2.19-2.88-2.97-1.27-.79-2.96-1.18-5.05-1.18-3.32,0-5.87,1.18-7.67,3.55-1.79,2.37-2.68,5.57-2.68,9.6v6.19c0,4.16.92,7.43,2.76,9.82,1.84,2.38,4.38,3.58,7.64,3.58,2.06,0,3.73-.31,5.01-.92,1.27-.61,2.25-1.47,2.93-2.59.67-1.11,1.11-2.36,1.3-3.75h11.75c-.06,3.26-.9,6.21-2.51,8.85-1.61,2.65-3.99,4.74-7.13,6.29-3.14,1.55-7.05,2.32-11.73,2.32s-8.81-.96-12.21-2.88c-3.4-1.92-6.02-4.63-7.86-8.12-1.84-3.5-2.76-7.68-2.76-12.55Z"></path><path class="cls-1" d="M925.97,206.49c-4.74,0-8.86-.91-12.38-2.73-3.51-1.82-6.23-4.49-8.15-8-1.92-3.51-2.88-7.79-2.88-12.81v-6.09c0-5.06,1-9.34,3.02-12.84,2.02-3.5,4.75-6.15,8.2-7.96,3.45-1.81,7.3-2.71,11.56-2.71s8.37.95,11.75,2.85c3.39,1.9,6.05,4.61,7.98,8.12,1.93,3.51,2.9,7.69,2.9,12.52v5.9h-32.93v2.42c0,3.35.98,6.11,2.95,8.27,1.96,2.16,4.61,3.24,7.93,3.24,1.74,0,3.29-.25,4.64-.75,1.36-.5,2.46-1.18,3.31-2.05.85-.87,1.36-1.84,1.52-2.9h12.09c-.13,1.61-.64,3.31-1.55,5.1-.9,1.79-2.22,3.48-3.94,5.05-1.72,1.58-3.91,2.87-6.55,3.87-2.65,1-5.8,1.5-9.48,1.5ZM915.04,175.01h20.6v-.53c0-2.32-.43-4.34-1.28-6.07-.85-1.72-2.05-3.07-3.58-4.04-1.53-.97-3.33-1.45-5.39-1.45s-3.87.48-5.42,1.45c-1.55.97-2.76,2.31-3.63,4.04-.87,1.73-1.3,3.75-1.3,6.07v.53Z"></path><path class="cls-1" d="M551.2,303.84h-12.04l-17.41-66.01h14.12l9.91,47.92h.63l11.66-47.92h11.27l11.65,47.92h.68l9.82-47.92h14.17l-17.41,66.01h-12.04l-12.24-46.04h-.53l-12.23,46.04Z"></path><path class="cls-1" d="M620.87,304.62c-5,0-9.06-1.4-12.19-4.21-3.13-2.8-4.69-6.62-4.69-11.46s1.55-8.31,4.67-11.1c3.11-2.79,7.65-4.18,13.61-4.18h12.53v-4.59c0-2.58-.77-4.5-2.32-5.75-1.55-1.26-3.63-1.89-6.24-1.89-1.74,0-3.18.23-4.33.7-1.14.47-2.04,1.11-2.68,1.93-.64.82-1.08,1.76-1.3,2.83h-12.04c.16-2.1.67-4.06,1.52-5.9.85-1.84,2.1-3.45,3.75-4.84,1.65-1.39,3.74-2.47,6.29-3.26,2.55-.79,5.58-1.18,9.09-1.18,3.84,0,7.34.56,10.5,1.69,3.16,1.13,5.68,2.98,7.57,5.56,1.89,2.58,2.83,6.05,2.83,10.4v34.48h-12.04v-6.53h-.58c-.68,1.26-1.62,2.44-2.83,3.55-1.21,1.11-2.73,2.02-4.55,2.71-1.82.69-4.01,1.04-6.55,1.04ZM625.03,295.24c1.81,0,3.44-.37,4.91-1.11,1.47-.74,2.65-1.76,3.53-3.05.89-1.29,1.33-2.76,1.33-4.4v-5.32h-9.82c-2.84,0-4.93.64-6.29,1.91-1.35,1.27-2.03,2.89-2.03,4.86,0,2.42.85,4.21,2.56,5.37,1.71,1.16,3.64,1.74,5.8,1.74Z"></path><path class="cls-1" d="M667.9,303.84l-17.07-51.31h13.88l10.15,39.46h.53l11.22-39.46h13.44l-17.99,51.31h-14.17Z"></path><path class="cls-1" d="M724.75,304.76c-4.74,0-8.86-.91-12.38-2.73-3.51-1.82-6.23-4.49-8.15-8-1.92-3.51-2.88-7.79-2.88-12.81v-6.09c0-5.06,1-9.34,3.02-12.84,2.02-3.5,4.75-6.15,8.2-7.96,3.45-1.81,7.3-2.71,11.56-2.71s8.37.95,11.75,2.85c3.39,1.9,6.05,4.61,7.98,8.12,1.93,3.51,2.9,7.69,2.9,12.52v5.9h-32.93v2.42c0,3.35.98,6.11,2.95,8.27,1.96,2.16,4.61,3.24,7.93,3.24,1.74,0,3.29-.25,4.64-.75,1.36-.5,2.46-1.18,3.31-2.05.85-.87,1.36-1.84,1.52-2.9h12.09c-.13,1.61-.64,3.31-1.55,5.1-.9,1.79-2.22,3.48-3.94,5.05-1.72,1.58-3.91,2.87-6.55,3.87-2.65,1-5.8,1.5-9.48,1.5ZM713.82,273.28h20.6v-.53c0-2.32-.43-4.34-1.28-6.07-.85-1.72-2.05-3.07-3.58-4.04-1.53-.97-3.33-1.45-5.39-1.45s-3.87.48-5.42,1.45c-1.55.97-2.76,2.31-3.63,4.04-.87,1.73-1.3,3.75-1.3,6.07v.53Z"></path></g></svg>