<svg xmlns="http://www.w3.org/2000/svg" xmlns:xlink="http://www.w3.org/1999/xlink" width="500" zoomAndPan="magnify" viewBox="0 0 375 374.999991" height="500" preserveAspectRatio="xMidYMid meet" version="1.0"><defs><g/><clipPath id="27c2106c96"><path d="M 54 3 L 125.839844 3 L 125.839844 75 L 54 75 Z M 54 3 " clip-rule="nonzero"/></clipPath><clipPath id="05b638824f"><rect x="0" width="126" y="0" height="99"/></clipPath></defs><rect x="-37.5" width="450" fill="#ffffff" y="-37.499999" height="449.999989" fill-opacity="1"/><rect x="-37.5" width="450" fill="#ff5757" y="-37.499999" height="449.999989" fill-opacity="1"/><g transform="matrix(1, 0, 0, 1, 124, 149)"><g clip-path="url(#05b638824f)"><g fill="#231f20" fill-opacity="1"><g transform="translate(0.290729, 74.277607)"><g><path d="M 36.390625 -8.890625 C 36.390625 -11.597656 35.914062 -13.9375 34.96875 -15.90625 C 34.03125 -17.882812 32.757812 -19.613281 31.15625 -21.09375 C 29.550781 -22.570312 27.75 -23.914062 25.75 -25.125 C 23.757812 -26.34375 21.703125 -27.535156 19.578125 -28.703125 C 17.460938 -29.878906 15.40625 -31.132812 13.40625 -32.46875 C 11.414062 -33.8125 9.617188 -35.363281 8.015625 -37.125 C 6.410156 -38.894531 5.132812 -40.984375 4.1875 -43.390625 C 3.25 -45.796875 2.78125 -48.644531 2.78125 -51.9375 C 2.78125 -56.425781 3.804688 -60.109375 5.859375 -62.984375 C 7.910156 -65.859375 10.707031 -67.992188 14.25 -69.390625 C 17.789062 -70.796875 21.757812 -71.5 26.15625 -71.5 C 28.375 -71.5 30.390625 -71.40625 32.203125 -71.21875 C 34.015625 -71.03125 35.820312 -70.832031 37.625 -70.625 C 39.4375 -70.425781 41.453125 -70.328125 43.671875 -70.328125 C 44.285156 -70.328125 44.953125 -70.414062 45.671875 -70.59375 C 46.398438 -70.78125 46.925781 -71.082031 47.25 -71.5 L 47.875 -71.5 L 47.875 -49.109375 L 47.25 -49.109375 C 47.039062 -50.785156 46.484375 -52.59375 45.578125 -54.53125 C 44.679688 -56.46875 43.519531 -58.359375 42.09375 -60.203125 C 40.675781 -62.054688 39.082031 -63.753906 37.3125 -65.296875 C 35.550781 -66.835938 33.710938 -68.0625 31.796875 -68.96875 C 29.890625 -69.875 27.988281 -70.328125 26.09375 -70.328125 C 23.75 -70.328125 21.765625 -69.59375 20.140625 -68.125 C 18.515625 -66.664062 17.703125 -64.601562 17.703125 -61.9375 C 17.703125 -59.34375 18.175781 -57.097656 19.125 -55.203125 C 20.070312 -53.316406 21.359375 -51.660156 22.984375 -50.234375 C 24.609375 -48.816406 26.414062 -47.519531 28.40625 -46.34375 C 30.40625 -45.175781 32.484375 -44.023438 34.640625 -42.890625 C 36.796875 -41.765625 38.867188 -40.535156 40.859375 -39.203125 C 42.859375 -37.867188 44.671875 -36.347656 46.296875 -34.640625 C 47.921875 -32.929688 49.207031 -30.90625 50.15625 -28.5625 C 51.101562 -26.21875 51.578125 -23.460938 51.578125 -20.296875 C 51.578125 -17.253906 50.976562 -14.425781 49.78125 -11.8125 C 48.59375 -9.195312 46.914062 -6.921875 44.75 -4.984375 C 42.59375 -3.054688 40.050781 -1.546875 37.125 -0.453125 C 34.207031 0.628906 31.023438 1.171875 27.578125 1.171875 C 24.203125 1.171875 21.144531 0.910156 18.40625 0.390625 C 15.675781 -0.117188 13.109375 -0.914062 10.703125 -2 C 8.296875 -3.09375 5.898438 -4.503906 3.515625 -6.234375 L 3.515625 -29.546875 L 4.25 -29.546875 C 4.25 -28.679688 4.523438 -27.363281 5.078125 -25.59375 C 5.640625 -23.832031 6.429688 -21.835938 7.453125 -19.609375 C 8.484375 -17.390625 9.707031 -15.148438 11.125 -12.890625 C 12.550781 -10.628906 14.125 -8.53125 15.84375 -6.59375 C 17.570312 -4.664062 19.414062 -3.101562 21.375 -1.90625 C 23.332031 -0.71875 25.359375 -0.125 27.453125 -0.125 C 29.753906 -0.125 31.550781 -0.515625 32.84375 -1.296875 C 34.144531 -2.078125 35.0625 -3.125 35.59375 -4.4375 C 36.125 -5.757812 36.390625 -7.242188 36.390625 -8.890625 Z M 36.390625 -8.890625 "/></g></g></g><g clip-path="url(#27c2106c96)"><g fill="#231f20" fill-opacity="1"><g transform="translate(52.791413, 74.277607)"><g><path d="M 1.546875 -0.609375 C 2.984375 -0.984375 4.007812 -1.847656 4.625 -3.203125 C 5.238281 -4.566406 5.546875 -6.378906 5.546875 -8.640625 L 5.546875 -61.6875 C 5.546875 -63.988281 5.238281 -65.804688 4.625 -67.140625 C 4.007812 -68.484375 2.984375 -69.335938 1.546875 -69.703125 L 1.546875 -70.328125 L 25.046875 -70.328125 L 38.734375 -28.1875 L 48.609375 -70.328125 L 72.359375 -70.328125 L 72.359375 -69.703125 C 70.921875 -69.335938 69.890625 -68.484375 69.265625 -67.140625 C 68.648438 -65.804688 68.34375 -63.988281 68.34375 -61.6875 L 68.34375 -8.640625 C 68.34375 -6.378906 68.648438 -4.566406 69.265625 -3.203125 C 69.890625 -1.847656 70.921875 -0.984375 72.359375 -0.609375 L 72.359375 0 L 44.59375 0 L 44.59375 -0.609375 C 46.039062 -0.984375 47.070312 -1.847656 47.6875 -3.203125 C 48.300781 -4.566406 48.609375 -6.378906 48.609375 -8.640625 L 48.609375 -64.28125 L 33.5625 0 L 28.0625 0 L 6.78125 -65.578125 L 6.78125 -52.0625 C 6.78125 -48.726562 6.972656 -45.210938 7.359375 -41.515625 C 7.753906 -37.816406 8.320312 -34.113281 9.0625 -30.40625 C 9.800781 -26.707031 10.6875 -23.160156 11.71875 -19.765625 C 12.75 -16.378906 13.878906 -13.304688 15.109375 -10.546875 C 16.347656 -7.796875 17.664062 -5.554688 19.0625 -3.828125 C 20.457031 -2.097656 21.914062 -1.023438 23.4375 -0.609375 L 23.4375 0 L 1.546875 0 Z M 1.546875 -0.609375 "/></g></g></g></g></g></g></svg>