<svg xmlns="http://www.w3.org/2000/svg" xmlns:xlink="http://www.w3.org/1999/xlink" width="500" zoomAndPan="magnify" viewBox="0 0 375 374.999991" height="500" preserveAspectRatio="xMidYMid meet" version="1.0"><defs><g/></defs><rect x="-37.5" width="450" fill="#ffffff" y="-37.499999" height="449.999989" fill-opacity="1"/><rect x="-37.5" width="450" fill="#ff3131" y="-37.499999" height="449.999989" fill-opacity="1"/><g fill="#e4e2dd" fill-opacity="1"><g transform="translate(142.561182, 204.610796)"><g><path d="M 19.5 -45 C 21.882812 -45 24.21875 -44.648438 26.5 -43.953125 C 28.789062 -43.253906 30.492188 -42.566406 31.609375 -41.890625 L 33.203125 -40.8125 L 29.140625 -32.78125 C 28.816406 -33 28.367188 -33.273438 27.796875 -33.609375 C 27.222656 -33.953125 26.148438 -34.40625 24.578125 -34.96875 C 23.015625 -35.539062 21.550781 -35.828125 20.1875 -35.828125 C 18.507812 -35.828125 17.210938 -35.46875 16.296875 -34.75 C 15.390625 -34.039062 14.9375 -33.082031 14.9375 -31.875 C 14.9375 -31.257812 15.148438 -30.691406 15.578125 -30.171875 C 16.015625 -29.660156 16.75 -29.109375 17.78125 -28.515625 C 18.820312 -27.929688 19.734375 -27.457031 20.515625 -27.09375 C 21.296875 -26.738281 22.507812 -26.207031 24.15625 -25.5 C 27.007812 -24.28125 29.445312 -22.625 31.46875 -20.53125 C 33.488281 -18.445312 34.5 -16.082031 34.5 -13.4375 C 34.5 -10.90625 34.039062 -8.691406 33.125 -6.796875 C 32.21875 -4.910156 30.96875 -3.429688 29.375 -2.359375 C 27.789062 -1.285156 26.03125 -0.492188 24.09375 0.015625 C 22.164062 0.535156 20.082031 0.796875 17.84375 0.796875 C 15.90625 0.796875 14.007812 0.597656 12.15625 0.203125 C 10.300781 -0.179688 8.75 -0.664062 7.5 -1.25 C 6.25 -1.84375 5.125 -2.425781 4.125 -3 C 3.125 -3.570312 2.390625 -4.054688 1.921875 -4.453125 L 1.234375 -5.03125 L 6.265625 -13.5 C 6.691406 -13.144531 7.28125 -12.6875 8.03125 -12.125 C 8.78125 -11.570312 10.109375 -10.832031 12.015625 -9.90625 C 13.929688 -8.976562 15.625 -8.515625 17.09375 -8.515625 C 21.332031 -8.515625 23.453125 -9.960938 23.453125 -12.859375 C 23.453125 -13.460938 23.300781 -14.019531 23 -14.53125 C 22.695312 -15.050781 22.160156 -15.570312 21.390625 -16.09375 C 20.628906 -16.613281 19.953125 -17.023438 19.359375 -17.328125 C 18.773438 -17.628906 17.8125 -18.09375 16.46875 -18.71875 C 15.132812 -19.34375 14.144531 -19.816406 13.5 -20.140625 C 10.820312 -21.460938 8.75 -23.113281 7.28125 -25.09375 C 5.820312 -27.070312 5.09375 -29.207031 5.09375 -31.5 C 5.09375 -35.457031 6.554688 -38.695312 9.484375 -41.21875 C 12.410156 -43.738281 15.75 -45 19.5 -45 Z M 19.5 -45 "/></g></g></g><g fill="#e4e2dd" fill-opacity="1"><g transform="translate(181.764141, 204.610796)"><g><path d="M 39.75 0 L 37.65625 -26.1875 L 37.390625 -26.1875 L 28.328125 -0.265625 L 22.328125 -0.265625 L 13.28125 -26.1875 L 13.015625 -26.1875 L 10.921875 0 L 0.859375 0 L 4.828125 -44.1875 L 15.53125 -44.1875 L 25.328125 -18.6875 L 35.140625 -44.1875 L 45.84375 -44.1875 L 49.8125 0 Z M 39.75 0 "/></g></g></g><path stroke-linecap="butt" transform="matrix(0.75, 0, 0, 0.75, 124.175168, 225.587344)" fill="none" stroke-linejoin="miter" d="M 0.000817206 4.998124 L 84.433114 4.998124 " stroke="#e4e2dd" stroke-width="10" stroke-opacity="1" stroke-miterlimit="4"/><path stroke-linecap="butt" transform="matrix(0, 0.75, -0.75, 0, 131.671313, 168.993651)" fill="none" stroke-linejoin="miter" d="M -0.00195174 4.999252 L 82.461595 4.999252 " stroke="#e4e2dd" stroke-width="10" stroke-opacity="1" stroke-miterlimit="4"/><path stroke-linecap="butt" transform="matrix(-0.75, 0, 0, -0.75, 260.049979, 149.404941)" fill="none" stroke-linejoin="miter" d="M -0.00107017 4.998256 L 84.431227 4.998256 " stroke="#e4e2dd" stroke-width="10" stroke-opacity="1" stroke-miterlimit="4"/><path stroke-linecap="butt" transform="matrix(0, -0.75, 0.75, 0, 252.553846, 205.998634)" fill="none" stroke-linejoin="miter" d="M -0.0018207 5.001123 L 82.461726 5.001123 " stroke="#e4e2dd" stroke-width="10" stroke-opacity="1" stroke-miterlimit="4"/></svg>